ISO-10303-21;
HEADER;
/* Generated by software containing ST-Developer
 * from STEP Tools, Inc. (www.steptools.com) 
 */
/* OPTION: using custom renumber hook */

FILE_DESCRIPTION(
/* description */ ('STEP AP242 Edition 2',
'CAx-IF Rec.Pracs.---Representation and Presentation of Product Manufa
cturing Information (PMI)---4.0---2014-10-13',
'CAx-IF Rec.Pracs.---3D Tessellated Geometry---0.4---2014-09-14','2;1',
'CAx-IF Rec.Pracs.---User Defined Attributes---1.5---2016-08-15'),
/* implementation_level */ '2;1');

FILE_NAME(
/* name */ 'Part Studio 1 - Part 1',
/* time_stamp */ '2026-09-22T19:31:37Z',
/* author */ (''),
/* organization */ (''),
/* preprocessor_version */ 'ST-DEVELOPER v20',
/* originating_system */ 'ONSHAPE BY PTC INC, 1.221',
/* authorisation */ '  ');

FILE_SCHEMA (('AP242_MANAGED_MODEL_BASED_3D_ENGINEERING_MIM_LF { 1 0 10303 442 3 1 4 }'));
ENDSEC;

DATA;
#10=SHAPE_REPRESENTATION_RELATIONSHIP('','',#889,#11);
#11=ADVANCED_BREP_SHAPE_REPRESENTATION('',(#887),#1559);
#12=B_SPLINE_SURFACE_WITH_KNOTS('',1,3,((#1393,#1394,#1395,#1396),(#1397,
#1398,#1399,#1400)),.RULED_SURF.,.F.,.F.,.F.,(2,2),(4,4),(0.,1.),(2.41799556655844,
3.86518974062115),.PIECEWISE_BEZIER_KNOTS.);
#13=B_SPLINE_SURFACE_WITH_KNOTS('',1,3,((#1413,#1414,#1415,#1416),(#1417,
#1418,#1419,#1420)),.RULED_SURF.,.F.,.F.,.F.,(2,2),(4,4),(0.,1.),(2.41799556655844,
3.86518974062115),.PIECEWISE_BEZIER_KNOTS.);
#14=B_SPLINE_SURFACE_WITH_KNOTS('',1,3,((#1447,#1448,#1449,#1450),(#1451,
#1452,#1453,#1454)),.RULED_SURF.,.F.,.F.,.F.,(2,2),(4,4),(0.,1.),(-0.723597087031356,
0.723597087031354),.PIECEWISE_BEZIER_KNOTS.);
#15=B_SPLINE_SURFACE_WITH_KNOTS('',1,3,((#1467,#1468,#1469,#1470),(#1471,
#1472,#1473,#1474)),.RULED_SURF.,.F.,.F.,.F.,(2,2),(4,4),(0.,1.),(-0.723597087031354,
0.723597087031354),.PIECEWISE_BEZIER_KNOTS.);
#16=B_SPLINE_SURFACE_WITH_KNOTS('',1,3,((#1498,#1499,#1500,#1501),(#1502,
#1503,#1504,#1505)),.RULED_SURF.,.F.,.F.,.F.,(2,2),(4,4),(0.,1.),(2.41799556655844,
3.86518974062115),.PIECEWISE_BEZIER_KNOTS.);
#17=B_SPLINE_SURFACE_WITH_KNOTS('',1,3,((#1510,#1511,#1512,#1513),(#1514,
#1515,#1516,#1517)),.RULED_SURF.,.F.,.F.,.F.,(2,2),(4,4),(0.,1.),(2.41799556655844,
3.86518974062115),.PIECEWISE_BEZIER_KNOTS.);
#18=B_SPLINE_SURFACE_WITH_KNOTS('',1,3,((#1532,#1533,#1534,#1535),(#1536,
#1537,#1538,#1539)),.RULED_SURF.,.F.,.F.,.F.,(2,2),(4,4),(0.,1.),(5.55958822014823,
7.00678239421094),.PIECEWISE_BEZIER_KNOTS.);
#19=B_SPLINE_SURFACE_WITH_KNOTS('',1,3,((#1544,#1545,#1546,#1547),(#1548,
#1549,#1550,#1551)),.RULED_SURF.,.F.,.F.,.F.,(2,2),(4,4),(0.,1.),(5.55958822014823,
7.00678239421094),.PIECEWISE_BEZIER_KNOTS.);
#20=CONICAL_SURFACE('',#923,0.0025,0.785398163397449);
#21=CONICAL_SURFACE('',#924,0.0027,0.785398163397448);
#22=CYLINDRICAL_SURFACE('',#904,0.0027);
#23=CYLINDRICAL_SURFACE('',#929,0.0015);
#24=CYLINDRICAL_SURFACE('',#930,0.0015);
#25=CYLINDRICAL_SURFACE('',#931,0.0015);
#26=CYLINDRICAL_SURFACE('',#932,0.0015);
#27=LINE('',#1142,#111);
#28=LINE('',#1151,#112);
#29=LINE('',#1160,#113);
#30=LINE('',#1169,#114);
#31=LINE('',#1171,#115);
#32=LINE('',#1174,#116);
#33=LINE('',#1176,#117);
#34=LINE('',#1178,#118);
#35=LINE('',#1180,#119);
#36=LINE('',#1183,#120);
#37=LINE('',#1184,#121);
#38=LINE('',#1186,#122);
#39=LINE('',#1189,#123);
#40=LINE('',#1190,#124);
#41=LINE('',#1192,#125);
#42=LINE('',#1195,#126);
#43=LINE('',#1196,#127);
#44=LINE('',#1198,#128);
#45=LINE('',#1201,#129);
#46=LINE('',#1202,#130);
#47=LINE('',#1204,#131);
#48=LINE('',#1207,#132);
#49=LINE('',#1208,#133);
#50=LINE('',#1210,#134);
#51=LINE('',#1213,#135);
#52=LINE('',#1214,#136);
#53=LINE('',#1216,#137);
#54=LINE('',#1219,#138);
#55=LINE('',#1220,#139);
#56=LINE('',#1222,#140);
#57=LINE('',#1225,#141);
#58=LINE('',#1226,#142);
#59=LINE('',#1228,#143);
#60=LINE('',#1231,#144);
#61=LINE('',#1232,#145);
#62=LINE('',#1234,#146);
#63=LINE('',#1237,#147);
#64=LINE('',#1238,#148);
#65=LINE('',#1245,#149);
#66=LINE('',#1246,#150);
#67=LINE('',#1248,#151);
#68=LINE('',#1251,#152);
#69=LINE('',#1253,#153);
#70=LINE('',#1255,#154);
#71=LINE('',#1257,#155);
#72=LINE('',#1259,#156);
#73=LINE('',#1261,#157);
#74=LINE('',#1263,#158);
#75=LINE('',#1265,#159);
#76=LINE('',#1267,#160);
#77=LINE('',#1269,#161);
#78=LINE('',#1271,#162);
#79=LINE('',#1276,#163);
#80=LINE('',#1277,#164);
#81=LINE('',#1279,#165);
#82=LINE('',#1281,#166);
#83=LINE('',#1283,#167);
#84=LINE('',#1285,#168);
#85=LINE('',#1287,#169);
#86=LINE('',#1289,#170);
#87=LINE('',#1291,#171);
#88=LINE('',#1293,#172);
#89=LINE('',#1295,#173);
#90=LINE('',#1297,#174);
#91=LINE('',#1302,#175);
#92=LINE('',#1305,#176);
#93=LINE('',#1307,#177);
#94=LINE('',#1309,#178);
#95=LINE('',#1311,#179);
#96=LINE('',#1314,#180);
#97=LINE('',#1316,#181);
#98=LINE('',#1318,#182);
#99=LINE('',#1320,#183);
#100=LINE('',#1323,#184);
#101=LINE('',#1325,#185);
#102=LINE('',#1327,#186);
#103=LINE('',#1329,#187);
#104=LINE('',#1332,#188);
#105=LINE('',#1334,#189);
#106=LINE('',#1336,#190);
#107=LINE('',#1392,#191);
#108=LINE('',#1439,#192);
#109=LINE('',#1441,#193);
#110=LINE('',#1488,#194);
#111=VECTOR('',#948,1.);
#112=VECTOR('',#949,1.);
#113=VECTOR('',#950,1.);
#114=VECTOR('',#951,1.);
#115=VECTOR('',#954,1.);
#116=VECTOR('',#955,1.);
#117=VECTOR('',#956,1.);
#118=VECTOR('',#957,1.);
#119=VECTOR('',#960,1.);
#120=VECTOR('',#961,1.);
#121=VECTOR('',#962,1.);
#122=VECTOR('',#965,1.);
#123=VECTOR('',#966,1.);
#124=VECTOR('',#967,1.);
#125=VECTOR('',#970,1.);
#126=VECTOR('',#971,1.);
#127=VECTOR('',#972,1.);
#128=VECTOR('',#975,1.);
#129=VECTOR('',#976,1.);
#130=VECTOR('',#977,1.);
#131=VECTOR('',#980,1.);
#132=VECTOR('',#981,1.);
#133=VECTOR('',#982,1.);
#134=VECTOR('',#985,1.);
#135=VECTOR('',#986,1.);
#136=VECTOR('',#987,1.);
#137=VECTOR('',#990,1.);
#138=VECTOR('',#991,1.);
#139=VECTOR('',#992,1.);
#140=VECTOR('',#995,1.);
#141=VECTOR('',#996,1.);
#142=VECTOR('',#997,1.);
#143=VECTOR('',#1000,1.);
#144=VECTOR('',#1001,1.);
#145=VECTOR('',#1002,1.);
#146=VECTOR('',#1005,1.);
#147=VECTOR('',#1006,1.);
#148=VECTOR('',#1007,1.);
#149=VECTOR('',#1016,1.);
#150=VECTOR('',#1017,1.);
#151=VECTOR('',#1020,1.);
#152=VECTOR('',#1021,1.);
#153=VECTOR('',#1022,1.);
#154=VECTOR('',#1023,1.);
#155=VECTOR('',#1024,1.);
#156=VECTOR('',#1025,1.);
#157=VECTOR('',#1026,1.);
#158=VECTOR('',#1027,1.);
#159=VECTOR('',#1028,1.);
#160=VECTOR('',#1029,1.);
#161=VECTOR('',#1030,1.);
#162=VECTOR('',#1031,1.);
#163=VECTOR('',#1038,1.);
#164=VECTOR('',#1039,1.);
#165=VECTOR('',#1042,1.);
#166=VECTOR('',#1045,1.);
#167=VECTOR('',#1048,1.);
#168=VECTOR('',#1051,1.);
#169=VECTOR('',#1054,1.);
#170=VECTOR('',#1057,1.);
#171=VECTOR('',#1060,1.);
#172=VECTOR('',#1063,1.);
#173=VECTOR('',#1066,1.);
#174=VECTOR('',#1069,1.);
#175=VECTOR('',#1078,1.);
#176=VECTOR('',#1079,1.);
#177=VECTOR('',#1080,1.);
#178=VECTOR('',#1081,1.);
#179=VECTOR('',#1084,1.);
#180=VECTOR('',#1085,1.);
#181=VECTOR('',#1086,1.);
#182=VECTOR('',#1087,1.);
#183=VECTOR('',#1090,1.);
#184=VECTOR('',#1091,1.);
#185=VECTOR('',#1092,1.);
#186=VECTOR('',#1093,1.);
#187=VECTOR('',#1096,1.);
#188=VECTOR('',#1097,1.);
#189=VECTOR('',#1098,1.);
#190=VECTOR('',#1099,1.);
#191=VECTOR('',#1110,1.);
#192=VECTOR('',#1113,1.);
#193=VECTOR('',#1116,1.);
#194=VECTOR('',#1119,1.);
#195=B_SPLINE_CURVE_WITH_KNOTS('',3,(#1134,#1135,#1136,#1137,#1138,#1139),
 .UNSPECIFIED.,.F.,.F.,(4,1,1,4),(0.,0.25,0.5,1.),.UNSPECIFIED.);
#196=B_SPLINE_CURVE_WITH_KNOTS('',3,(#1144,#1145,#1146,#1147,#1148,#1149),
 .UNSPECIFIED.,.F.,.F.,(4,1,1,4),(0.,0.25,0.5,1.),.UNSPECIFIED.);
#197=B_SPLINE_CURVE_WITH_KNOTS('',3,(#1153,#1154,#1155,#1156,#1157,#1158),
 .UNSPECIFIED.,.F.,.F.,(4,1,1,4),(0.,0.25,0.5,1.),.UNSPECIFIED.);
#198=B_SPLINE_CURVE_WITH_KNOTS('',3,(#1162,#1163,#1164,#1165,#1166,#1167),
 .UNSPECIFIED.,.F.,.F.,(4,1,1,4),(0.,0.25,0.5,1.),.UNSPECIFIED.);
#199=B_SPLINE_CURVE_WITH_KNOTS('',3,(#1338,#1339,#1340,#1341,#1342),
 .UNSPECIFIED.,.F.,.F.,(4,1,4),(0.,0.5,1.),.UNSPECIFIED.);
#200=B_SPLINE_CURVE_WITH_KNOTS('',3,(#1343,#1344,#1345,#1346,#1347),
 .UNSPECIFIED.,.F.,.F.,(4,1,4),(0.,0.5,1.),.UNSPECIFIED.);
#201=B_SPLINE_CURVE_WITH_KNOTS('',3,(#1349,#1350,#1351,#1352,#1353),
 .UNSPECIFIED.,.F.,.F.,(4,1,4),(0.,0.5,1.),.UNSPECIFIED.);
#202=B_SPLINE_CURVE_WITH_KNOTS('',3,(#1354,#1355,#1356,#1357,#1358),
 .UNSPECIFIED.,.F.,.F.,(4,1,4),(0.,0.5,1.),.UNSPECIFIED.);
#203=B_SPLINE_CURVE_WITH_KNOTS('',3,(#1360,#1361,#1362,#1363,#1364),
 .UNSPECIFIED.,.F.,.F.,(4,1,4),(0.,0.5,1.),.UNSPECIFIED.);
#204=B_SPLINE_CURVE_WITH_KNOTS('',3,(#1365,#1366,#1367,#1368,#1369),
 .UNSPECIFIED.,.F.,.F.,(4,1,4),(0.,0.5,1.),.UNSPECIFIED.);
#205=B_SPLINE_CURVE_WITH_KNOTS('',3,(#1371,#1372,#1373,#1374,#1375),
 .UNSPECIFIED.,.F.,.F.,(4,1,4),(0.,0.5,1.),.UNSPECIFIED.);
#206=B_SPLINE_CURVE_WITH_KNOTS('',3,(#1376,#1377,#1378,#1379,#1380),
 .UNSPECIFIED.,.F.,.F.,(4,1,4),(0.,0.5,1.),.UNSPECIFIED.);
#207=B_SPLINE_CURVE_WITH_KNOTS('',3,(#1382,#1383,#1384,#1385),
 .UNSPECIFIED.,.F.,.F.,(4,4),(0.,1.),.UNSPECIFIED.);
#208=B_SPLINE_CURVE_WITH_KNOTS('',3,(#1387,#1388,#1389,#1390),
 .UNSPECIFIED.,.F.,.F.,(4,4),(0.,1.),.UNSPECIFIED.);
#209=B_SPLINE_CURVE_WITH_KNOTS('',3,(#1401,#1402,#1403,#1404),
 .UNSPECIFIED.,.F.,.F.,(4,4),(0.,1.),.UNSPECIFIED.);
#210=B_SPLINE_CURVE_WITH_KNOTS('',3,(#1406,#1407,#1408,#1409,#1410,#1411,
#1412),.UNSPECIFIED.,.F.,.F.,(4,1,1,1,4),(0.,0.25,0.5,0.75,1.),
 .UNSPECIFIED.);
#211=B_SPLINE_CURVE_WITH_KNOTS('',3,(#1421,#1422,#1423,#1424,#1425,#1426,
#1427),.UNSPECIFIED.,.F.,.F.,(4,1,1,1,4),(0.,0.25,0.5,0.75,1.),
 .UNSPECIFIED.);
#212=B_SPLINE_CURVE_WITH_KNOTS('',3,(#1429,#1430,#1431,#1432),
 .UNSPECIFIED.,.F.,.F.,(4,4),(0.,1.),.UNSPECIFIED.);
#213=B_SPLINE_CURVE_WITH_KNOTS('',3,(#1434,#1435,#1436,#1437),
 .UNSPECIFIED.,.F.,.F.,(4,4),(0.,1.),.UNSPECIFIED.);
#214=B_SPLINE_CURVE_WITH_KNOTS('',3,(#1443,#1444,#1445,#1446),
 .UNSPECIFIED.,.F.,.F.,(4,4),(0.,1.),.UNSPECIFIED.);
#215=B_SPLINE_CURVE_WITH_KNOTS('',3,(#1455,#1456,#1457,#1458),
 .UNSPECIFIED.,.F.,.F.,(4,4),(0.,1.),.UNSPECIFIED.);
#216=B_SPLINE_CURVE_WITH_KNOTS('',3,(#1460,#1461,#1462,#1463,#1464,#1465,
#1466),.UNSPECIFIED.,.F.,.F.,(4,1,1,1,4),(0.,0.25,0.5,0.75,1.),
 .UNSPECIFIED.);
#217=B_SPLINE_CURVE_WITH_KNOTS('',3,(#1475,#1476,#1477,#1478,#1479,#1480,
#1481),.UNSPECIFIED.,.F.,.F.,(4,1,1,1,4),(0.,0.25,0.5,0.75,1.),
 .UNSPECIFIED.);
#218=B_SPLINE_CURVE_WITH_KNOTS('',3,(#1483,#1484,#1485,#1486),
 .UNSPECIFIED.,.F.,.F.,(4,4),(0.,1.),.UNSPECIFIED.);
#219=B_SPLINE_CURVE_WITH_KNOTS('',3,(#1490,#1491,#1492,#1493),
 .UNSPECIFIED.,.F.,.F.,(4,4),(0.,1.),.UNSPECIFIED.);
#220=B_SPLINE_CURVE_WITH_KNOTS('',3,(#1494,#1495,#1496,#1497),
 .UNSPECIFIED.,.F.,.F.,(4,4),(0.,1.),.UNSPECIFIED.);
#221=B_SPLINE_CURVE_WITH_KNOTS('',3,(#1506,#1507,#1508,#1509),
 .UNSPECIFIED.,.F.,.F.,(4,4),(0.,1.),.UNSPECIFIED.);
#222=B_SPLINE_CURVE_WITH_KNOTS('',3,(#1518,#1519,#1520,#1521),
 .UNSPECIFIED.,.F.,.F.,(4,4),(0.,1.),.UNSPECIFIED.);
#223=B_SPLINE_CURVE_WITH_KNOTS('',3,(#1523,#1524,#1525,#1526),
 .UNSPECIFIED.,.F.,.F.,(4,4),(0.,1.),.UNSPECIFIED.);
#224=B_SPLINE_CURVE_WITH_KNOTS('',3,(#1528,#1529,#1530,#1531),
 .UNSPECIFIED.,.F.,.F.,(4,4),(0.,1.),.UNSPECIFIED.);
#225=B_SPLINE_CURVE_WITH_KNOTS('',3,(#1540,#1541,#1542,#1543),
 .UNSPECIFIED.,.F.,.F.,(4,4),(0.,1.),.UNSPECIFIED.);
#226=B_SPLINE_CURVE_WITH_KNOTS('',3,(#1552,#1553,#1554,#1555),
 .UNSPECIFIED.,.F.,.F.,(4,4),(0.,1.),.UNSPECIFIED.);
#227=ORIENTED_EDGE('',*,*,#467,.T.);
#228=ORIENTED_EDGE('',*,*,#468,.T.);
#229=ORIENTED_EDGE('',*,*,#469,.T.);
#230=ORIENTED_EDGE('',*,*,#470,.T.);
#231=ORIENTED_EDGE('',*,*,#471,.T.);
#232=ORIENTED_EDGE('',*,*,#472,.T.);
#233=ORIENTED_EDGE('',*,*,#473,.T.);
#234=ORIENTED_EDGE('',*,*,#474,.T.);
#235=ORIENTED_EDGE('',*,*,#475,.T.);
#236=ORIENTED_EDGE('',*,*,#476,.F.);
#237=ORIENTED_EDGE('',*,*,#477,.T.);
#238=ORIENTED_EDGE('',*,*,#478,.T.);
#239=ORIENTED_EDGE('',*,*,#479,.T.);
#240=ORIENTED_EDGE('',*,*,#480,.F.);
#241=ORIENTED_EDGE('',*,*,#481,.T.);
#242=ORIENTED_EDGE('',*,*,#476,.T.);
#243=ORIENTED_EDGE('',*,*,#482,.T.);
#244=ORIENTED_EDGE('',*,*,#483,.F.);
#245=ORIENTED_EDGE('',*,*,#484,.T.);
#246=ORIENTED_EDGE('',*,*,#480,.T.);
#247=ORIENTED_EDGE('',*,*,#485,.F.);
#248=ORIENTED_EDGE('',*,*,#486,.F.);
#249=ORIENTED_EDGE('',*,*,#487,.T.);
#250=ORIENTED_EDGE('',*,*,#483,.T.);
#251=ORIENTED_EDGE('',*,*,#488,.F.);
#252=ORIENTED_EDGE('',*,*,#489,.F.);
#253=ORIENTED_EDGE('',*,*,#490,.T.);
#254=ORIENTED_EDGE('',*,*,#486,.T.);
#255=ORIENTED_EDGE('',*,*,#491,.T.);
#256=ORIENTED_EDGE('',*,*,#492,.F.);
#257=ORIENTED_EDGE('',*,*,#493,.T.);
#258=ORIENTED_EDGE('',*,*,#489,.T.);
#259=ORIENTED_EDGE('',*,*,#494,.T.);
#260=ORIENTED_EDGE('',*,*,#495,.F.);
#261=ORIENTED_EDGE('',*,*,#496,.T.);
#262=ORIENTED_EDGE('',*,*,#492,.T.);
#263=ORIENTED_EDGE('',*,*,#497,.F.);
#264=ORIENTED_EDGE('',*,*,#498,.F.);
#265=ORIENTED_EDGE('',*,*,#499,.T.);
#266=ORIENTED_EDGE('',*,*,#495,.T.);
#267=ORIENTED_EDGE('',*,*,#500,.F.);
#268=ORIENTED_EDGE('',*,*,#501,.F.);
#269=ORIENTED_EDGE('',*,*,#502,.T.);
#270=ORIENTED_EDGE('',*,*,#498,.T.);
#271=ORIENTED_EDGE('',*,*,#503,.T.);
#272=ORIENTED_EDGE('',*,*,#504,.F.);
#273=ORIENTED_EDGE('',*,*,#505,.T.);
#274=ORIENTED_EDGE('',*,*,#501,.T.);
#275=ORIENTED_EDGE('',*,*,#506,.T.);
#276=ORIENTED_EDGE('',*,*,#507,.F.);
#277=ORIENTED_EDGE('',*,*,#508,.T.);
#278=ORIENTED_EDGE('',*,*,#504,.T.);
#279=ORIENTED_EDGE('',*,*,#509,.F.);
#280=ORIENTED_EDGE('',*,*,#510,.T.);
#281=ORIENTED_EDGE('',*,*,#511,.T.);
#282=ORIENTED_EDGE('',*,*,#478,.F.);
#283=ORIENTED_EDGE('',*,*,#512,.T.);
#284=ORIENTED_EDGE('',*,*,#507,.T.);
#285=ORIENTED_EDGE('',*,*,#513,.F.);
#286=ORIENTED_EDGE('',*,*,#514,.T.);
#287=ORIENTED_EDGE('',*,*,#515,.T.);
#288=ORIENTED_EDGE('',*,*,#516,.T.);
#289=ORIENTED_EDGE('',*,*,#517,.T.);
#290=ORIENTED_EDGE('',*,*,#518,.T.);
#291=ORIENTED_EDGE('',*,*,#519,.T.);
#292=ORIENTED_EDGE('',*,*,#520,.T.);
#293=ORIENTED_EDGE('',*,*,#521,.T.);
#294=ORIENTED_EDGE('',*,*,#522,.T.);
#295=ORIENTED_EDGE('',*,*,#523,.T.);
#296=ORIENTED_EDGE('',*,*,#524,.T.);
#297=ORIENTED_EDGE('',*,*,#525,.T.);
#298=ORIENTED_EDGE('',*,*,#526,.T.);
#299=ORIENTED_EDGE('',*,*,#479,.F.);
#300=ORIENTED_EDGE('',*,*,#513,.T.);
#301=ORIENTED_EDGE('',*,*,#509,.T.);
#302=ORIENTED_EDGE('',*,*,#506,.F.);
#303=ORIENTED_EDGE('',*,*,#503,.F.);
#304=ORIENTED_EDGE('',*,*,#500,.T.);
#305=ORIENTED_EDGE('',*,*,#497,.T.);
#306=ORIENTED_EDGE('',*,*,#494,.F.);
#307=ORIENTED_EDGE('',*,*,#491,.F.);
#308=ORIENTED_EDGE('',*,*,#488,.T.);
#309=ORIENTED_EDGE('',*,*,#485,.T.);
#310=ORIENTED_EDGE('',*,*,#482,.F.);
#311=ORIENTED_EDGE('',*,*,#527,.F.);
#312=ORIENTED_EDGE('',*,*,#521,.F.);
#313=ORIENTED_EDGE('',*,*,#528,.F.);
#314=ORIENTED_EDGE('',*,*,#477,.F.);
#315=ORIENTED_EDGE('',*,*,#528,.T.);
#316=ORIENTED_EDGE('',*,*,#520,.F.);
#317=ORIENTED_EDGE('',*,*,#529,.F.);
#318=ORIENTED_EDGE('',*,*,#512,.F.);
#319=ORIENTED_EDGE('',*,*,#527,.T.);
#320=ORIENTED_EDGE('',*,*,#481,.F.);
#321=ORIENTED_EDGE('',*,*,#530,.F.);
#322=ORIENTED_EDGE('',*,*,#522,.F.);
#323=ORIENTED_EDGE('',*,*,#529,.T.);
#324=ORIENTED_EDGE('',*,*,#519,.F.);
#325=ORIENTED_EDGE('',*,*,#531,.F.);
#326=ORIENTED_EDGE('',*,*,#508,.F.);
#327=ORIENTED_EDGE('',*,*,#530,.T.);
#328=ORIENTED_EDGE('',*,*,#484,.F.);
#329=ORIENTED_EDGE('',*,*,#532,.F.);
#330=ORIENTED_EDGE('',*,*,#523,.F.);
#331=ORIENTED_EDGE('',*,*,#531,.T.);
#332=ORIENTED_EDGE('',*,*,#518,.F.);
#333=ORIENTED_EDGE('',*,*,#533,.F.);
#334=ORIENTED_EDGE('',*,*,#505,.F.);
#335=ORIENTED_EDGE('',*,*,#532,.T.);
#336=ORIENTED_EDGE('',*,*,#487,.F.);
#337=ORIENTED_EDGE('',*,*,#534,.F.);
#338=ORIENTED_EDGE('',*,*,#524,.F.);
#339=ORIENTED_EDGE('',*,*,#533,.T.);
#340=ORIENTED_EDGE('',*,*,#517,.F.);
#341=ORIENTED_EDGE('',*,*,#535,.F.);
#342=ORIENTED_EDGE('',*,*,#502,.F.);
#343=ORIENTED_EDGE('',*,*,#534,.T.);
#344=ORIENTED_EDGE('',*,*,#490,.F.);
#345=ORIENTED_EDGE('',*,*,#536,.F.);
#346=ORIENTED_EDGE('',*,*,#525,.F.);
#347=ORIENTED_EDGE('',*,*,#535,.T.);
#348=ORIENTED_EDGE('',*,*,#516,.F.);
#349=ORIENTED_EDGE('',*,*,#537,.F.);
#350=ORIENTED_EDGE('',*,*,#499,.F.);
#351=ORIENTED_EDGE('',*,*,#536,.T.);
#352=ORIENTED_EDGE('',*,*,#493,.F.);
#353=ORIENTED_EDGE('',*,*,#538,.F.);
#354=ORIENTED_EDGE('',*,*,#514,.F.);
#355=ORIENTED_EDGE('',*,*,#537,.T.);
#356=ORIENTED_EDGE('',*,*,#515,.F.);
#357=ORIENTED_EDGE('',*,*,#538,.T.);
#358=ORIENTED_EDGE('',*,*,#496,.F.);
#359=ORIENTED_EDGE('',*,*,#511,.F.);
#360=ORIENTED_EDGE('',*,*,#526,.F.);
#361=ORIENTED_EDGE('',*,*,#467,.F.);
#362=ORIENTED_EDGE('',*,*,#510,.F.);
#363=ORIENTED_EDGE('',*,*,#539,.T.);
#364=ORIENTED_EDGE('',*,*,#540,.T.);
#365=ORIENTED_EDGE('',*,*,#541,.T.);
#366=ORIENTED_EDGE('',*,*,#542,.T.);
#367=ORIENTED_EDGE('',*,*,#543,.T.);
#368=ORIENTED_EDGE('',*,*,#544,.T.);
#369=ORIENTED_EDGE('',*,*,#545,.T.);
#370=ORIENTED_EDGE('',*,*,#546,.T.);
#371=ORIENTED_EDGE('',*,*,#547,.T.);
#372=ORIENTED_EDGE('',*,*,#548,.T.);
#373=ORIENTED_EDGE('',*,*,#549,.T.);
#374=ORIENTED_EDGE('',*,*,#550,.T.);
#375=ORIENTED_EDGE('',*,*,#551,.T.);
#376=ORIENTED_EDGE('',*,*,#552,.T.);
#377=ORIENTED_EDGE('',*,*,#553,.T.);
#378=ORIENTED_EDGE('',*,*,#554,.T.);
#379=ORIENTED_EDGE('',*,*,#541,.F.);
#380=ORIENTED_EDGE('',*,*,#555,.T.);
#381=ORIENTED_EDGE('',*,*,#547,.F.);
#382=ORIENTED_EDGE('',*,*,#556,.T.);
#383=ORIENTED_EDGE('',*,*,#545,.F.);
#384=ORIENTED_EDGE('',*,*,#557,.T.);
#385=ORIENTED_EDGE('',*,*,#539,.F.);
#386=ORIENTED_EDGE('',*,*,#558,.T.);
#387=ORIENTED_EDGE('',*,*,#553,.F.);
#388=ORIENTED_EDGE('',*,*,#559,.T.);
#389=ORIENTED_EDGE('',*,*,#543,.F.);
#390=ORIENTED_EDGE('',*,*,#560,.T.);
#391=ORIENTED_EDGE('',*,*,#549,.F.);
#392=ORIENTED_EDGE('',*,*,#561,.T.);
#393=ORIENTED_EDGE('',*,*,#551,.F.);
#394=ORIENTED_EDGE('',*,*,#562,.T.);
#395=ORIENTED_EDGE('',*,*,#563,.F.);
#396=ORIENTED_EDGE('',*,*,#540,.F.);
#397=ORIENTED_EDGE('',*,*,#564,.F.);
#398=ORIENTED_EDGE('',*,*,#565,.F.);
#399=ORIENTED_EDGE('',*,*,#564,.T.);
#400=ORIENTED_EDGE('',*,*,#557,.F.);
#401=ORIENTED_EDGE('',*,*,#566,.F.);
#402=ORIENTED_EDGE('',*,*,#567,.F.);
#403=ORIENTED_EDGE('',*,*,#563,.T.);
#404=ORIENTED_EDGE('',*,*,#568,.F.);
#405=ORIENTED_EDGE('',*,*,#569,.F.);
#406=ORIENTED_EDGE('',*,*,#555,.F.);
#407=ORIENTED_EDGE('',*,*,#566,.T.);
#408=ORIENTED_EDGE('',*,*,#544,.F.);
#409=ORIENTED_EDGE('',*,*,#570,.F.);
#410=ORIENTED_EDGE('',*,*,#571,.F.);
#411=ORIENTED_EDGE('',*,*,#569,.T.);
#412=ORIENTED_EDGE('',*,*,#572,.F.);
#413=ORIENTED_EDGE('',*,*,#573,.F.);
#414=ORIENTED_EDGE('',*,*,#548,.F.);
#415=ORIENTED_EDGE('',*,*,#570,.T.);
#416=ORIENTED_EDGE('',*,*,#559,.F.);
#417=ORIENTED_EDGE('',*,*,#574,.F.);
#418=ORIENTED_EDGE('',*,*,#575,.F.);
#419=ORIENTED_EDGE('',*,*,#573,.T.);
#420=ORIENTED_EDGE('',*,*,#576,.F.);
#421=ORIENTED_EDGE('',*,*,#577,.F.);
#422=ORIENTED_EDGE('',*,*,#561,.F.);
#423=ORIENTED_EDGE('',*,*,#574,.T.);
#424=ORIENTED_EDGE('',*,*,#552,.F.);
#425=ORIENTED_EDGE('',*,*,#577,.T.);
#426=ORIENTED_EDGE('',*,*,#578,.F.);
#427=ORIENTED_EDGE('',*,*,#579,.F.);
#428=ORIENTED_EDGE('',*,*,#473,.F.);
#429=ORIENTED_EDGE('',*,*,#580,.F.);
#430=ORIENTED_EDGE('',*,*,#542,.F.);
#431=ORIENTED_EDGE('',*,*,#580,.T.);
#432=ORIENTED_EDGE('',*,*,#472,.F.);
#433=ORIENTED_EDGE('',*,*,#581,.F.);
#434=ORIENTED_EDGE('',*,*,#558,.F.);
#435=ORIENTED_EDGE('',*,*,#579,.T.);
#436=ORIENTED_EDGE('',*,*,#556,.F.);
#437=ORIENTED_EDGE('',*,*,#582,.F.);
#438=ORIENTED_EDGE('',*,*,#474,.F.);
#439=ORIENTED_EDGE('',*,*,#581,.T.);
#440=ORIENTED_EDGE('',*,*,#471,.F.);
#441=ORIENTED_EDGE('',*,*,#583,.F.);
#442=ORIENTED_EDGE('',*,*,#546,.F.);
#443=ORIENTED_EDGE('',*,*,#582,.T.);
#444=ORIENTED_EDGE('',*,*,#550,.F.);
#445=ORIENTED_EDGE('',*,*,#584,.F.);
#446=ORIENTED_EDGE('',*,*,#475,.F.);
#447=ORIENTED_EDGE('',*,*,#583,.T.);
#448=ORIENTED_EDGE('',*,*,#470,.F.);
#449=ORIENTED_EDGE('',*,*,#585,.F.);
#450=ORIENTED_EDGE('',*,*,#560,.F.);
#451=ORIENTED_EDGE('',*,*,#584,.T.);
#452=ORIENTED_EDGE('',*,*,#562,.F.);
#453=ORIENTED_EDGE('',*,*,#586,.F.);
#454=ORIENTED_EDGE('',*,*,#468,.F.);
#455=ORIENTED_EDGE('',*,*,#585,.T.);
#456=ORIENTED_EDGE('',*,*,#469,.F.);
#457=ORIENTED_EDGE('',*,*,#586,.T.);
#458=ORIENTED_EDGE('',*,*,#554,.F.);
#459=ORIENTED_EDGE('',*,*,#575,.T.);
#460=ORIENTED_EDGE('',*,*,#578,.T.);
#461=ORIENTED_EDGE('',*,*,#576,.T.);
#462=ORIENTED_EDGE('',*,*,#572,.T.);
#463=ORIENTED_EDGE('',*,*,#568,.T.);
#464=ORIENTED_EDGE('',*,*,#565,.T.);
#465=ORIENTED_EDGE('',*,*,#567,.T.);
#466=ORIENTED_EDGE('',*,*,#571,.T.);
#467=EDGE_CURVE('',#587,#587,#659,.F.);
#468=EDGE_CURVE('',#588,#589,#195,.T.);
#469=EDGE_CURVE('',#589,#590,#27,.T.);
#470=EDGE_CURVE('',#590,#591,#196,.T.);
#471=EDGE_CURVE('',#591,#592,#28,.T.);
#472=EDGE_CURVE('',#592,#593,#197,.T.);
#473=EDGE_CURVE('',#593,#594,#29,.T.);
#474=EDGE_CURVE('',#594,#595,#198,.T.);
#475=EDGE_CURVE('',#595,#588,#30,.T.);
#476=EDGE_CURVE('',#596,#597,#31,.T.);
#477=EDGE_CURVE('',#596,#598,#32,.T.);
#478=EDGE_CURVE('',#598,#599,#33,.T.);
#479=EDGE_CURVE('',#599,#597,#34,.T.);
#480=EDGE_CURVE('',#600,#601,#35,.T.);
#481=EDGE_CURVE('',#600,#596,#36,.T.);
#482=EDGE_CURVE('',#597,#601,#37,.T.);
#483=EDGE_CURVE('',#602,#603,#38,.T.);
#484=EDGE_CURVE('',#602,#600,#39,.T.);
#485=EDGE_CURVE('',#603,#601,#40,.T.);
#486=EDGE_CURVE('',#604,#605,#41,.T.);
#487=EDGE_CURVE('',#604,#602,#42,.T.);
#488=EDGE_CURVE('',#605,#603,#43,.T.);
#489=EDGE_CURVE('',#606,#607,#44,.T.);
#490=EDGE_CURVE('',#606,#604,#45,.T.);
#491=EDGE_CURVE('',#605,#607,#46,.T.);
#492=EDGE_CURVE('',#608,#609,#47,.T.);
#493=EDGE_CURVE('',#608,#606,#48,.T.);
#494=EDGE_CURVE('',#607,#609,#49,.T.);
#495=EDGE_CURVE('',#610,#611,#50,.T.);
#496=EDGE_CURVE('',#610,#608,#51,.T.);
#497=EDGE_CURVE('',#611,#609,#52,.T.);
#498=EDGE_CURVE('',#612,#613,#53,.T.);
#499=EDGE_CURVE('',#612,#610,#54,.T.);
#500=EDGE_CURVE('',#613,#611,#55,.T.);
#501=EDGE_CURVE('',#614,#615,#56,.T.);
#502=EDGE_CURVE('',#614,#612,#57,.T.);
#503=EDGE_CURVE('',#613,#615,#58,.T.);
#504=EDGE_CURVE('',#616,#617,#59,.T.);
#505=EDGE_CURVE('',#616,#614,#60,.T.);
#506=EDGE_CURVE('',#615,#617,#61,.T.);
#507=EDGE_CURVE('',#618,#619,#62,.T.);
#508=EDGE_CURVE('',#618,#616,#63,.T.);
#509=EDGE_CURVE('',#619,#617,#64,.T.);
#510=EDGE_CURVE('',#620,#620,#660,.T.);
#511=EDGE_CURVE('',#621,#621,#661,.F.);
#512=EDGE_CURVE('',#598,#618,#65,.T.);
#513=EDGE_CURVE('',#599,#619,#66,.T.);
#514=EDGE_CURVE('',#622,#623,#67,.T.);
#515=EDGE_CURVE('',#623,#624,#68,.T.);
#516=EDGE_CURVE('',#624,#625,#69,.T.);
#517=EDGE_CURVE('',#625,#626,#70,.T.);
#518=EDGE_CURVE('',#626,#627,#71,.T.);
#519=EDGE_CURVE('',#627,#628,#72,.T.);
#520=EDGE_CURVE('',#628,#629,#73,.T.);
#521=EDGE_CURVE('',#629,#630,#74,.T.);
#522=EDGE_CURVE('',#630,#631,#75,.T.);
#523=EDGE_CURVE('',#631,#632,#76,.T.);
#524=EDGE_CURVE('',#632,#633,#77,.T.);
#525=EDGE_CURVE('',#633,#622,#78,.T.);
#526=EDGE_CURVE('',#634,#634,#662,.T.);
#527=EDGE_CURVE('',#630,#596,#79,.T.);
#528=EDGE_CURVE('',#598,#629,#80,.T.);
#529=EDGE_CURVE('',#618,#628,#81,.F.);
#530=EDGE_CURVE('',#631,#600,#82,.F.);
#531=EDGE_CURVE('',#616,#627,#83,.T.);
#532=EDGE_CURVE('',#632,#602,#84,.T.);
#533=EDGE_CURVE('',#614,#626,#85,.F.);
#534=EDGE_CURVE('',#633,#604,#86,.F.);
#535=EDGE_CURVE('',#612,#625,#87,.T.);
#536=EDGE_CURVE('',#622,#606,#88,.T.);
#537=EDGE_CURVE('',#610,#624,#89,.F.);
#538=EDGE_CURVE('',#623,#608,#90,.T.);
#539=EDGE_CURVE('',#635,#636,#91,.T.);
#540=EDGE_CURVE('',#636,#637,#92,.T.);
#541=EDGE_CURVE('',#637,#638,#93,.F.);
#542=EDGE_CURVE('',#638,#635,#94,.T.);
#543=EDGE_CURVE('',#639,#640,#95,.T.);
#544=EDGE_CURVE('',#640,#641,#96,.F.);
#545=EDGE_CURVE('',#641,#642,#97,.T.);
#546=EDGE_CURVE('',#642,#639,#98,.F.);
#547=EDGE_CURVE('',#643,#644,#99,.T.);
#548=EDGE_CURVE('',#644,#645,#100,.T.);
#549=EDGE_CURVE('',#645,#646,#101,.T.);
#550=EDGE_CURVE('',#646,#643,#102,.T.);
#551=EDGE_CURVE('',#647,#648,#103,.T.);
#552=EDGE_CURVE('',#648,#649,#104,.F.);
#553=EDGE_CURVE('',#649,#650,#105,.F.);
#554=EDGE_CURVE('',#650,#647,#106,.F.);
#555=EDGE_CURVE('',#637,#644,#199,.T.);
#556=EDGE_CURVE('',#643,#638,#200,.T.);
#557=EDGE_CURVE('',#641,#636,#201,.T.);
#558=EDGE_CURVE('',#635,#642,#202,.T.);
#559=EDGE_CURVE('',#649,#640,#203,.T.);
#560=EDGE_CURVE('',#639,#650,#204,.T.);
#561=EDGE_CURVE('',#645,#648,#205,.T.);
#562=EDGE_CURVE('',#647,#646,#206,.T.);
#563=EDGE_CURVE('',#637,#651,#207,.F.);
#564=EDGE_CURVE('',#652,#636,#208,.F.);
#565=EDGE_CURVE('',#651,#652,#107,.T.);
#566=EDGE_CURVE('',#653,#641,#209,.T.);
#567=EDGE_CURVE('',#652,#653,#210,.T.);
#568=EDGE_CURVE('',#654,#651,#211,.T.);
#569=EDGE_CURVE('',#644,#654,#212,.T.);
#570=EDGE_CURVE('',#655,#640,#213,.F.);
#571=EDGE_CURVE('',#653,#655,#108,.T.);
#572=EDGE_CURVE('',#656,#654,#109,.T.);
#573=EDGE_CURVE('',#645,#656,#214,.F.);
#574=EDGE_CURVE('',#657,#649,#215,.T.);
#575=EDGE_CURVE('',#655,#657,#216,.T.);
#576=EDGE_CURVE('',#658,#656,#217,.T.);
#577=EDGE_CURVE('',#648,#658,#218,.T.);
#578=EDGE_CURVE('',#657,#658,#110,.T.);
#579=EDGE_CURVE('',#594,#638,#219,.F.);
#580=EDGE_CURVE('',#635,#593,#220,.F.);
#581=EDGE_CURVE('',#642,#592,#221,.T.);
#582=EDGE_CURVE('',#595,#643,#222,.T.);
#583=EDGE_CURVE('',#639,#591,#223,.F.);
#584=EDGE_CURVE('',#588,#646,#224,.F.);
#585=EDGE_CURVE('',#650,#590,#225,.T.);
#586=EDGE_CURVE('',#589,#647,#226,.T.);
#587=VERTEX_POINT('',#1133);
#588=VERTEX_POINT('',#1140);
#589=VERTEX_POINT('',#1141);
#590=VERTEX_POINT('',#1143);
#591=VERTEX_POINT('',#1150);
#592=VERTEX_POINT('',#1152);
#593=VERTEX_POINT('',#1159);
#594=VERTEX_POINT('',#1161);
#595=VERTEX_POINT('',#1168);
#596=VERTEX_POINT('',#1172);
#597=VERTEX_POINT('',#1173);
#598=VERTEX_POINT('',#1175);
#599=VERTEX_POINT('',#1177);
#600=VERTEX_POINT('',#1181);
#601=VERTEX_POINT('',#1182);
#602=VERTEX_POINT('',#1187);
#603=VERTEX_POINT('',#1188);
#604=VERTEX_POINT('',#1193);
#605=VERTEX_POINT('',#1194);
#606=VERTEX_POINT('',#1199);
#607=VERTEX_POINT('',#1200);
#608=VERTEX_POINT('',#1205);
#609=VERTEX_POINT('',#1206);
#610=VERTEX_POINT('',#1211);
#611=VERTEX_POINT('',#1212);
#612=VERTEX_POINT('',#1217);
#613=VERTEX_POINT('',#1218);
#614=VERTEX_POINT('',#1223);
#615=VERTEX_POINT('',#1224);
#616=VERTEX_POINT('',#1229);
#617=VERTEX_POINT('',#1230);
#618=VERTEX_POINT('',#1235);
#619=VERTEX_POINT('',#1236);
#620=VERTEX_POINT('',#1241);
#621=VERTEX_POINT('',#1243);
#622=VERTEX_POINT('',#1249);
#623=VERTEX_POINT('',#1250);
#624=VERTEX_POINT('',#1252);
#625=VERTEX_POINT('',#1254);
#626=VERTEX_POINT('',#1256);
#627=VERTEX_POINT('',#1258);
#628=VERTEX_POINT('',#1260);
#629=VERTEX_POINT('',#1262);
#630=VERTEX_POINT('',#1264);
#631=VERTEX_POINT('',#1266);
#632=VERTEX_POINT('',#1268);
#633=VERTEX_POINT('',#1270);
#634=VERTEX_POINT('',#1273);
#635=VERTEX_POINT('',#1303);
#636=VERTEX_POINT('',#1304);
#637=VERTEX_POINT('',#1306);
#638=VERTEX_POINT('',#1308);
#639=VERTEX_POINT('',#1312);
#640=VERTEX_POINT('',#1313);
#641=VERTEX_POINT('',#1315);
#642=VERTEX_POINT('',#1317);
#643=VERTEX_POINT('',#1321);
#644=VERTEX_POINT('',#1322);
#645=VERTEX_POINT('',#1324);
#646=VERTEX_POINT('',#1326);
#647=VERTEX_POINT('',#1330);
#648=VERTEX_POINT('',#1331);
#649=VERTEX_POINT('',#1333);
#650=VERTEX_POINT('',#1335);
#651=VERTEX_POINT('',#1386);
#652=VERTEX_POINT('',#1391);
#653=VERTEX_POINT('',#1405);
#654=VERTEX_POINT('',#1428);
#655=VERTEX_POINT('',#1438);
#656=VERTEX_POINT('',#1442);
#657=VERTEX_POINT('',#1459);
#658=VERTEX_POINT('',#1482);
#659=CIRCLE('',#892,0.0031);
#660=CIRCLE('',#905,0.0027);
#661=CIRCLE('',#906,0.0027);
#662=CIRCLE('',#909,0.0025);
#663=EDGE_LOOP('',(#227));
#664=EDGE_LOOP('',(#228,#229,#230,#231,#232,#233,#234,#235));
#665=EDGE_LOOP('',(#236,#237,#238,#239));
#666=EDGE_LOOP('',(#240,#241,#242,#243));
#667=EDGE_LOOP('',(#244,#245,#246,#247));
#668=EDGE_LOOP('',(#248,#249,#250,#251));
#669=EDGE_LOOP('',(#252,#253,#254,#255));
#670=EDGE_LOOP('',(#256,#257,#258,#259));
#671=EDGE_LOOP('',(#260,#261,#262,#263));
#672=EDGE_LOOP('',(#264,#265,#266,#267));
#673=EDGE_LOOP('',(#268,#269,#270,#271));
#674=EDGE_LOOP('',(#272,#273,#274,#275));
#675=EDGE_LOOP('',(#276,#277,#278,#279));
#676=EDGE_LOOP('',(#280));
#677=EDGE_LOOP('',(#281));
#678=EDGE_LOOP('',(#282,#283,#284,#285));
#679=EDGE_LOOP('',(#286,#287,#288,#289,#290,#291,#292,#293,#294,#295,#296,
#297));
#680=EDGE_LOOP('',(#298));
#681=EDGE_LOOP('',(#299,#300,#301,#302,#303,#304,#305,#306,#307,#308,#309,
#310));
#682=EDGE_LOOP('',(#311,#312,#313,#314));
#683=EDGE_LOOP('',(#315,#316,#317,#318));
#684=EDGE_LOOP('',(#319,#320,#321,#322));
#685=EDGE_LOOP('',(#323,#324,#325,#326));
#686=EDGE_LOOP('',(#327,#328,#329,#330));
#687=EDGE_LOOP('',(#331,#332,#333,#334));
#688=EDGE_LOOP('',(#335,#336,#337,#338));
#689=EDGE_LOOP('',(#339,#340,#341,#342));
#690=EDGE_LOOP('',(#343,#344,#345,#346));
#691=EDGE_LOOP('',(#347,#348,#349,#350));
#692=EDGE_LOOP('',(#351,#352,#353,#354));
#693=EDGE_LOOP('',(#355,#356,#357,#358));
#694=EDGE_LOOP('',(#359));
#695=EDGE_LOOP('',(#360));
#696=EDGE_LOOP('',(#361));
#697=EDGE_LOOP('',(#362));
#698=EDGE_LOOP('',(#363,#364,#365,#366));
#699=EDGE_LOOP('',(#367,#368,#369,#370));
#700=EDGE_LOOP('',(#371,#372,#373,#374));
#701=EDGE_LOOP('',(#375,#376,#377,#378));
#702=EDGE_LOOP('',(#379,#380,#381,#382));
#703=EDGE_LOOP('',(#383,#384,#385,#386));
#704=EDGE_LOOP('',(#387,#388,#389,#390));
#705=EDGE_LOOP('',(#391,#392,#393,#394));
#706=EDGE_LOOP('',(#395,#396,#397,#398));
#707=EDGE_LOOP('',(#399,#400,#401,#402));
#708=EDGE_LOOP('',(#403,#404,#405,#406));
#709=EDGE_LOOP('',(#407,#408,#409,#410));
#710=EDGE_LOOP('',(#411,#412,#413,#414));
#711=EDGE_LOOP('',(#415,#416,#417,#418));
#712=EDGE_LOOP('',(#419,#420,#421,#422));
#713=EDGE_LOOP('',(#423,#424,#425,#426));
#714=EDGE_LOOP('',(#427,#428,#429,#430));
#715=EDGE_LOOP('',(#431,#432,#433,#434));
#716=EDGE_LOOP('',(#435,#436,#437,#438));
#717=EDGE_LOOP('',(#439,#440,#441,#442));
#718=EDGE_LOOP('',(#443,#444,#445,#446));
#719=EDGE_LOOP('',(#447,#448,#449,#450));
#720=EDGE_LOOP('',(#451,#452,#453,#454));
#721=EDGE_LOOP('',(#455,#456,#457,#458));
#722=EDGE_LOOP('',(#459,#460,#461,#462,#463,#464,#465,#466));
#723=FACE_BOUND('',#663,.T.);
#724=FACE_BOUND('',#664,.T.);
#725=FACE_BOUND('',#665,.T.);
#726=FACE_BOUND('',#666,.T.);
#727=FACE_BOUND('',#667,.T.);
#728=FACE_BOUND('',#668,.T.);
#729=FACE_BOUND('',#669,.T.);
#730=FACE_BOUND('',#670,.T.);
#731=FACE_BOUND('',#671,.T.);
#732=FACE_BOUND('',#672,.T.);
#733=FACE_BOUND('',#673,.T.);
#734=FACE_BOUND('',#674,.T.);
#735=FACE_BOUND('',#675,.T.);
#736=FACE_BOUND('',#676,.T.);
#737=FACE_BOUND('',#677,.T.);
#738=FACE_BOUND('',#678,.T.);
#739=FACE_BOUND('',#679,.T.);
#740=FACE_BOUND('',#680,.T.);
#741=FACE_BOUND('',#681,.T.);
#742=FACE_BOUND('',#682,.T.);
#743=FACE_BOUND('',#683,.T.);
#744=FACE_BOUND('',#684,.T.);
#745=FACE_BOUND('',#685,.T.);
#746=FACE_BOUND('',#686,.T.);
#747=FACE_BOUND('',#687,.T.);
#748=FACE_BOUND('',#688,.T.);
#749=FACE_BOUND('',#689,.T.);
#750=FACE_BOUND('',#690,.T.);
#751=FACE_BOUND('',#691,.T.);
#752=FACE_BOUND('',#692,.T.);
#753=FACE_BOUND('',#693,.T.);
#754=FACE_BOUND('',#694,.T.);
#755=FACE_BOUND('',#695,.T.);
#756=FACE_BOUND('',#696,.T.);
#757=FACE_BOUND('',#697,.T.);
#758=FACE_BOUND('',#698,.T.);
#759=FACE_BOUND('',#699,.T.);
#760=FACE_BOUND('',#700,.T.);
#761=FACE_BOUND('',#701,.T.);
#762=FACE_BOUND('',#702,.T.);
#763=FACE_BOUND('',#703,.T.);
#764=FACE_BOUND('',#704,.T.);
#765=FACE_BOUND('',#705,.T.);
#766=FACE_BOUND('',#706,.T.);
#767=FACE_BOUND('',#707,.T.);
#768=FACE_BOUND('',#708,.T.);
#769=FACE_BOUND('',#709,.T.);
#770=FACE_BOUND('',#710,.T.);
#771=FACE_BOUND('',#711,.T.);
#772=FACE_BOUND('',#712,.T.);
#773=FACE_BOUND('',#713,.T.);
#774=FACE_BOUND('',#714,.T.);
#775=FACE_BOUND('',#715,.T.);
#776=FACE_BOUND('',#716,.T.);
#777=FACE_BOUND('',#717,.T.);
#778=FACE_BOUND('',#718,.T.);
#779=FACE_BOUND('',#719,.T.);
#780=FACE_BOUND('',#720,.T.);
#781=FACE_BOUND('',#721,.T.);
#782=FACE_BOUND('',#722,.T.);
#783=PLANE('',#891);
#784=PLANE('',#893);
#785=PLANE('',#894);
#786=PLANE('',#895);
#787=PLANE('',#896);
#788=PLANE('',#897);
#789=PLANE('',#898);
#790=PLANE('',#899);
#791=PLANE('',#900);
#792=PLANE('',#901);
#793=PLANE('',#902);
#794=PLANE('',#903);
#795=PLANE('',#907);
#796=PLANE('',#908);
#797=PLANE('',#910);
#798=PLANE('',#911);
#799=PLANE('',#912);
#800=PLANE('',#913);
#801=PLANE('',#914);
#802=PLANE('',#915);
#803=PLANE('',#916);
#804=PLANE('',#917);
#805=PLANE('',#918);
#806=PLANE('',#919);
#807=PLANE('',#920);
#808=PLANE('',#921);
#809=PLANE('',#922);
#810=PLANE('',#925);
#811=PLANE('',#926);
#812=PLANE('',#927);
#813=PLANE('',#928);
#814=PLANE('',#933);
#815=PLANE('',#934);
#816=PLANE('',#935);
#817=PLANE('',#936);
#818=PLANE('',#937);
#819=PLANE('',#938);
#820=PLANE('',#939);
#821=PLANE('',#940);
#822=PLANE('',#941);
#823=ADVANCED_FACE('',(#723,#724),#783,.T.);
#824=ADVANCED_FACE('',(#725),#784,.F.);
#825=ADVANCED_FACE('',(#726),#785,.F.);
#826=ADVANCED_FACE('',(#727),#786,.T.);
#827=ADVANCED_FACE('',(#728),#787,.T.);
#828=ADVANCED_FACE('',(#729),#788,.F.);
#829=ADVANCED_FACE('',(#730),#789,.F.);
#830=ADVANCED_FACE('',(#731),#790,.T.);
#831=ADVANCED_FACE('',(#732),#791,.T.);
#832=ADVANCED_FACE('',(#733),#792,.F.);
#833=ADVANCED_FACE('',(#734),#793,.F.);
#834=ADVANCED_FACE('',(#735),#794,.T.);
#835=ADVANCED_FACE('',(#736,#737),#22,.T.);
#836=ADVANCED_FACE('',(#738),#795,.T.);
#837=ADVANCED_FACE('',(#739,#740),#796,.T.);
#838=ADVANCED_FACE('',(#741),#797,.T.);
#839=ADVANCED_FACE('',(#742),#798,.T.);
#840=ADVANCED_FACE('',(#743),#799,.F.);
#841=ADVANCED_FACE('',(#744),#800,.T.);
#842=ADVANCED_FACE('',(#745),#801,.F.);
#843=ADVANCED_FACE('',(#746),#802,.F.);
#844=ADVANCED_FACE('',(#747),#803,.T.);
#845=ADVANCED_FACE('',(#748),#804,.F.);
#846=ADVANCED_FACE('',(#749),#805,.T.);
#847=ADVANCED_FACE('',(#750),#806,.T.);
#848=ADVANCED_FACE('',(#751),#807,.F.);
#849=ADVANCED_FACE('',(#752),#808,.T.);
#850=ADVANCED_FACE('',(#753),#809,.F.);
#851=ADVANCED_FACE('',(#754,#755),#20,.T.);
#852=ADVANCED_FACE('',(#756,#757),#21,.T.);
#853=ADVANCED_FACE('',(#758),#810,.T.);
#854=ADVANCED_FACE('',(#759),#811,.F.);
#855=ADVANCED_FACE('',(#760),#812,.T.);
#856=ADVANCED_FACE('',(#761),#813,.F.);
#857=ADVANCED_FACE('',(#762),#23,.T.);
#858=ADVANCED_FACE('',(#763),#24,.T.);
#859=ADVANCED_FACE('',(#764),#25,.T.);
#860=ADVANCED_FACE('',(#765),#26,.T.);
#861=ADVANCED_FACE('',(#766),#814,.T.);
#862=ADVANCED_FACE('',(#767),#12,.T.);
#863=ADVANCED_FACE('',(#768),#13,.T.);
#864=ADVANCED_FACE('',(#769),#815,.F.);
#865=ADVANCED_FACE('',(#770),#816,.T.);
#866=ADVANCED_FACE('',(#771),#14,.T.);
#867=ADVANCED_FACE('',(#772),#15,.T.);
#868=ADVANCED_FACE('',(#773),#817,.F.);
#869=ADVANCED_FACE('',(#774),#818,.F.);
#870=ADVANCED_FACE('',(#775),#16,.T.);
#871=ADVANCED_FACE('',(#776),#17,.T.);
#872=ADVANCED_FACE('',(#777),#819,.T.);
#873=ADVANCED_FACE('',(#778),#820,.F.);
#874=ADVANCED_FACE('',(#779),#18,.T.);
#875=ADVANCED_FACE('',(#780),#19,.T.);
#876=ADVANCED_FACE('',(#781),#821,.T.);
#877=ADVANCED_FACE('',(#782),#822,.T.);
#878=CLOSED_SHELL('',(#823,#824,#825,#826,#827,#828,#829,#830,#831,#832,
#833,#834,#835,#836,#837,#838,#839,#840,#841,#842,#843,#844,#845,#846,#847,
#848,#849,#850,#851,#852,#853,#854,#855,#856,#857,#858,#859,#860,#861,#862,
#863,#864,#865,#866,#867,#868,#869,#870,#871,#872,#873,#874,#875,#876,#877));
#879=STYLED_ITEM('',(#880),#887);
#880=PRESENTATION_STYLE_ASSIGNMENT((#881));
#881=SURFACE_STYLE_USAGE(.BOTH.,#882);
#882=SURFACE_SIDE_STYLE('',(#883));
#883=SURFACE_STYLE_FILL_AREA(#884);
#884=FILL_AREA_STYLE('',(#885));
#885=FILL_AREA_STYLE_COLOUR('',#886);
#886=COLOUR_RGB('',0.768627450980392,0.886274509803922,0.952941176470588);
#887=MANIFOLD_SOLID_BREP('Part 1',#878);
#888=SHAPE_DEFINITION_REPRESENTATION(#1564,#889);
#889=SHAPE_REPRESENTATION('Part 1',(#890),#1559);
#890=AXIS2_PLACEMENT_3D('',#1130,#942,#943);
#891=AXIS2_PLACEMENT_3D('',#1131,#944,#945);
#892=AXIS2_PLACEMENT_3D('',#1132,#946,#947);
#893=AXIS2_PLACEMENT_3D('',#1170,#952,#953);
#894=AXIS2_PLACEMENT_3D('',#1179,#958,#959);
#895=AXIS2_PLACEMENT_3D('',#1185,#963,#964);
#896=AXIS2_PLACEMENT_3D('',#1191,#968,#969);
#897=AXIS2_PLACEMENT_3D('',#1197,#973,#974);
#898=AXIS2_PLACEMENT_3D('',#1203,#978,#979);
#899=AXIS2_PLACEMENT_3D('',#1209,#983,#984);
#900=AXIS2_PLACEMENT_3D('',#1215,#988,#989);
#901=AXIS2_PLACEMENT_3D('',#1221,#993,#994);
#902=AXIS2_PLACEMENT_3D('',#1227,#998,#999);
#903=AXIS2_PLACEMENT_3D('',#1233,#1003,#1004);
#904=AXIS2_PLACEMENT_3D('',#1239,#1008,#1009);
#905=AXIS2_PLACEMENT_3D('',#1240,#1010,#1011);
#906=AXIS2_PLACEMENT_3D('',#1242,#1012,#1013);
#907=AXIS2_PLACEMENT_3D('',#1244,#1014,#1015);
#908=AXIS2_PLACEMENT_3D('',#1247,#1018,#1019);
#909=AXIS2_PLACEMENT_3D('',#1272,#1032,#1033);
#910=AXIS2_PLACEMENT_3D('',#1274,#1034,#1035);
#911=AXIS2_PLACEMENT_3D('',#1275,#1036,#1037);
#912=AXIS2_PLACEMENT_3D('',#1278,#1040,#1041);
#913=AXIS2_PLACEMENT_3D('',#1280,#1043,#1044);
#914=AXIS2_PLACEMENT_3D('',#1282,#1046,#1047);
#915=AXIS2_PLACEMENT_3D('',#1284,#1049,#1050);
#916=AXIS2_PLACEMENT_3D('',#1286,#1052,#1053);
#917=AXIS2_PLACEMENT_3D('',#1288,#1055,#1056);
#918=AXIS2_PLACEMENT_3D('',#1290,#1058,#1059);
#919=AXIS2_PLACEMENT_3D('',#1292,#1061,#1062);
#920=AXIS2_PLACEMENT_3D('',#1294,#1064,#1065);
#921=AXIS2_PLACEMENT_3D('',#1296,#1067,#1068);
#922=AXIS2_PLACEMENT_3D('',#1298,#1070,#1071);
#923=AXIS2_PLACEMENT_3D('',#1299,#1072,#1073);
#924=AXIS2_PLACEMENT_3D('',#1300,#1074,#1075);
#925=AXIS2_PLACEMENT_3D('',#1301,#1076,#1077);
#926=AXIS2_PLACEMENT_3D('',#1310,#1082,#1083);
#927=AXIS2_PLACEMENT_3D('',#1319,#1088,#1089);
#928=AXIS2_PLACEMENT_3D('',#1328,#1094,#1095);
#929=AXIS2_PLACEMENT_3D('',#1337,#1100,#1101);
#930=AXIS2_PLACEMENT_3D('',#1348,#1102,#1103);
#931=AXIS2_PLACEMENT_3D('',#1359,#1104,#1105);
#932=AXIS2_PLACEMENT_3D('',#1370,#1106,#1107);
#933=AXIS2_PLACEMENT_3D('',#1381,#1108,#1109);
#934=AXIS2_PLACEMENT_3D('',#1433,#1111,#1112);
#935=AXIS2_PLACEMENT_3D('',#1440,#1114,#1115);
#936=AXIS2_PLACEMENT_3D('',#1487,#1117,#1118);
#937=AXIS2_PLACEMENT_3D('',#1489,#1120,#1121);
#938=AXIS2_PLACEMENT_3D('',#1522,#1122,#1123);
#939=AXIS2_PLACEMENT_3D('',#1527,#1124,#1125);
#940=AXIS2_PLACEMENT_3D('',#1556,#1126,#1127);
#941=AXIS2_PLACEMENT_3D('',#1557,#1128,#1129);
#942=DIRECTION('',(0.,0.,1.));
#943=DIRECTION('',(1.,0.,0.));
#944=DIRECTION('',(0.,0.,1.));
#945=DIRECTION('',(1.,0.,0.));
#946=DIRECTION('',(0.,0.,1.));
#947=DIRECTION('',(1.,0.,0.));
#948=DIRECTION('',(2.16840434497101E-16,-1.,0.));
#949=DIRECTION('',(1.,2.16840434497101E-16,0.));
#950=DIRECTION('',(-2.16840434497101E-16,1.,0.));
#951=DIRECTION('',(-1.,-2.16840434497101E-16,0.));
#952=DIRECTION('',(-1.,0.,0.));
#953=DIRECTION('',(0.,0.,1.));
#954=DIRECTION('',(0.,0.,-1.));
#955=DIRECTION('',(0.,-1.,0.));
#956=DIRECTION('',(0.,0.,-1.));
#957=DIRECTION('',(0.,1.,0.));
#958=DIRECTION('',(0.,1.,0.));
#959=DIRECTION('',(0.,0.,1.));
#960=DIRECTION('',(0.,0.,-1.));
#961=DIRECTION('',(-1.,0.,0.));
#962=DIRECTION('',(1.,0.,0.));
#963=DIRECTION('',(1.,8.34001671142696E-17,0.));
#964=DIRECTION('',(-8.34001671142696E-17,1.,0.));
#965=DIRECTION('',(0.,0.,-1.));
#966=DIRECTION('',(8.34001671142696E-17,-1.,0.));
#967=DIRECTION('',(8.34001671142696E-17,-1.,0.));
#968=DIRECTION('',(0.,-1.,0.));
#969=DIRECTION('',(0.,0.,-1.));
#970=DIRECTION('',(0.,0.,-1.));
#971=DIRECTION('',(-1.,0.,0.));
#972=DIRECTION('',(-1.,0.,0.));
#973=DIRECTION('',(1.,8.34001671142696E-17,0.));
#974=DIRECTION('',(-8.34001671142696E-17,1.,0.));
#975=DIRECTION('',(0.,0.,-1.));
#976=DIRECTION('',(-8.34001671142696E-17,1.,0.));
#977=DIRECTION('',(8.34001671142696E-17,-1.,0.));
#978=DIRECTION('',(0.,1.,0.));
#979=DIRECTION('',(0.,0.,1.));
#980=DIRECTION('',(0.,0.,-1.));
#981=DIRECTION('',(-1.,0.,0.));
#982=DIRECTION('',(1.,0.,0.));
#983=DIRECTION('',(-1.,0.,0.));
#984=DIRECTION('',(0.,0.,1.));
#985=DIRECTION('',(0.,0.,-1.));
#986=DIRECTION('',(0.,1.,0.));
#987=DIRECTION('',(0.,1.,0.));
#988=DIRECTION('',(0.,1.,0.));
#989=DIRECTION('',(0.,0.,1.));
#990=DIRECTION('',(0.,0.,-1.));
#991=DIRECTION('',(1.,0.,0.));
#992=DIRECTION('',(1.,0.,0.));
#993=DIRECTION('',(1.,8.34001671142696E-17,0.));
#994=DIRECTION('',(-8.34001671142696E-17,1.,0.));
#995=DIRECTION('',(0.,0.,-1.));
#996=DIRECTION('',(-8.34001671142696E-17,1.,0.));
#997=DIRECTION('',(8.34001671142696E-17,-1.,0.));
#998=DIRECTION('',(0.,-1.,0.));
#999=DIRECTION('',(0.,0.,-1.));
#1000=DIRECTION('',(0.,0.,-1.));
#1001=DIRECTION('',(1.,0.,0.));
#1002=DIRECTION('',(-1.,0.,0.));
#1003=DIRECTION('',(1.,8.34001671142696E-17,0.));
#1004=DIRECTION('',(-8.34001671142696E-17,1.,0.));
#1005=DIRECTION('',(0.,0.,-1.));
#1006=DIRECTION('',(8.34001671142696E-17,-1.,0.));
#1007=DIRECTION('',(8.34001671142696E-17,-1.,0.));
#1008=DIRECTION('',(0.,0.,-1.));
#1009=DIRECTION('',(-1.,0.,0.));
#1010=DIRECTION('',(0.,0.,1.));
#1011=DIRECTION('',(1.,0.,0.));
#1012=DIRECTION('',(0.,0.,1.));
#1013=DIRECTION('',(1.,0.,0.));
#1014=DIRECTION('',(0.,1.,0.));
#1015=DIRECTION('',(0.,0.,1.));
#1016=DIRECTION('',(1.,0.,0.));
#1017=DIRECTION('',(1.,0.,0.));
#1018=DIRECTION('',(0.,0.,1.));
#1019=DIRECTION('',(1.,0.,0.));
#1020=DIRECTION('',(1.,0.,0.));
#1021=DIRECTION('',(0.,-1.,0.));
#1022=DIRECTION('',(-1.,0.,0.));
#1023=DIRECTION('',(8.34001671142696E-17,-1.,0.));
#1024=DIRECTION('',(-1.,0.,0.));
#1025=DIRECTION('',(-8.34001671142696E-17,1.,0.));
#1026=DIRECTION('',(-1.,0.,0.));
#1027=DIRECTION('',(0.,1.,0.));
#1028=DIRECTION('',(1.,0.,0.));
#1029=DIRECTION('',(-8.34001671142696E-17,1.,0.));
#1030=DIRECTION('',(1.,0.,0.));
#1031=DIRECTION('',(8.34001671142696E-17,-1.,0.));
#1032=DIRECTION('',(0.,0.,1.));
#1033=DIRECTION('',(1.,0.,0.));
#1034=DIRECTION('',(0.,0.,1.));
#1035=DIRECTION('',(1.,0.,0.));
#1036=DIRECTION('',(0.707106781186548,0.,0.707106781186548));
#1037=DIRECTION('',(0.,-1.,0.));
#1038=DIRECTION('',(0.577350269189626,-0.577350269189626,-0.577350269189626));
#1039=DIRECTION('',(-0.577350269189626,-0.577350269189626,0.577350269189626));
#1040=DIRECTION('',(0.,-0.707106781186548,-0.707106781186548));
#1041=DIRECTION('',(1.,0.,0.));
#1042=DIRECTION('',(0.577350269189626,0.577350269189626,-0.577350269189626));
#1043=DIRECTION('',(0.,-0.707106781186548,0.707106781186548));
#1044=DIRECTION('',(-1.,0.,0.));
#1045=DIRECTION('',(-0.577350269189626,0.577350269189626,0.577350269189626));
#1046=DIRECTION('',(-0.707106781186548,-5.89728237185913E-17,-0.707106781186548));
#1047=DIRECTION('',(8.34001671142696E-17,-1.,0.));
#1048=DIRECTION('',(-0.577350269189626,-0.577350269189626,0.577350269189626));
#1049=DIRECTION('',(-0.707106781186548,-5.89728237185913E-17,-0.707106781186548));
#1050=DIRECTION('',(8.34001671142696E-17,-1.,0.));
#1051=DIRECTION('',(0.577350269189626,-0.577350269189626,-0.577350269189626));
#1052=DIRECTION('',(0.,0.707106781186548,0.707106781186548));
#1053=DIRECTION('',(1.,0.,0.));
#1054=DIRECTION('',(-0.577350269189626,0.577350269189626,-0.577350269189626));
#1055=DIRECTION('',(0.,0.707106781186548,-0.707106781186548));
#1056=DIRECTION('',(-1.,0.,0.));
#1057=DIRECTION('',(0.577350269189626,0.577350269189626,0.577350269189626));
#1058=DIRECTION('',(-0.707106781186548,-5.89728237185913E-17,0.707106781186548));
#1059=DIRECTION('',(-8.34001671142696E-17,1.,0.));
#1060=DIRECTION('',(0.577350269189626,-0.577350269189626,0.577350269189626));
#1061=DIRECTION('',(-0.707106781186548,-5.89728237185913E-17,0.707106781186548));
#1062=DIRECTION('',(-8.34001671142696E-17,1.,0.));
#1063=DIRECTION('',(-0.577350269189626,-0.577350269189626,-0.577350269189626));
#1064=DIRECTION('',(0.,-0.707106781186548,-0.707106781186548));
#1065=DIRECTION('',(1.,0.,0.));
#1066=DIRECTION('',(-0.577350269189626,0.577350269189626,-0.577350269189626));
#1067=DIRECTION('',(0.,-0.707106781186548,0.707106781186548));
#1068=DIRECTION('',(-1.,0.,0.));
#1069=DIRECTION('',(-0.577350269189626,-0.577350269189626,-0.577350269189626));
#1070=DIRECTION('',(0.707106781186548,0.,-0.707106781186548));
#1071=DIRECTION('',(0.,1.,0.));
#1072=DIRECTION('',(0.,0.,-1.));
#1073=DIRECTION('',(-1.,0.,0.));
#1074=DIRECTION('',(0.,0.,-1.));
#1075=DIRECTION('',(-1.,0.,0.));
#1076=DIRECTION('',(0.936329177569045,2.03034025696385E-16,-0.351123441588391));
#1077=DIRECTION('',(2.16840434497101E-16,-1.,0.));
#1078=DIRECTION('',(-0.33129457822454,0.33129457822454,-0.883452208598772));
#1079=DIRECTION('',(-2.16840434497101E-16,1.,0.));
#1080=DIRECTION('',(-0.33129457822454,-0.33129457822454,-0.883452208598772));
#1081=DIRECTION('',(2.16840434497101E-16,-1.,0.));
#1082=DIRECTION('',(-2.03034025696385E-16,0.936329177569045,0.351123441588391));
#1083=DIRECTION('',(-1.,-2.16840434497101E-16,0.));
#1084=DIRECTION('',(0.33129457822454,0.33129457822454,-0.883452208598772));
#1085=DIRECTION('',(-1.,-2.16840434497101E-16,0.));
#1086=DIRECTION('',(0.33129457822454,-0.33129457822454,0.883452208598772));
#1087=DIRECTION('',(1.,2.16840434497101E-16,0.));
#1088=DIRECTION('',(-2.03034025696385E-16,0.936329177569045,-0.351123441588391));
#1089=DIRECTION('',(1.,2.16840434497101E-16,0.));
#1090=DIRECTION('',(-0.33129457822454,-0.33129457822454,-0.883452208598772));
#1091=DIRECTION('',(-1.,-2.16840434497101E-16,0.));
#1092=DIRECTION('',(-0.33129457822454,0.33129457822454,0.883452208598772));
#1093=DIRECTION('',(1.,2.16840434497101E-16,0.));
#1094=DIRECTION('',(0.936329177569045,2.03034025696385E-16,0.351123441588391));
#1095=DIRECTION('',(-2.16840434497101E-16,1.,0.));
#1096=DIRECTION('',(0.33129457822454,-0.33129457822454,-0.883452208598772));
#1097=DIRECTION('',(-2.16840434497101E-16,1.,0.));
#1098=DIRECTION('',(0.33129457822454,0.33129457822454,-0.883452208598772));
#1099=DIRECTION('',(2.16840434497101E-16,-1.,0.));
#1100=DIRECTION('',(-0.33129457822454,-0.33129457822454,-0.883452208598773));
#1101=DIRECTION('',(0.,0.936329177569045,-0.351123441588391));
#1102=DIRECTION('',(-0.33129457822454,0.33129457822454,-0.883452208598773));
#1103=DIRECTION('',(-0.936329177569045,0.,0.351123441588391));
#1104=DIRECTION('',(-0.33129457822454,-0.33129457822454,0.883452208598773));
#1105=DIRECTION('',(0.,-0.936329177569045,-0.351123441588391));
#1106=DIRECTION('',(-0.33129457822454,0.33129457822454,0.883452208598773));
#1107=DIRECTION('',(0.936329177569045,0.,0.351123441588391));
#1108=DIRECTION('',(0.569594837762603,1.23511192107748E-16,-0.821925617555624));
#1109=DIRECTION('',(-2.16840434497101E-16,1.,0.));
#1110=DIRECTION('',(2.16840434497101E-16,-1.,0.));
#1111=DIRECTION('',(-1.23511192107748E-16,0.569594837762603,0.821925617555624));
#1112=DIRECTION('',(-1.,-2.16840434497101E-16,0.));
#1113=DIRECTION('',(-1.,-2.16840434497101E-16,0.));
#1114=DIRECTION('',(-1.23511192107748E-16,0.569594837762603,-0.821925617555624));
#1115=DIRECTION('',(-1.,-2.16840434497101E-16,0.));
#1116=DIRECTION('',(1.,2.16840434497101E-16,0.));
#1117=DIRECTION('',(0.569594837762603,1.23511192107748E-16,0.821925617555624));
#1118=DIRECTION('',(-2.16840434497101E-16,1.,0.));
#1119=DIRECTION('',(-2.16840434497101E-16,1.,0.));
#1120=DIRECTION('',(-0.821925617555627,-1.7822670803506E-16,-0.569594837762599));
#1121=DIRECTION('',(-2.16840434497101E-16,1.,0.));
#1122=DIRECTION('',(1.78226708035059E-16,-0.821925617555625,0.569594837762602));
#1123=DIRECTION('',(1.,2.16840434497101E-16,0.));
#1124=DIRECTION('',(1.7822670803506E-16,-0.821925617555627,-0.569594837762599));
#1125=DIRECTION('',(-1.,-2.16840434497101E-16,0.));
#1126=DIRECTION('',(-0.821925617555625,-1.78226708035059E-16,0.569594837762602));
#1127=DIRECTION('',(2.16840434497101E-16,-1.,0.));
#1128=DIRECTION('',(0.,0.,-1.));
#1129=DIRECTION('',(1.,0.,0.));
#1130=CARTESIAN_POINT('',(0.,0.,0.));
#1131=CARTESIAN_POINT('',(0.,0.,0.));
#1132=CARTESIAN_POINT('',(0.,1.65327317884892E-19,0.));
#1133=CARTESIAN_POINT('',(0.0031,1.65327317884892E-19,0.));
#1134=CARTESIAN_POINT('',(-0.00652528154532876,0.0078,0.));
#1135=CARTESIAN_POINT('',(-0.00670226014492128,0.00780377437575639,0.));
#1136=CARTESIAN_POINT('',(-0.00702708767583228,0.00774981460989853,0.));
#1137=CARTESIAN_POINT('',(-0.00760336745250264,0.00735656436249505,0.));
#1138=CARTESIAN_POINT('',(-0.00780742115489687,0.0068732558027361,0.));
#1139=CARTESIAN_POINT('',(-0.0078,0.00652528154532875,0.));
#1140=CARTESIAN_POINT('',(-0.00652528154532876,0.0078,0.));
#1141=CARTESIAN_POINT('',(-0.0078,0.00652528154532875,0.));
#1142=CARTESIAN_POINT('',(-0.0078,-1.69135538907738E-18,0.));
#1143=CARTESIAN_POINT('',(-0.0078,-0.00652528154532876,0.));
#1144=CARTESIAN_POINT('',(-0.0078,-0.00652528154532876,0.));
#1145=CARTESIAN_POINT('',(-0.00780377437575639,-0.00670226014492128,0.));
#1146=CARTESIAN_POINT('',(-0.00774981460989853,-0.00702708767583228,0.));
#1147=CARTESIAN_POINT('',(-0.00735656436249505,-0.00760336745250264,0.));
#1148=CARTESIAN_POINT('',(-0.0068732558027361,-0.00780742115489687,0.));
#1149=CARTESIAN_POINT('',(-0.00652528154532875,-0.0078,0.));
#1150=CARTESIAN_POINT('',(-0.00652528154532875,-0.0078,0.));
#1151=CARTESIAN_POINT('',(1.69135538907738E-18,-0.0078,0.));
#1152=CARTESIAN_POINT('',(0.00652528154532876,-0.0078,0.));
#1153=CARTESIAN_POINT('',(0.00652528154532876,-0.0078,0.));
#1154=CARTESIAN_POINT('',(0.00670226014492064,-0.00780377437575638,0.));
#1155=CARTESIAN_POINT('',(0.00702708767583082,-0.0077498146098984,0.));
#1156=CARTESIAN_POINT('',(0.00760336745250353,-0.00735656436249557,0.));
#1157=CARTESIAN_POINT('',(0.00780742115489683,-0.0068732558027339,0.));
#1158=CARTESIAN_POINT('',(0.0078,-0.00652528154532875,0.));
#1159=CARTESIAN_POINT('',(0.0078,-0.00652528154532875,0.));
#1160=CARTESIAN_POINT('',(0.0078,1.69135538907738E-18,0.));
#1161=CARTESIAN_POINT('',(0.0078,0.00652528154532876,0.));
#1162=CARTESIAN_POINT('',(0.0078,0.00652528154532876,0.));
#1163=CARTESIAN_POINT('',(0.00780377437575639,0.00670226014492115,0.));
#1164=CARTESIAN_POINT('',(0.00774981460989852,0.00702708767583198,0.));
#1165=CARTESIAN_POINT('',(0.00735656436249505,0.00760336745250282,0.));
#1166=CARTESIAN_POINT('',(0.0068732558027361,0.00780742115489687,0.));
#1167=CARTESIAN_POINT('',(0.00652528154532875,0.0078,0.));
#1168=CARTESIAN_POINT('',(0.00652528154532875,0.0078,0.));
#1169=CARTESIAN_POINT('',(-1.69135538907738E-18,0.0078,0.));
#1170=CARTESIAN_POINT('',(-0.00205,-5.42101086242752E-20,0.004));
#1171=CARTESIAN_POINT('',(-0.00205,0.00075,0.004));
#1172=CARTESIAN_POINT('',(-0.00205,0.00075,0.0038));
#1173=CARTESIAN_POINT('',(-0.00205,0.00075,0.));
#1174=CARTESIAN_POINT('',(-0.00205,-0.00075,0.0038));
#1175=CARTESIAN_POINT('',(-0.00205,-0.00075,0.0038));
#1176=CARTESIAN_POINT('',(-0.00205,-0.00075,0.004));
#1177=CARTESIAN_POINT('',(-0.00205,-0.00075,0.));
#1178=CARTESIAN_POINT('',(-0.00205,-5.42101086242752E-20,0.));
#1179=CARTESIAN_POINT('',(-0.0014,0.00075,0.004));
#1180=CARTESIAN_POINT('',(-0.00075,0.00075,0.004));
#1181=CARTESIAN_POINT('',(-0.00075,0.00075,0.0038));
#1182=CARTESIAN_POINT('',(-0.00075,0.00075,0.));
#1183=CARTESIAN_POINT('',(-0.00205,0.00075,0.0038));
#1184=CARTESIAN_POINT('',(-0.0014,0.00075,0.));
#1185=CARTESIAN_POINT('',(-0.00075,0.0014,0.004));
#1186=CARTESIAN_POINT('',(-0.00075,0.00205,0.004));
#1187=CARTESIAN_POINT('',(-0.00075,0.00205,0.0038));
#1188=CARTESIAN_POINT('',(-0.00075,0.00205,0.));
#1189=CARTESIAN_POINT('',(-0.00075,0.0014,0.0038));
#1190=CARTESIAN_POINT('',(-0.00075,0.0014,0.));
#1191=CARTESIAN_POINT('',(0.,0.00205,0.004));
#1192=CARTESIAN_POINT('',(0.00075,0.00205,0.004));
#1193=CARTESIAN_POINT('',(0.00075,0.00205,0.0038));
#1194=CARTESIAN_POINT('',(0.00075,0.00205,0.));
#1195=CARTESIAN_POINT('',(0.,0.00205,0.0038));
#1196=CARTESIAN_POINT('',(0.,0.00205,0.));
#1197=CARTESIAN_POINT('',(0.00075,0.0014,0.004));
#1198=CARTESIAN_POINT('',(0.00075,0.00075,0.004));
#1199=CARTESIAN_POINT('',(0.00075,0.00075,0.0038));
#1200=CARTESIAN_POINT('',(0.00075,0.00075,0.));
#1201=CARTESIAN_POINT('',(0.00075,0.00205,0.0038));
#1202=CARTESIAN_POINT('',(0.00075,0.0014,0.));
#1203=CARTESIAN_POINT('',(0.0014,0.00075,0.004));
#1204=CARTESIAN_POINT('',(0.00205,0.00075,0.004));
#1205=CARTESIAN_POINT('',(0.00205,0.00075,0.0038));
#1206=CARTESIAN_POINT('',(0.00205,0.00075,0.));
#1207=CARTESIAN_POINT('',(0.00075,0.00075,0.0038));
#1208=CARTESIAN_POINT('',(0.0014,0.00075,0.));
#1209=CARTESIAN_POINT('',(0.00205,5.42101086242752E-20,0.004));
#1210=CARTESIAN_POINT('',(0.00205,-0.00075,0.004));
#1211=CARTESIAN_POINT('',(0.00205,-0.00075,0.0038));
#1212=CARTESIAN_POINT('',(0.00205,-0.00075,0.));
#1213=CARTESIAN_POINT('',(0.00205,5.42101086242752E-20,0.0038));
#1214=CARTESIAN_POINT('',(0.00205,5.42101086242752E-20,0.));
#1215=CARTESIAN_POINT('',(0.0014,-0.00075,0.004));
#1216=CARTESIAN_POINT('',(0.00075,-0.00075,0.004));
#1217=CARTESIAN_POINT('',(0.00075,-0.00075,0.0038));
#1218=CARTESIAN_POINT('',(0.00075,-0.00075,0.));
#1219=CARTESIAN_POINT('',(0.0014,-0.00075,0.0038));
#1220=CARTESIAN_POINT('',(0.0014,-0.00075,0.));
#1221=CARTESIAN_POINT('',(0.00075,-0.0014,0.004));
#1222=CARTESIAN_POINT('',(0.00075,-0.00205,0.004));
#1223=CARTESIAN_POINT('',(0.00075,-0.00205,0.0038));
#1224=CARTESIAN_POINT('',(0.00075,-0.00205,0.));
#1225=CARTESIAN_POINT('',(0.00075,-0.00075,0.0038));
#1226=CARTESIAN_POINT('',(0.00075,-0.0014,0.));
#1227=CARTESIAN_POINT('',(1.0842021724855E-19,-0.00205,0.004));
#1228=CARTESIAN_POINT('',(-0.00075,-0.00205,0.004));
#1229=CARTESIAN_POINT('',(-0.00075,-0.00205,0.0038));
#1230=CARTESIAN_POINT('',(-0.00075,-0.00205,0.));
#1231=CARTESIAN_POINT('',(0.00075,-0.00205,0.0038));
#1232=CARTESIAN_POINT('',(1.0842021724855E-19,-0.00205,0.));
#1233=CARTESIAN_POINT('',(-0.00075,-0.0014,0.004));
#1234=CARTESIAN_POINT('',(-0.00075,-0.00075,0.004));
#1235=CARTESIAN_POINT('',(-0.00075,-0.00075,0.0038));
#1236=CARTESIAN_POINT('',(-0.00075,-0.00075,0.));
#1237=CARTESIAN_POINT('',(-0.00075,-0.0014,0.0038));
#1238=CARTESIAN_POINT('',(-0.00075,-0.0014,0.));
#1239=CARTESIAN_POINT('',(0.,1.65327317884892E-19,0.004));
#1240=CARTESIAN_POINT('',(0.,1.65327317884892E-19,0.0004));
#1241=CARTESIAN_POINT('',(0.0027,1.65327317884892E-19,0.0004));
#1242=CARTESIAN_POINT('',(0.,1.65327317884892E-19,0.0038));
#1243=CARTESIAN_POINT('',(0.0027,1.65327317884892E-19,0.0038));
#1244=CARTESIAN_POINT('',(-0.0014,-0.00075,0.004));
#1245=CARTESIAN_POINT('',(-0.0014,-0.00075,0.0038));
#1246=CARTESIAN_POINT('',(-0.0014,-0.00075,0.));
#1247=CARTESIAN_POINT('',(0.,0.,0.004));
#1248=CARTESIAN_POINT('',(0.00205,0.00095,0.004));
#1249=CARTESIAN_POINT('',(0.00095,0.00095,0.004));
#1250=CARTESIAN_POINT('',(0.00225,0.00095,0.004));
#1251=CARTESIAN_POINT('',(0.00225,0.,0.004));
#1252=CARTESIAN_POINT('',(0.00225,-0.00095,0.004));
#1253=CARTESIAN_POINT('',(0.,-0.00095,0.004));
#1254=CARTESIAN_POINT('',(0.00095,-0.00095,0.004));
#1255=CARTESIAN_POINT('',(0.00095,-0.00205,0.004));
#1256=CARTESIAN_POINT('',(0.00095,-0.00225,0.004));
#1257=CARTESIAN_POINT('',(-0.00075,-0.00225,0.004));
#1258=CARTESIAN_POINT('',(-0.00095,-0.00225,0.004));
#1259=CARTESIAN_POINT('',(-0.00095,-7.92301587585561E-20,0.004));
#1260=CARTESIAN_POINT('',(-0.00095,-0.00095,0.004));
#1261=CARTESIAN_POINT('',(0.,-0.00095,0.004));
#1262=CARTESIAN_POINT('',(-0.00225,-0.00095,0.004));
#1263=CARTESIAN_POINT('',(-0.00225,0.00075,0.004));
#1264=CARTESIAN_POINT('',(-0.00225,0.00095,0.004));
#1265=CARTESIAN_POINT('',(-0.00075,0.00095,0.004));
#1266=CARTESIAN_POINT('',(-0.00095,0.00095,0.004));
#1267=CARTESIAN_POINT('',(-0.00095,-7.92301587585561E-20,0.004));
#1268=CARTESIAN_POINT('',(-0.00095,0.00225,0.004));
#1269=CARTESIAN_POINT('',(0.,0.00225,0.004));
#1270=CARTESIAN_POINT('',(0.00095,0.00225,0.004));
#1271=CARTESIAN_POINT('',(0.00095,0.00075,0.004));
#1272=CARTESIAN_POINT('',(0.,1.65327317884892E-19,0.004));
#1273=CARTESIAN_POINT('',(0.0025,1.65327317884892E-19,0.004));
#1274=CARTESIAN_POINT('',(0.,0.,0.));
#1275=CARTESIAN_POINT('',(-0.00225,0.,0.004));
#1276=CARTESIAN_POINT('',(-0.00193333333333333,0.000633333333333333,0.00368333333333333));
#1277=CARTESIAN_POINT('',(-0.00183333333333333,-0.000533333333333333,0.00358333333333334));
#1278=CARTESIAN_POINT('',(-0.0014,-0.00075,0.0038));
#1279=CARTESIAN_POINT('',(-0.000966666666666667,-0.000966666666666667,0.00401666666666666));
#1280=CARTESIAN_POINT('',(0.,0.00095,0.004));
#1281=CARTESIAN_POINT('',(-0.000966666666666667,0.000966666666666667,0.00401666666666666));
#1282=CARTESIAN_POINT('',(-0.00075,-0.0014,0.0038));
#1283=CARTESIAN_POINT('',(-0.000633333333333333,-0.00193333333333333,0.00368333333333333));
#1284=CARTESIAN_POINT('',(-0.00075,0.0014,0.0038));
#1285=CARTESIAN_POINT('',(-0.000533333333333334,0.00183333333333333,0.00358333333333334));
#1286=CARTESIAN_POINT('',(0.,-0.00225,0.004));
#1287=CARTESIAN_POINT('',(0.0002,-0.0015,0.00325));
#1288=CARTESIAN_POINT('',(0.,0.00205,0.0038));
#1289=CARTESIAN_POINT('',(0.0005,0.0018,0.00355));
#1290=CARTESIAN_POINT('',(0.00095,7.92301587585561E-20,0.004));
#1291=CARTESIAN_POINT('',(0.000633333333333334,-0.000633333333333333,0.00368333333333333));
#1292=CARTESIAN_POINT('',(0.00095,7.92301587585561E-20,0.004));
#1293=CARTESIAN_POINT('',(0.000633333333333333,0.000633333333333334,0.00368333333333333));
#1294=CARTESIAN_POINT('',(0.0014,-0.00075,0.0038));
#1295=CARTESIAN_POINT('',(0.0018,-0.0005,0.00355));
#1296=CARTESIAN_POINT('',(0.,0.00095,0.004));
#1297=CARTESIAN_POINT('',(0.0018,0.0005,0.00355));
#1298=CARTESIAN_POINT('',(0.00205,5.42101086242752E-20,0.0038));
#1299=CARTESIAN_POINT('',(0.,1.65327317884892E-19,0.004));
#1300=CARTESIAN_POINT('',(0.,1.65327317884892E-19,0.0004));
#1301=CARTESIAN_POINT('',(0.008,1.7347234759768E-18,0.));
#1302=CARTESIAN_POINT('',(0.00727610297435588,-0.00587160920800231,-0.00193039206838432));
#1303=CARTESIAN_POINT('',(0.00792977531168232,-0.00652528154532875,-0.000187265835513806));
#1304=CARTESIAN_POINT('',(0.00658089478654214,-0.00517640102018857,-0.00378428056922097));
#1305=CARTESIAN_POINT('',(0.00658089478654214,0.00509550623364643,-0.00378428056922097));
#1306=CARTESIAN_POINT('',(0.00658089478654214,0.00517640102018857,-0.00378428056922097));
#1307=CARTESIAN_POINT('',(0.00727610297435588,0.00587160920800231,-0.00193039206838432));
#1308=CARTESIAN_POINT('',(0.00792977531168232,0.00652528154532876,-0.000187265835513809));
#1309=CARTESIAN_POINT('',(0.00792977531168232,1.71949592404958E-18,-0.000187265835513809));
#1310=CARTESIAN_POINT('',(1.40946282423116E-18,-0.0065,-0.004));
#1311=CARTESIAN_POINT('',(-0.00453624335434378,-0.00594073712069734,-0.00549136767814042));
#1312=CARTESIAN_POINT('',(-0.00652528154532875,-0.00792977531168232,-0.000187265835513807));
#1313=CARTESIAN_POINT('',(-0.00517640102018857,-0.00658089478654214,-0.00378428056922097));
#1314=CARTESIAN_POINT('',(0.00509550623364643,-0.00658089478654214,-0.00378428056922097));
#1315=CARTESIAN_POINT('',(0.00517640102018857,-0.00658089478654214,-0.00378428056922097));
#1316=CARTESIAN_POINT('',(0.00453624335434378,-0.00594073712069734,-0.00549136767814042));
#1317=CARTESIAN_POINT('',(0.00652528154532876,-0.00792977531168232,-0.000187265835513808));
#1318=CARTESIAN_POINT('',(1.71949592404958E-18,-0.00792977531168232,-0.000187265835513808));
#1319=CARTESIAN_POINT('',(-1.7347234759768E-18,0.008,0.));
#1320=CARTESIAN_POINT('',(0.00587160920800231,0.00727610297435588,-0.00193039206838432));
#1321=CARTESIAN_POINT('',(0.00652528154532875,0.00792977531168232,-0.000187265835513808));
#1322=CARTESIAN_POINT('',(0.00517640102018857,0.00658089478654214,-0.00378428056922097));
#1323=CARTESIAN_POINT('',(-0.00509550623364643,0.00658089478654214,-0.00378428056922097));
#1324=CARTESIAN_POINT('',(-0.00517640102018857,0.00658089478654214,-0.00378428056922097));
#1325=CARTESIAN_POINT('',(-0.00587160920800231,0.00727610297435588,-0.00193039206838432));
#1326=CARTESIAN_POINT('',(-0.00652528154532876,0.00792977531168232,-0.000187265835513808));
#1327=CARTESIAN_POINT('',(-1.71949592404958E-18,0.00792977531168232,-0.000187265835513809));
#1328=CARTESIAN_POINT('',(-0.0065,-1.40946282423116E-18,-0.004));
#1329=CARTESIAN_POINT('',(-0.00594073712069734,0.00453624335434378,-0.00549136767814042));
#1330=CARTESIAN_POINT('',(-0.00792977531168232,0.00652528154532875,-0.000187265835513808));
#1331=CARTESIAN_POINT('',(-0.00658089478654214,0.00517640102018857,-0.00378428056922097));
#1332=CARTESIAN_POINT('',(-0.00658089478654214,-0.00509550623364643,-0.00378428056922097));
#1333=CARTESIAN_POINT('',(-0.00658089478654214,-0.00517640102018857,-0.00378428056922097));
#1334=CARTESIAN_POINT('',(-0.00594073712069734,-0.00453624335434378,-0.00549136767814042));
#1335=CARTESIAN_POINT('',(-0.00792977531168232,-0.00652528154532876,-0.0001872658355138));
#1336=CARTESIAN_POINT('',(-0.00792977531168232,-1.71949592404958E-18,-0.000187265835513808));
#1337=CARTESIAN_POINT('',(0.00587160920800231,0.00587160920800231,-0.00140370690600173));
#1338=CARTESIAN_POINT('',(0.00658089478654214,0.00517640102018856,-0.00378428056922097));
#1339=CARTESIAN_POINT('',(0.00657235387184269,0.00555131325598044,-0.00380705634175282));
#1340=CARTESIAN_POINT('',(0.00626568983921669,0.00626568983921667,-0.00384533507535384));
#1341=CARTESIAN_POINT('',(0.00555131325598045,0.00657235387184269,-0.00380705634175282));
#1342=CARTESIAN_POINT('',(0.00517640102018857,0.00658089478654213,-0.00378428056922097));
#1343=CARTESIAN_POINT('',(0.00652528154532875,0.00792977531168232,-0.000187265835513805));
#1344=CARTESIAN_POINT('',(0.00690576339201604,0.00792680400787829,-0.000195189312324556));
#1345=CARTESIAN_POINT('',(0.00762570958614769,0.00762570958614768,-0.000218615750204477));
#1346=CARTESIAN_POINT('',(0.00792680400787829,0.00690576339201604,-0.000195189312324555));
#1347=CARTESIAN_POINT('',(0.00792977531168232,0.00652528154532875,-0.000187265835513805));
#1348=CARTESIAN_POINT('',(0.00453624335434378,-0.00453624335434378,-0.00496468251575783));
#1349=CARTESIAN_POINT('',(0.00517640102018858,-0.00658089478654214,-0.00378428056922097));
#1350=CARTESIAN_POINT('',(0.00555131325598045,-0.0065723538718427,-0.00380705634175281));
#1351=CARTESIAN_POINT('',(0.00626568983921668,-0.00626568983921669,-0.00384533507535383));
#1352=CARTESIAN_POINT('',(0.0065723538718427,-0.00555131325598045,-0.00380705634175281));
#1353=CARTESIAN_POINT('',(0.00658089478654214,-0.00517640102018858,-0.00378428056922096));
#1354=CARTESIAN_POINT('',(0.00792977531168233,-0.00652528154532876,-0.000187265835513801));
#1355=CARTESIAN_POINT('',(0.00792680400787829,-0.00690576339201605,-0.000195189312324552));
#1356=CARTESIAN_POINT('',(0.00762570958614769,-0.0076257095861477,-0.000218615750204471));
#1357=CARTESIAN_POINT('',(0.00690576339201604,-0.00792680400787829,-0.00019518931232455));
#1358=CARTESIAN_POINT('',(0.00652528154532876,-0.00792977531168233,-0.000187265835513802));
#1359=CARTESIAN_POINT('',(-0.00453624335434378,-0.00453624335434378,-0.00496468251575783));
#1360=CARTESIAN_POINT('',(-0.00658089478654214,-0.00517640102018858,-0.00378428056922097));
#1361=CARTESIAN_POINT('',(-0.0065723538718427,-0.00555131325598045,-0.00380705634175281));
#1362=CARTESIAN_POINT('',(-0.00626568983921669,-0.00626568983921669,-0.00384533507535383));
#1363=CARTESIAN_POINT('',(-0.00555131325598045,-0.0065723538718427,-0.00380705634175281));
#1364=CARTESIAN_POINT('',(-0.00517640102018857,-0.00658089478654214,-0.00378428056922096));
#1365=CARTESIAN_POINT('',(-0.00652528154532875,-0.00792977531168233,-0.000187265835513798));
#1366=CARTESIAN_POINT('',(-0.00690576339201604,-0.0079268040078783,-0.00019518931232455));
#1367=CARTESIAN_POINT('',(-0.00762570958614769,-0.00762570958614769,-0.000218615750204471));
#1368=CARTESIAN_POINT('',(-0.00792680400787829,-0.00690576339201605,-0.000195189312324551));
#1369=CARTESIAN_POINT('',(-0.00792977531168233,-0.00652528154532876,-0.000187265835513802));
#1370=CARTESIAN_POINT('',(-0.00453624335434378,0.00453624335434378,-0.00496468251575783));
#1371=CARTESIAN_POINT('',(-0.00517640102018857,0.00658089478654214,-0.00378428056922097));
#1372=CARTESIAN_POINT('',(-0.00555131325598045,0.0065723538718427,-0.00380705634175281));
#1373=CARTESIAN_POINT('',(-0.00626568983921668,0.00626568983921669,-0.00384533507535383));
#1374=CARTESIAN_POINT('',(-0.0065723538718427,0.00555131325598045,-0.00380705634175281));
#1375=CARTESIAN_POINT('',(-0.00658089478654214,0.00517640102018857,-0.00378428056922096));
#1376=CARTESIAN_POINT('',(-0.00792977531168233,0.00652528154532876,-0.000187265835513799));
#1377=CARTESIAN_POINT('',(-0.00792680400787829,0.00690576339201605,-0.000195189312324551));
#1378=CARTESIAN_POINT('',(-0.00762570958614769,0.0076257095861477,-0.000218615750204471));
#1379=CARTESIAN_POINT('',(-0.00690576339201604,0.0079268040078783,-0.00019518931232455));
#1380=CARTESIAN_POINT('',(-0.00652528154532876,0.00792977531168233,-0.000187265835513801));
#1381=CARTESIAN_POINT('',(0.00626961154693578,1.35950529196559E-18,-0.004));
#1382=CARTESIAN_POINT('',(0.00626961154693578,0.00517640102018857,-0.004));
#1383=CARTESIAN_POINT('',(0.00637337262680457,0.00517640102018857,-0.00392809352307366));
#1384=CARTESIAN_POINT('',(0.00647713370667335,0.00517640102018857,-0.00385618704614731));
#1385=CARTESIAN_POINT('',(0.00658089478654214,0.00517640102018857,-0.00378428056922097));
#1386=CARTESIAN_POINT('',(0.00626961154693577,0.00517640102018857,-0.004));
#1387=CARTESIAN_POINT('',(0.00658089478654214,-0.00517640102018857,-0.00378428056922097));
#1388=CARTESIAN_POINT('',(0.00647713370667336,-0.00517640102018857,-0.00385618704614731));
#1389=CARTESIAN_POINT('',(0.00637337262680457,-0.00517640102018857,-0.00392809352307366));
#1390=CARTESIAN_POINT('',(0.00626961154693578,-0.00517640102018857,-0.004));
#1391=CARTESIAN_POINT('',(0.00626961154693578,-0.00517640102018857,-0.004));
#1392=CARTESIAN_POINT('',(0.00626961154693578,-0.00509550623364643,-0.004));
#1393=CARTESIAN_POINT('',(0.00517640102018857,-0.00658089478654214,-0.00378428056922097));
#1394=CARTESIAN_POINT('',(0.00593750318920843,-0.00657814923938448,-0.00383598968025885));
#1395=CARTESIAN_POINT('',(0.00657814923938448,-0.00593750318920843,-0.00383598968025885));
#1396=CARTESIAN_POINT('',(0.00658089478654214,-0.00517640102018857,-0.00378428056922097));
#1397=CARTESIAN_POINT('',(0.00517640102018857,-0.00626961154693577,-0.004));
#1398=CARTESIAN_POINT('',(0.00578391048568882,-0.00628256774053005,-0.004));
#1399=CARTESIAN_POINT('',(0.00628256774053005,-0.00578391048568882,-0.004));
#1400=CARTESIAN_POINT('',(0.00626961154693578,-0.00517640102018857,-0.004));
#1401=CARTESIAN_POINT('',(0.00517640102018857,-0.00626961154693578,-0.004));
#1402=CARTESIAN_POINT('',(0.00517640102018857,-0.00637337262680457,-0.00392809352307366));
#1403=CARTESIAN_POINT('',(0.00517640102018857,-0.00647713370667335,-0.00385618704614731));
#1404=CARTESIAN_POINT('',(0.00517640102018857,-0.00658089478654214,-0.00378428056922097));
#1405=CARTESIAN_POINT('',(0.00517640102018857,-0.00626961154693577,-0.004));
#1406=CARTESIAN_POINT('',(0.00626961154693578,-0.00517640102018857,-0.004));
#1407=CARTESIAN_POINT('',(0.00627284848705667,-0.00532817953047351,-0.004));
#1408=CARTESIAN_POINT('',(0.006226178001358,-0.00560740923432969,-0.004));
#1409=CARTESIAN_POINT('',(0.00597501004554499,-0.00597513092613273,-0.004));
#1410=CARTESIAN_POINT('',(0.00560786725079778,-0.00622615249547513,-0.004));
#1411=CARTESIAN_POINT('',(0.00532837715408025,-0.00627285270172303,-0.004));
#1412=CARTESIAN_POINT('',(0.00517640102018857,-0.00626961154693577,-0.004));
#1413=CARTESIAN_POINT('',(0.00658089478654213,0.00517640102018857,-0.00378428056922097));
#1414=CARTESIAN_POINT('',(0.00657814923938448,0.00593750318920843,-0.00383598968025885));
#1415=CARTESIAN_POINT('',(0.00593750318920842,0.00657814923938448,-0.00383598968025885));
#1416=CARTESIAN_POINT('',(0.00517640102018857,0.00658089478654214,-0.00378428056922097));
#1417=CARTESIAN_POINT('',(0.00626961154693577,0.00517640102018857,-0.004));
#1418=CARTESIAN_POINT('',(0.00628256774053004,0.00578391048568883,-0.004));
#1419=CARTESIAN_POINT('',(0.00578391048568882,0.00628256774053005,-0.004));
#1420=CARTESIAN_POINT('',(0.00517640102018857,0.00626961154693578,-0.004));
#1421=CARTESIAN_POINT('',(0.00517640102018857,0.00626961154693577,-0.004));
#1422=CARTESIAN_POINT('',(0.00532817953047363,0.00627284848705667,-0.004));
#1423=CARTESIAN_POINT('',(0.00560740923432998,0.00622617800135798,-0.004));
#1424=CARTESIAN_POINT('',(0.00597513092613265,0.00597501004554507,-0.004));
#1425=CARTESIAN_POINT('',(0.00622615249547514,0.00560786725079748,-0.004));
#1426=CARTESIAN_POINT('',(0.00627285270172302,0.00532837715408012,-0.004));
#1427=CARTESIAN_POINT('',(0.00626961154693577,0.00517640102018858,-0.004));
#1428=CARTESIAN_POINT('',(0.00517640102018857,0.00626961154693578,-0.004));
#1429=CARTESIAN_POINT('',(0.00517640102018857,0.00658089478654214,-0.00378428056922097));
#1430=CARTESIAN_POINT('',(0.00517640102018857,0.00647713370667336,-0.00385618704614731));
#1431=CARTESIAN_POINT('',(0.00517640102018857,0.00637337262680457,-0.00392809352307366));
#1432=CARTESIAN_POINT('',(0.00517640102018857,0.00626961154693578,-0.004));
#1433=CARTESIAN_POINT('',(1.35950529196559E-18,-0.00626961154693578,-0.004));
#1434=CARTESIAN_POINT('',(-0.00517640102018857,-0.00658089478654214,-0.00378428056922097));
#1435=CARTESIAN_POINT('',(-0.00517640102018857,-0.00647713370667336,-0.00385618704614731));
#1436=CARTESIAN_POINT('',(-0.00517640102018857,-0.00637337262680457,-0.00392809352307366));
#1437=CARTESIAN_POINT('',(-0.00517640102018857,-0.00626961154693578,-0.004));
#1438=CARTESIAN_POINT('',(-0.00517640102018857,-0.00626961154693578,-0.004));
#1439=CARTESIAN_POINT('',(-0.00509550623364643,-0.00626961154693578,-0.004));
#1440=CARTESIAN_POINT('',(-1.35950529196559E-18,0.00626961154693578,-0.004));
#1441=CARTESIAN_POINT('',(0.00509550623364643,0.00626961154693578,-0.004));
#1442=CARTESIAN_POINT('',(-0.00517640102018857,0.00626961154693577,-0.004));
#1443=CARTESIAN_POINT('',(-0.00517640102018857,0.00626961154693578,-0.004));
#1444=CARTESIAN_POINT('',(-0.00517640102018857,0.00637337262680457,-0.00392809352307366));
#1445=CARTESIAN_POINT('',(-0.00517640102018857,0.00647713370667335,-0.00385618704614731));
#1446=CARTESIAN_POINT('',(-0.00517640102018857,0.00658089478654214,-0.00378428056922097));
#1447=CARTESIAN_POINT('',(-0.00658089478654214,-0.00517640102018857,-0.00378428056922097));
#1448=CARTESIAN_POINT('',(-0.00657814923938448,-0.00593750318920843,-0.00383598968025885));
#1449=CARTESIAN_POINT('',(-0.00593750318920843,-0.00657814923938448,-0.00383598968025885));
#1450=CARTESIAN_POINT('',(-0.00517640102018857,-0.00658089478654214,-0.00378428056922097));
#1451=CARTESIAN_POINT('',(-0.00626961154693577,-0.00517640102018857,-0.004));
#1452=CARTESIAN_POINT('',(-0.00628256774053005,-0.00578391048568882,-0.004));
#1453=CARTESIAN_POINT('',(-0.00578391048568882,-0.00628256774053005,-0.004));
#1454=CARTESIAN_POINT('',(-0.00517640102018857,-0.00626961154693578,-0.004));
#1455=CARTESIAN_POINT('',(-0.00626961154693578,-0.00517640102018857,-0.004));
#1456=CARTESIAN_POINT('',(-0.00637337262680457,-0.00517640102018857,-0.00392809352307366));
#1457=CARTESIAN_POINT('',(-0.00647713370667335,-0.00517640102018857,-0.00385618704614731));
#1458=CARTESIAN_POINT('',(-0.00658089478654214,-0.00517640102018857,-0.00378428056922097));
#1459=CARTESIAN_POINT('',(-0.00626961154693577,-0.00517640102018857,-0.004));
#1460=CARTESIAN_POINT('',(-0.00517640102018857,-0.00626961154693577,-0.004));
#1461=CARTESIAN_POINT('',(-0.00532817953047363,-0.00627284848705667,-0.004));
#1462=CARTESIAN_POINT('',(-0.00560740923432998,-0.00622617800135798,-0.004));
#1463=CARTESIAN_POINT('',(-0.00597513092613265,-0.00597501004554506,-0.004));
#1464=CARTESIAN_POINT('',(-0.00622615249547514,-0.00560786725079748,-0.004));
#1465=CARTESIAN_POINT('',(-0.00627285270172302,-0.00532837715408011,-0.004));
#1466=CARTESIAN_POINT('',(-0.00626961154693577,-0.00517640102018856,-0.004));
#1467=CARTESIAN_POINT('',(-0.00517640102018857,0.00658089478654214,-0.00378428056922097));
#1468=CARTESIAN_POINT('',(-0.00593750318920843,0.00657814923938448,-0.00383598968025885));
#1469=CARTESIAN_POINT('',(-0.00657814923938448,0.00593750318920843,-0.00383598968025885));
#1470=CARTESIAN_POINT('',(-0.00658089478654214,0.00517640102018857,-0.00378428056922097));
#1471=CARTESIAN_POINT('',(-0.00517640102018857,0.00626961154693577,-0.004));
#1472=CARTESIAN_POINT('',(-0.00578391048568883,0.00628256774053005,-0.004));
#1473=CARTESIAN_POINT('',(-0.00628256774053005,0.00578391048568882,-0.004));
#1474=CARTESIAN_POINT('',(-0.00626961154693578,0.00517640102018857,-0.004));
#1475=CARTESIAN_POINT('',(-0.00626961154693578,0.00517640102018856,-0.004));
#1476=CARTESIAN_POINT('',(-0.00627284848705667,0.0053281795304735,-0.004));
#1477=CARTESIAN_POINT('',(-0.00622617800135799,0.00560740923432969,-0.004));
#1478=CARTESIAN_POINT('',(-0.00597501004554499,0.00597513092613272,-0.004));
#1479=CARTESIAN_POINT('',(-0.00560786725079777,0.00622615249547513,-0.004));
#1480=CARTESIAN_POINT('',(-0.00532837715408024,0.00627285270172303,-0.004));
#1481=CARTESIAN_POINT('',(-0.00517640102018857,0.00626961154693577,-0.004));
#1482=CARTESIAN_POINT('',(-0.00626961154693578,0.00517640102018857,-0.004));
#1483=CARTESIAN_POINT('',(-0.00658089478654214,0.00517640102018857,-0.00378428056922097));
#1484=CARTESIAN_POINT('',(-0.00647713370667336,0.00517640102018857,-0.00385618704614731));
#1485=CARTESIAN_POINT('',(-0.00637337262680457,0.00517640102018857,-0.00392809352307366));
#1486=CARTESIAN_POINT('',(-0.00626961154693578,0.00517640102018857,-0.004));
#1487=CARTESIAN_POINT('',(-0.00626961154693578,-1.35950529196559E-18,-0.004));
#1488=CARTESIAN_POINT('',(-0.00626961154693578,0.00509550623364643,-0.004));
#1489=CARTESIAN_POINT('',(0.0078,1.69135538907738E-18,0.));
#1490=CARTESIAN_POINT('',(0.00792977531168232,0.00652528154532875,-0.000187265835513808));
#1491=CARTESIAN_POINT('',(0.00788651687445488,0.00652528154532875,-0.000124843890342538));
#1492=CARTESIAN_POINT('',(0.00784325843722744,0.00652528154532875,-6.24219451712683E-5));
#1493=CARTESIAN_POINT('',(0.0078,0.00652528154532875,1.38622430362196E-18));
#1494=CARTESIAN_POINT('',(0.0078,-0.00652528154532876,1.10511741613464E-18));
#1495=CARTESIAN_POINT('',(0.00784325843722744,-0.00652528154532876,-6.24219451712683E-5));
#1496=CARTESIAN_POINT('',(0.00788651687445488,-0.00652528154532876,-0.000124843890342538));
#1497=CARTESIAN_POINT('',(0.00792977531168232,-0.00652528154532876,-0.000187265835513807));
#1498=CARTESIAN_POINT('',(0.00652528154532876,-0.0078,5.42101086242752E-20));
#1499=CARTESIAN_POINT('',(0.00723365702115301,-0.00781510733630241,5.42101086242752E-20));
#1500=CARTESIAN_POINT('',(0.00781510733630242,-0.00723365702115301,5.42101086242752E-20));
#1501=CARTESIAN_POINT('',(0.0078,-0.00652528154532875,5.42101086242752E-20));
#1502=CARTESIAN_POINT('',(0.00652528154532876,-0.00792977531168232,-0.000187265835513808));
#1503=CARTESIAN_POINT('',(0.00729769047504726,-0.00793833652522331,-0.000208823584688615));
#1504=CARTESIAN_POINT('',(0.00793833652522332,-0.00729769047504726,-0.000208823584688619));
#1505=CARTESIAN_POINT('',(0.00792977531168232,-0.00652528154532875,-0.000187265835513807));
#1506=CARTESIAN_POINT('',(0.00652528154532876,-0.00792977531168232,-0.000187265835513808));
#1507=CARTESIAN_POINT('',(0.00652528154532876,-0.00788651687445488,-0.000124843890342539));
#1508=CARTESIAN_POINT('',(0.00652528154532876,-0.00784325843722744,-6.24219451712694E-5));
#1509=CARTESIAN_POINT('',(0.00652528154532876,-0.0078,2.16840434497101E-19));
#1510=CARTESIAN_POINT('',(0.0078,0.00652528154532876,5.42101086242752E-20));
#1511=CARTESIAN_POINT('',(0.00781510733630242,0.00723365702115301,5.42101086242752E-20));
#1512=CARTESIAN_POINT('',(0.00723365702115301,0.00781510733630242,5.42101086242752E-20));
#1513=CARTESIAN_POINT('',(0.00652528154532875,0.0078,5.42101086242752E-20));
#1514=CARTESIAN_POINT('',(0.00792977531168232,0.00652528154532876,-0.000187265835513808));
#1515=CARTESIAN_POINT('',(0.00793833652522332,0.00729769047504726,-0.000208823584688619));
#1516=CARTESIAN_POINT('',(0.00729769047504726,0.00793833652522331,-0.000208823584688619));
#1517=CARTESIAN_POINT('',(0.00652528154532875,0.00792977531168232,-0.000187265835513809));
#1518=CARTESIAN_POINT('',(0.00652528154532875,0.0078,2.74670176215769E-19));
#1519=CARTESIAN_POINT('',(0.00652528154532875,0.00784325843722744,-6.24219451712694E-5));
#1520=CARTESIAN_POINT('',(0.00652528154532875,0.00788651687445488,-0.000124843890342539));
#1521=CARTESIAN_POINT('',(0.00652528154532875,0.00792977531168232,-0.000187265835513809));
#1522=CARTESIAN_POINT('',(1.71949592404958E-18,-0.00792977531168232,-0.000187265835513809));
#1523=CARTESIAN_POINT('',(-0.00652528154532876,-0.0078,6.23416249179165E-19));
#1524=CARTESIAN_POINT('',(-0.00652528154532876,-0.00784325843722744,-6.24219451712686E-5));
#1525=CARTESIAN_POINT('',(-0.00652528154532876,-0.00788651687445488,-0.000124843890342538));
#1526=CARTESIAN_POINT('',(-0.00652528154532876,-0.00792977531168232,-0.000187265835513807));
#1527=CARTESIAN_POINT('',(-1.69135538907738E-18,0.0078,0.));
#1528=CARTESIAN_POINT('',(-0.00652528154532875,0.00792977531168232,-0.000187265835513808));
#1529=CARTESIAN_POINT('',(-0.00652528154532875,0.00788651687445488,-0.000124843890342538));
#1530=CARTESIAN_POINT('',(-0.00652528154532875,0.00784325843722744,-6.24219451712686E-5));
#1531=CARTESIAN_POINT('',(-0.00652528154532875,0.0078,9.80156252229192E-19));
#1532=CARTESIAN_POINT('',(-0.0078,-0.00652528154532876,5.42101086242752E-20));
#1533=CARTESIAN_POINT('',(-0.00781510733630241,-0.00723365702115301,5.42101086242752E-20));
#1534=CARTESIAN_POINT('',(-0.00723365702115301,-0.00781510733630242,5.42101086242752E-20));
#1535=CARTESIAN_POINT('',(-0.00652528154532875,-0.0078,5.42101086242752E-20));
#1536=CARTESIAN_POINT('',(-0.00792977531168232,-0.00652528154532876,-0.000187265835513808));
#1537=CARTESIAN_POINT('',(-0.00793833652522331,-0.00729769047504726,-0.000208823584688615));
#1538=CARTESIAN_POINT('',(-0.00729769047504726,-0.00793833652522332,-0.000208823584688619));
#1539=CARTESIAN_POINT('',(-0.00652528154532875,-0.00792977531168232,-0.000187265835513807));
#1540=CARTESIAN_POINT('',(-0.00792977531168232,-0.00652528154532875,-0.000187265835513809));
#1541=CARTESIAN_POINT('',(-0.00788651687445488,-0.00652528154532875,-0.000124843890342539));
#1542=CARTESIAN_POINT('',(-0.00784325843722744,-0.00652528154532875,-6.24219451712694E-5));
#1543=CARTESIAN_POINT('',(-0.0078,-0.00652528154532875,2.16840434497101E-19));
#1544=CARTESIAN_POINT('',(-0.00652528154532876,0.0078,5.42101086242752E-20));
#1545=CARTESIAN_POINT('',(-0.00723365702115301,0.00781510733630241,5.42101086242752E-20));
#1546=CARTESIAN_POINT('',(-0.00781510733630242,0.00723365702115301,5.42101086242752E-20));
#1547=CARTESIAN_POINT('',(-0.0078,0.00652528154532875,5.42101086242752E-20));
#1548=CARTESIAN_POINT('',(-0.00652528154532876,0.00792977531168232,-0.000187265835513808));
#1549=CARTESIAN_POINT('',(-0.00729769047504726,0.00793833652522331,-0.000208823584688615));
#1550=CARTESIAN_POINT('',(-0.00793833652522332,0.00729769047504726,-0.000208823584688619));
#1551=CARTESIAN_POINT('',(-0.00792977531168232,0.00652528154532875,-0.000187265835513807));
#1552=CARTESIAN_POINT('',(-0.0078,0.00652528154532875,2.16840434497101E-19));
#1553=CARTESIAN_POINT('',(-0.00784325843722744,0.00652528154532875,-6.24219451712694E-5));
#1554=CARTESIAN_POINT('',(-0.00788651687445488,0.00652528154532875,-0.000124843890342539));
#1555=CARTESIAN_POINT('',(-0.00792977531168232,0.00652528154532875,-0.000187265835513809));
#1556=CARTESIAN_POINT('',(-0.00792977531168232,-1.71949592404958E-18,-0.000187265835513809));
#1557=CARTESIAN_POINT('',(0.,-0.000562181977054585,-0.004));
#1558=MECHANICAL_DESIGN_GEOMETRIC_PRESENTATION_REPRESENTATION('',(#879),
#1559);
#1559=(
GEOMETRIC_REPRESENTATION_CONTEXT(3)
GLOBAL_UNCERTAINTY_ASSIGNED_CONTEXT((#1560))
GLOBAL_UNIT_ASSIGNED_CONTEXT((#1563,#1562,#1561))
REPRESENTATION_CONTEXT('Part 1','TOP_LEVEL_ASSEMBLY_PART')
);
#1560=UNCERTAINTY_MEASURE_WITH_UNIT(LENGTH_MEASURE(2.E-5),#1563,
'DISTANCE_ACCURACY_VALUE','Maximum Tolerance applied to model');
#1561=(
NAMED_UNIT(*)
SI_UNIT($,.STERADIAN.)
SOLID_ANGLE_UNIT()
);
#1562=(
NAMED_UNIT(*)
PLANE_ANGLE_UNIT()
SI_UNIT($,.RADIAN.)
);
#1563=(
LENGTH_UNIT()
NAMED_UNIT(*)
SI_UNIT($,.METRE.)
);
#1564=PRODUCT_DEFINITION_SHAPE('','',#1565);
#1565=PRODUCT_DEFINITION('','',#1567,#1566);
#1566=PRODUCT_DEFINITION_CONTEXT('',#1573,'design');
#1567=PRODUCT_DEFINITION_FORMATION_WITH_SPECIFIED_SOURCE('','',#1569,
 .NOT_KNOWN.);
#1568=PRODUCT_RELATED_PRODUCT_CATEGORY('','',(#1569));
#1569=PRODUCT('Part 1','Part 1','Part 1',(#1571));
#1570=PRODUCT_CATEGORY('','');
#1571=PRODUCT_CONTEXT('',#1573,'mechanical');
#1572=APPLICATION_PROTOCOL_DEFINITION('international standard',
'ap242_managed_model_based_3d_engineering',2020,#1573);
#1573=APPLICATION_CONTEXT('managed model based 3d engineering');
ENDSEC;
END-ISO-10303-21;
