ISO-10303-21;
HEADER;
/* Generated by software containing ST-Developer
 * from STEP Tools, Inc. (www.steptools.com) 
 */
/* OPTION: using custom renumber hook */

FILE_DESCRIPTION(
/* description */ ('STEP AP242 Edition 2',
'CAx-IF Rec.Pracs.---Representation and Presentation of Product Manufa
cturing Information (PMI)---4.0---2014-10-13',
'CAx-IF Rec.Pracs.---3D Tessellated Geometry---0.4---2014-09-14','2;1',
'CAx-IF Rec.Pracs.---User Defined Attributes---1.5---2016-08-15'),
/* implementation_level */ '2;1');

FILE_NAME(
/* name */ 'Part Studio 1 - Keyboard_Part1',
/* time_stamp */ '2026-09-22T19:32:43Z',
/* author */ (''),
/* organization */ (''),
/* preprocessor_version */ 'ST-DEVELOPER v20',
/* originating_system */ 'ONSHAPE BY PTC INC, 1.221',
/* authorisation */ '  ');

FILE_SCHEMA (('AP242_MANAGED_MODEL_BASED_3D_ENGINEERING_MIM_LF { 1 0 10303 442 3 1 4 }'));
ENDSEC;

DATA;
#10=SHAPE_REPRESENTATION_RELATIONSHIP('','',#1215,#11);
#11=ADVANCED_BREP_SHAPE_REPRESENTATION('',(#1213),#1969);
#12=CONICAL_SURFACE('',#1274,0.003,0.785398163397448);
#13=CONICAL_SURFACE('',#1281,0.0034,0.785398163397448);
#14=CONICAL_SURFACE('',#1292,0.0034,0.785398163397448);
#15=CONICAL_SURFACE('',#1299,0.003,0.785398163397448);
#16=CIRCLE('',#1219,0.00165);
#17=CIRCLE('',#1220,0.00165);
#18=CIRCLE('',#1222,0.00165);
#19=CIRCLE('',#1223,0.00165);
#20=CIRCLE('',#1225,0.00165);
#21=CIRCLE('',#1226,0.00165);
#22=CIRCLE('',#1228,0.00165);
#23=CIRCLE('',#1229,0.00165);
#24=CIRCLE('',#1235,0.003);
#25=CIRCLE('',#1236,0.003);
#26=CIRCLE('',#1243,0.003);
#27=CIRCLE('',#1245,0.003);
#28=CIRCLE('',#1248,0.003);
#29=CIRCLE('',#1249,0.003);
#30=CIRCLE('',#1253,0.003);
#31=CIRCLE('',#1254,0.003);
#32=CIRCLE('',#1259,0.0034);
#33=CIRCLE('',#1260,0.0034);
#34=CIRCLE('',#1261,0.0034);
#35=CIRCLE('',#1262,0.0034);
#36=CYLINDRICAL_SURFACE('',#1218,0.00165);
#37=CYLINDRICAL_SURFACE('',#1221,0.00165);
#38=CYLINDRICAL_SURFACE('',#1224,0.00165);
#39=CYLINDRICAL_SURFACE('',#1227,0.00165);
#40=CYLINDRICAL_SURFACE('',#1234,0.003);
#41=CYLINDRICAL_SURFACE('',#1244,0.003);
#42=CYLINDRICAL_SURFACE('',#1247,0.003);
#43=CYLINDRICAL_SURFACE('',#1252,0.003);
#44=ORIENTED_EDGE('',*,*,#364,.T.);
#45=ORIENTED_EDGE('',*,*,#365,.T.);
#46=ORIENTED_EDGE('',*,*,#366,.T.);
#47=ORIENTED_EDGE('',*,*,#367,.T.);
#48=ORIENTED_EDGE('',*,*,#368,.T.);
#49=ORIENTED_EDGE('',*,*,#369,.T.);
#50=ORIENTED_EDGE('',*,*,#370,.T.);
#51=ORIENTED_EDGE('',*,*,#371,.T.);
#52=ORIENTED_EDGE('',*,*,#372,.T.);
#53=ORIENTED_EDGE('',*,*,#373,.T.);
#54=ORIENTED_EDGE('',*,*,#374,.T.);
#55=ORIENTED_EDGE('',*,*,#375,.T.);
#56=ORIENTED_EDGE('',*,*,#376,.F.);
#57=ORIENTED_EDGE('',*,*,#377,.T.);
#58=ORIENTED_EDGE('',*,*,#378,.T.);
#59=ORIENTED_EDGE('',*,*,#379,.F.);
#60=ORIENTED_EDGE('',*,*,#380,.F.);
#61=ORIENTED_EDGE('',*,*,#381,.T.);
#62=ORIENTED_EDGE('',*,*,#382,.T.);
#63=ORIENTED_EDGE('',*,*,#383,.F.);
#64=ORIENTED_EDGE('',*,*,#384,.T.);
#65=ORIENTED_EDGE('',*,*,#385,.T.);
#66=ORIENTED_EDGE('',*,*,#386,.F.);
#67=ORIENTED_EDGE('',*,*,#387,.T.);
#68=ORIENTED_EDGE('',*,*,#388,.F.);
#69=ORIENTED_EDGE('',*,*,#389,.T.);
#70=ORIENTED_EDGE('',*,*,#390,.T.);
#71=ORIENTED_EDGE('',*,*,#391,.T.);
#72=ORIENTED_EDGE('',*,*,#392,.T.);
#73=ORIENTED_EDGE('',*,*,#393,.T.);
#74=ORIENTED_EDGE('',*,*,#394,.T.);
#75=ORIENTED_EDGE('',*,*,#395,.T.);
#76=ORIENTED_EDGE('',*,*,#396,.T.);
#77=ORIENTED_EDGE('',*,*,#397,.T.);
#78=ORIENTED_EDGE('',*,*,#398,.T.);
#79=ORIENTED_EDGE('',*,*,#399,.T.);
#80=ORIENTED_EDGE('',*,*,#400,.T.);
#81=ORIENTED_EDGE('',*,*,#401,.T.);
#82=ORIENTED_EDGE('',*,*,#402,.T.);
#83=ORIENTED_EDGE('',*,*,#403,.T.);
#84=ORIENTED_EDGE('',*,*,#380,.T.);
#85=ORIENTED_EDGE('',*,*,#378,.F.);
#86=ORIENTED_EDGE('',*,*,#376,.T.);
#87=ORIENTED_EDGE('',*,*,#382,.F.);
#88=ORIENTED_EDGE('',*,*,#388,.T.);
#89=ORIENTED_EDGE('',*,*,#404,.T.);
#90=ORIENTED_EDGE('',*,*,#400,.F.);
#91=ORIENTED_EDGE('',*,*,#405,.T.);
#92=ORIENTED_EDGE('',*,*,#366,.F.);
#93=ORIENTED_EDGE('',*,*,#406,.T.);
#94=ORIENTED_EDGE('',*,*,#386,.T.);
#95=ORIENTED_EDGE('',*,*,#407,.T.);
#96=ORIENTED_EDGE('',*,*,#408,.T.);
#97=ORIENTED_EDGE('',*,*,#409,.T.);
#98=ORIENTED_EDGE('',*,*,#410,.F.);
#99=ORIENTED_EDGE('',*,*,#411,.T.);
#100=ORIENTED_EDGE('',*,*,#410,.T.);
#101=ORIENTED_EDGE('',*,*,#412,.T.);
#102=ORIENTED_EDGE('',*,*,#413,.T.);
#103=ORIENTED_EDGE('',*,*,#414,.T.);
#104=ORIENTED_EDGE('',*,*,#415,.T.);
#105=ORIENTED_EDGE('',*,*,#416,.T.);
#106=ORIENTED_EDGE('',*,*,#408,.F.);
#107=ORIENTED_EDGE('',*,*,#417,.T.);
#108=ORIENTED_EDGE('',*,*,#414,.F.);
#109=ORIENTED_EDGE('',*,*,#418,.T.);
#110=ORIENTED_EDGE('',*,*,#417,.F.);
#111=ORIENTED_EDGE('',*,*,#411,.F.);
#112=ORIENTED_EDGE('',*,*,#383,.T.);
#113=ORIENTED_EDGE('',*,*,#419,.T.);
#114=ORIENTED_EDGE('',*,*,#420,.T.);
#115=ORIENTED_EDGE('',*,*,#421,.F.);
#116=ORIENTED_EDGE('',*,*,#422,.F.);
#117=ORIENTED_EDGE('',*,*,#423,.T.);
#118=ORIENTED_EDGE('',*,*,#424,.T.);
#119=ORIENTED_EDGE('',*,*,#425,.T.);
#120=ORIENTED_EDGE('',*,*,#426,.F.);
#121=ORIENTED_EDGE('',*,*,#381,.F.);
#122=ORIENTED_EDGE('',*,*,#426,.T.);
#123=ORIENTED_EDGE('',*,*,#427,.T.);
#124=ORIENTED_EDGE('',*,*,#422,.T.);
#125=ORIENTED_EDGE('',*,*,#428,.T.);
#126=ORIENTED_EDGE('',*,*,#421,.T.);
#127=ORIENTED_EDGE('',*,*,#429,.T.);
#128=ORIENTED_EDGE('',*,*,#423,.F.);
#129=ORIENTED_EDGE('',*,*,#428,.F.);
#130=ORIENTED_EDGE('',*,*,#430,.T.);
#131=ORIENTED_EDGE('',*,*,#431,.T.);
#132=ORIENTED_EDGE('',*,*,#432,.F.);
#133=ORIENTED_EDGE('',*,*,#433,.T.);
#134=ORIENTED_EDGE('',*,*,#432,.T.);
#135=ORIENTED_EDGE('',*,*,#434,.T.);
#136=ORIENTED_EDGE('',*,*,#435,.F.);
#137=ORIENTED_EDGE('',*,*,#436,.T.);
#138=ORIENTED_EDGE('',*,*,#435,.T.);
#139=ORIENTED_EDGE('',*,*,#437,.T.);
#140=ORIENTED_EDGE('',*,*,#438,.T.);
#141=ORIENTED_EDGE('',*,*,#439,.T.);
#142=ORIENTED_EDGE('',*,*,#439,.F.);
#143=ORIENTED_EDGE('',*,*,#440,.T.);
#144=ORIENTED_EDGE('',*,*,#433,.F.);
#145=ORIENTED_EDGE('',*,*,#436,.F.);
#146=ORIENTED_EDGE('',*,*,#379,.T.);
#147=ORIENTED_EDGE('',*,*,#441,.T.);
#148=ORIENTED_EDGE('',*,*,#442,.T.);
#149=ORIENTED_EDGE('',*,*,#443,.F.);
#150=ORIENTED_EDGE('',*,*,#444,.F.);
#151=ORIENTED_EDGE('',*,*,#443,.T.);
#152=ORIENTED_EDGE('',*,*,#445,.T.);
#153=ORIENTED_EDGE('',*,*,#446,.T.);
#154=ORIENTED_EDGE('',*,*,#447,.F.);
#155=ORIENTED_EDGE('',*,*,#448,.T.);
#156=ORIENTED_EDGE('',*,*,#449,.T.);
#157=ORIENTED_EDGE('',*,*,#441,.F.);
#158=ORIENTED_EDGE('',*,*,#450,.F.);
#159=ORIENTED_EDGE('',*,*,#377,.F.);
#160=ORIENTED_EDGE('',*,*,#447,.T.);
#161=ORIENTED_EDGE('',*,*,#451,.T.);
#162=ORIENTED_EDGE('',*,*,#450,.T.);
#163=ORIENTED_EDGE('',*,*,#444,.T.);
#164=ORIENTED_EDGE('',*,*,#452,.T.);
#165=ORIENTED_EDGE('',*,*,#453,.T.);
#166=ORIENTED_EDGE('',*,*,#454,.T.);
#167=ORIENTED_EDGE('',*,*,#455,.T.);
#168=ORIENTED_EDGE('',*,*,#456,.T.);
#169=ORIENTED_EDGE('',*,*,#457,.T.);
#170=ORIENTED_EDGE('',*,*,#458,.T.);
#171=ORIENTED_EDGE('',*,*,#459,.T.);
#172=ORIENTED_EDGE('',*,*,#460,.T.);
#173=ORIENTED_EDGE('',*,*,#461,.T.);
#174=ORIENTED_EDGE('',*,*,#462,.T.);
#175=ORIENTED_EDGE('',*,*,#463,.T.);
#176=ORIENTED_EDGE('',*,*,#464,.T.);
#177=ORIENTED_EDGE('',*,*,#465,.T.);
#178=ORIENTED_EDGE('',*,*,#466,.T.);
#179=ORIENTED_EDGE('',*,*,#467,.T.);
#180=ORIENTED_EDGE('',*,*,#468,.T.);
#181=ORIENTED_EDGE('',*,*,#469,.T.);
#182=ORIENTED_EDGE('',*,*,#470,.T.);
#183=ORIENTED_EDGE('',*,*,#471,.T.);
#184=ORIENTED_EDGE('',*,*,#472,.F.);
#185=ORIENTED_EDGE('',*,*,#387,.F.);
#186=ORIENTED_EDGE('',*,*,#406,.F.);
#187=ORIENTED_EDGE('',*,*,#365,.F.);
#188=ORIENTED_EDGE('',*,*,#473,.F.);
#189=ORIENTED_EDGE('',*,*,#472,.T.);
#190=ORIENTED_EDGE('',*,*,#474,.F.);
#191=ORIENTED_EDGE('',*,*,#474,.T.);
#192=ORIENTED_EDGE('',*,*,#364,.F.);
#193=ORIENTED_EDGE('',*,*,#475,.F.);
#194=ORIENTED_EDGE('',*,*,#464,.F.);
#195=ORIENTED_EDGE('',*,*,#473,.T.);
#196=ORIENTED_EDGE('',*,*,#463,.F.);
#197=ORIENTED_EDGE('',*,*,#476,.F.);
#198=ORIENTED_EDGE('',*,*,#384,.F.);
#199=ORIENTED_EDGE('',*,*,#407,.F.);
#200=ORIENTED_EDGE('',*,*,#385,.F.);
#201=ORIENTED_EDGE('',*,*,#477,.F.);
#202=ORIENTED_EDGE('',*,*,#389,.F.);
#203=ORIENTED_EDGE('',*,*,#478,.F.);
#204=ORIENTED_EDGE('',*,*,#475,.T.);
#205=ORIENTED_EDGE('',*,*,#479,.F.);
#206=ORIENTED_EDGE('',*,*,#477,.T.);
#207=ORIENTED_EDGE('',*,*,#476,.T.);
#208=ORIENTED_EDGE('',*,*,#480,.F.);
#209=ORIENTED_EDGE('',*,*,#479,.T.);
#210=ORIENTED_EDGE('',*,*,#375,.F.);
#211=ORIENTED_EDGE('',*,*,#481,.F.);
#212=ORIENTED_EDGE('',*,*,#446,.F.);
#213=ORIENTED_EDGE('',*,*,#478,.T.);
#214=ORIENTED_EDGE('',*,*,#445,.F.);
#215=ORIENTED_EDGE('',*,*,#482,.F.);
#216=ORIENTED_EDGE('',*,*,#465,.F.);
#217=ORIENTED_EDGE('',*,*,#480,.T.);
#218=ORIENTED_EDGE('',*,*,#462,.F.);
#219=ORIENTED_EDGE('',*,*,#483,.F.);
#220=ORIENTED_EDGE('',*,*,#390,.F.);
#221=ORIENTED_EDGE('',*,*,#481,.T.);
#222=ORIENTED_EDGE('',*,*,#374,.F.);
#223=ORIENTED_EDGE('',*,*,#484,.F.);
#224=ORIENTED_EDGE('',*,*,#451,.F.);
#225=ORIENTED_EDGE('',*,*,#482,.T.);
#226=ORIENTED_EDGE('',*,*,#442,.F.);
#227=ORIENTED_EDGE('',*,*,#485,.F.);
#228=ORIENTED_EDGE('',*,*,#466,.F.);
#229=ORIENTED_EDGE('',*,*,#486,.F.);
#230=ORIENTED_EDGE('',*,*,#483,.T.);
#231=ORIENTED_EDGE('',*,*,#487,.F.);
#232=ORIENTED_EDGE('',*,*,#484,.T.);
#233=ORIENTED_EDGE('',*,*,#373,.F.);
#234=ORIENTED_EDGE('',*,*,#488,.F.);
#235=ORIENTED_EDGE('',*,*,#448,.F.);
#236=ORIENTED_EDGE('',*,*,#485,.T.);
#237=ORIENTED_EDGE('',*,*,#449,.F.);
#238=ORIENTED_EDGE('',*,*,#489,.F.);
#239=ORIENTED_EDGE('',*,*,#467,.F.);
#240=ORIENTED_EDGE('',*,*,#487,.T.);
#241=ORIENTED_EDGE('',*,*,#461,.F.);
#242=ORIENTED_EDGE('',*,*,#490,.F.);
#243=ORIENTED_EDGE('',*,*,#416,.F.);
#244=ORIENTED_EDGE('',*,*,#486,.T.);
#245=ORIENTED_EDGE('',*,*,#415,.F.);
#246=ORIENTED_EDGE('',*,*,#491,.F.);
#247=ORIENTED_EDGE('',*,*,#391,.F.);
#248=ORIENTED_EDGE('',*,*,#489,.T.);
#249=ORIENTED_EDGE('',*,*,#488,.T.);
#250=ORIENTED_EDGE('',*,*,#492,.F.);
#251=ORIENTED_EDGE('',*,*,#490,.T.);
#252=ORIENTED_EDGE('',*,*,#460,.F.);
#253=ORIENTED_EDGE('',*,*,#493,.F.);
#254=ORIENTED_EDGE('',*,*,#409,.F.);
#255=ORIENTED_EDGE('',*,*,#491,.T.);
#256=ORIENTED_EDGE('',*,*,#418,.F.);
#257=ORIENTED_EDGE('',*,*,#494,.F.);
#258=ORIENTED_EDGE('',*,*,#392,.F.);
#259=ORIENTED_EDGE('',*,*,#492,.T.);
#260=ORIENTED_EDGE('',*,*,#372,.F.);
#261=ORIENTED_EDGE('',*,*,#495,.F.);
#262=ORIENTED_EDGE('',*,*,#468,.F.);
#263=ORIENTED_EDGE('',*,*,#493,.T.);
#264=ORIENTED_EDGE('',*,*,#459,.F.);
#265=ORIENTED_EDGE('',*,*,#496,.F.);
#266=ORIENTED_EDGE('',*,*,#412,.F.);
#267=ORIENTED_EDGE('',*,*,#494,.T.);
#268=ORIENTED_EDGE('',*,*,#413,.F.);
#269=ORIENTED_EDGE('',*,*,#497,.F.);
#270=ORIENTED_EDGE('',*,*,#393,.F.);
#271=ORIENTED_EDGE('',*,*,#498,.F.);
#272=ORIENTED_EDGE('',*,*,#495,.T.);
#273=ORIENTED_EDGE('',*,*,#499,.F.);
#274=ORIENTED_EDGE('',*,*,#497,.T.);
#275=ORIENTED_EDGE('',*,*,#496,.T.);
#276=ORIENTED_EDGE('',*,*,#500,.F.);
#277=ORIENTED_EDGE('',*,*,#499,.T.);
#278=ORIENTED_EDGE('',*,*,#371,.F.);
#279=ORIENTED_EDGE('',*,*,#501,.F.);
#280=ORIENTED_EDGE('',*,*,#438,.F.);
#281=ORIENTED_EDGE('',*,*,#498,.T.);
#282=ORIENTED_EDGE('',*,*,#437,.F.);
#283=ORIENTED_EDGE('',*,*,#502,.F.);
#284=ORIENTED_EDGE('',*,*,#469,.F.);
#285=ORIENTED_EDGE('',*,*,#500,.T.);
#286=ORIENTED_EDGE('',*,*,#458,.F.);
#287=ORIENTED_EDGE('',*,*,#503,.F.);
#288=ORIENTED_EDGE('',*,*,#394,.F.);
#289=ORIENTED_EDGE('',*,*,#501,.T.);
#290=ORIENTED_EDGE('',*,*,#370,.F.);
#291=ORIENTED_EDGE('',*,*,#504,.F.);
#292=ORIENTED_EDGE('',*,*,#440,.F.);
#293=ORIENTED_EDGE('',*,*,#502,.T.);
#294=ORIENTED_EDGE('',*,*,#434,.F.);
#295=ORIENTED_EDGE('',*,*,#505,.F.);
#296=ORIENTED_EDGE('',*,*,#470,.F.);
#297=ORIENTED_EDGE('',*,*,#506,.F.);
#298=ORIENTED_EDGE('',*,*,#503,.T.);
#299=ORIENTED_EDGE('',*,*,#507,.F.);
#300=ORIENTED_EDGE('',*,*,#504,.T.);
#301=ORIENTED_EDGE('',*,*,#369,.F.);
#302=ORIENTED_EDGE('',*,*,#508,.F.);
#303=ORIENTED_EDGE('',*,*,#430,.F.);
#304=ORIENTED_EDGE('',*,*,#505,.T.);
#305=ORIENTED_EDGE('',*,*,#431,.F.);
#306=ORIENTED_EDGE('',*,*,#509,.F.);
#307=ORIENTED_EDGE('',*,*,#471,.F.);
#308=ORIENTED_EDGE('',*,*,#507,.T.);
#309=ORIENTED_EDGE('',*,*,#457,.F.);
#310=ORIENTED_EDGE('',*,*,#510,.F.);
#311=ORIENTED_EDGE('',*,*,#420,.F.);
#312=ORIENTED_EDGE('',*,*,#506,.T.);
#313=ORIENTED_EDGE('',*,*,#419,.F.);
#314=ORIENTED_EDGE('',*,*,#511,.F.);
#315=ORIENTED_EDGE('',*,*,#395,.F.);
#316=ORIENTED_EDGE('',*,*,#509,.T.);
#317=ORIENTED_EDGE('',*,*,#508,.T.);
#318=ORIENTED_EDGE('',*,*,#512,.F.);
#319=ORIENTED_EDGE('',*,*,#510,.T.);
#320=ORIENTED_EDGE('',*,*,#456,.F.);
#321=ORIENTED_EDGE('',*,*,#513,.F.);
#322=ORIENTED_EDGE('',*,*,#429,.F.);
#323=ORIENTED_EDGE('',*,*,#511,.T.);
#324=ORIENTED_EDGE('',*,*,#427,.F.);
#325=ORIENTED_EDGE('',*,*,#514,.F.);
#326=ORIENTED_EDGE('',*,*,#396,.F.);
#327=ORIENTED_EDGE('',*,*,#405,.F.);
#328=ORIENTED_EDGE('',*,*,#403,.F.);
#329=ORIENTED_EDGE('',*,*,#515,.F.);
#330=ORIENTED_EDGE('',*,*,#367,.F.);
#331=ORIENTED_EDGE('',*,*,#512,.T.);
#332=ORIENTED_EDGE('',*,*,#368,.F.);
#333=ORIENTED_EDGE('',*,*,#516,.F.);
#334=ORIENTED_EDGE('',*,*,#452,.F.);
#335=ORIENTED_EDGE('',*,*,#513,.T.);
#336=ORIENTED_EDGE('',*,*,#455,.F.);
#337=ORIENTED_EDGE('',*,*,#517,.F.);
#338=ORIENTED_EDGE('',*,*,#424,.F.);
#339=ORIENTED_EDGE('',*,*,#514,.T.);
#340=ORIENTED_EDGE('',*,*,#425,.F.);
#341=ORIENTED_EDGE('',*,*,#518,.F.);
#342=ORIENTED_EDGE('',*,*,#397,.F.);
#343=ORIENTED_EDGE('',*,*,#516,.T.);
#344=ORIENTED_EDGE('',*,*,#515,.T.);
#345=ORIENTED_EDGE('',*,*,#519,.F.);
#346=ORIENTED_EDGE('',*,*,#518,.T.);
#347=ORIENTED_EDGE('',*,*,#517,.T.);
#348=ORIENTED_EDGE('',*,*,#520,.F.);
#349=ORIENTED_EDGE('',*,*,#519,.T.);
#350=ORIENTED_EDGE('',*,*,#402,.F.);
#351=ORIENTED_EDGE('',*,*,#521,.F.);
#352=ORIENTED_EDGE('',*,*,#453,.F.);
#353=ORIENTED_EDGE('',*,*,#520,.T.);
#354=ORIENTED_EDGE('',*,*,#454,.F.);
#355=ORIENTED_EDGE('',*,*,#522,.F.);
#356=ORIENTED_EDGE('',*,*,#398,.F.);
#357=ORIENTED_EDGE('',*,*,#522,.T.);
#358=ORIENTED_EDGE('',*,*,#521,.T.);
#359=ORIENTED_EDGE('',*,*,#523,.F.);
#360=ORIENTED_EDGE('',*,*,#404,.F.);
#361=ORIENTED_EDGE('',*,*,#399,.F.);
#362=ORIENTED_EDGE('',*,*,#523,.T.);
#363=ORIENTED_EDGE('',*,*,#401,.F.);
#364=EDGE_CURVE('',#524,#525,#616,.T.);
#365=EDGE_CURVE('',#525,#526,#617,.T.);
#366=EDGE_CURVE('',#526,#527,#618,.T.);
#367=EDGE_CURVE('',#527,#528,#619,.T.);
#368=EDGE_CURVE('',#528,#529,#620,.T.);
#369=EDGE_CURVE('',#529,#530,#621,.T.);
#370=EDGE_CURVE('',#530,#531,#622,.T.);
#371=EDGE_CURVE('',#531,#532,#623,.T.);
#372=EDGE_CURVE('',#532,#533,#624,.T.);
#373=EDGE_CURVE('',#533,#534,#625,.T.);
#374=EDGE_CURVE('',#534,#535,#626,.T.);
#375=EDGE_CURVE('',#535,#524,#627,.T.);
#376=EDGE_CURVE('',#536,#536,#16,.T.);
#377=EDGE_CURVE('',#537,#537,#17,.T.);
#378=EDGE_CURVE('',#538,#538,#18,.T.);
#379=EDGE_CURVE('',#539,#539,#19,.T.);
#380=EDGE_CURVE('',#540,#540,#20,.T.);
#381=EDGE_CURVE('',#541,#541,#21,.T.);
#382=EDGE_CURVE('',#542,#542,#22,.T.);
#383=EDGE_CURVE('',#543,#543,#23,.T.);
#384=EDGE_CURVE('',#544,#545,#628,.T.);
#385=EDGE_CURVE('',#545,#546,#629,.T.);
#386=EDGE_CURVE('',#547,#546,#630,.T.);
#387=EDGE_CURVE('',#547,#544,#631,.T.);
#388=EDGE_CURVE('',#548,#549,#632,.T.);
#389=EDGE_CURVE('',#548,#550,#633,.T.);
#390=EDGE_CURVE('',#550,#551,#634,.T.);
#391=EDGE_CURVE('',#551,#552,#635,.T.);
#392=EDGE_CURVE('',#552,#553,#636,.T.);
#393=EDGE_CURVE('',#553,#554,#637,.T.);
#394=EDGE_CURVE('',#554,#555,#638,.T.);
#395=EDGE_CURVE('',#555,#556,#639,.T.);
#396=EDGE_CURVE('',#556,#557,#640,.T.);
#397=EDGE_CURVE('',#557,#558,#641,.T.);
#398=EDGE_CURVE('',#558,#559,#642,.T.);
#399=EDGE_CURVE('',#559,#549,#643,.T.);
#400=EDGE_CURVE('',#560,#561,#644,.T.);
#401=EDGE_CURVE('',#561,#562,#645,.T.);
#402=EDGE_CURVE('',#562,#563,#646,.T.);
#403=EDGE_CURVE('',#563,#560,#647,.T.);
#404=EDGE_CURVE('',#549,#561,#648,.T.);
#405=EDGE_CURVE('',#560,#527,#649,.F.);
#406=EDGE_CURVE('',#526,#547,#650,.T.);
#407=EDGE_CURVE('',#546,#548,#651,.F.);
#408=EDGE_CURVE('',#564,#565,#652,.T.);
#409=EDGE_CURVE('',#565,#566,#24,.F.);
#410=EDGE_CURVE('',#567,#566,#653,.T.);
#411=EDGE_CURVE('',#567,#564,#25,.T.);
#412=EDGE_CURVE('',#566,#568,#654,.T.);
#413=EDGE_CURVE('',#568,#569,#655,.T.);
#414=EDGE_CURVE('',#569,#567,#656,.T.);
#415=EDGE_CURVE('',#570,#571,#657,.T.);
#416=EDGE_CURVE('',#571,#565,#658,.T.);
#417=EDGE_CURVE('',#564,#570,#659,.T.);
#418=EDGE_CURVE('',#569,#570,#660,.T.);
#419=EDGE_CURVE('',#572,#573,#661,.T.);
#420=EDGE_CURVE('',#573,#574,#662,.T.);
#421=EDGE_CURVE('',#575,#574,#663,.T.);
#422=EDGE_CURVE('',#572,#575,#664,.T.);
#423=EDGE_CURVE('',#576,#577,#665,.T.);
#424=EDGE_CURVE('',#577,#578,#666,.T.);
#425=EDGE_CURVE('',#578,#579,#667,.T.);
#426=EDGE_CURVE('',#576,#579,#668,.T.);
#427=EDGE_CURVE('',#579,#572,#669,.T.);
#428=EDGE_CURVE('',#575,#576,#26,.T.);
#429=EDGE_CURVE('',#574,#577,#27,.F.);
#430=EDGE_CURVE('',#580,#581,#670,.T.);
#431=EDGE_CURVE('',#581,#582,#671,.T.);
#432=EDGE_CURVE('',#583,#582,#672,.T.);
#433=EDGE_CURVE('',#583,#580,#673,.T.);
#434=EDGE_CURVE('',#582,#584,#28,.F.);
#435=EDGE_CURVE('',#585,#584,#674,.T.);
#436=EDGE_CURVE('',#585,#583,#29,.T.);
#437=EDGE_CURVE('',#584,#586,#675,.T.);
#438=EDGE_CURVE('',#586,#587,#676,.T.);
#439=EDGE_CURVE('',#587,#585,#677,.T.);
#440=EDGE_CURVE('',#587,#580,#678,.T.);
#441=EDGE_CURVE('',#588,#589,#679,.T.);
#442=EDGE_CURVE('',#589,#590,#30,.F.);
#443=EDGE_CURVE('',#591,#590,#680,.T.);
#444=EDGE_CURVE('',#588,#591,#31,.T.);
#445=EDGE_CURVE('',#590,#592,#681,.T.);
#446=EDGE_CURVE('',#592,#593,#682,.T.);
#447=EDGE_CURVE('',#591,#593,#683,.T.);
#448=EDGE_CURVE('',#594,#595,#684,.T.);
#449=EDGE_CURVE('',#595,#589,#685,.T.);
#450=EDGE_CURVE('',#594,#588,#686,.T.);
#451=EDGE_CURVE('',#593,#594,#687,.T.);
#452=EDGE_CURVE('',#596,#597,#688,.T.);
#453=EDGE_CURVE('',#597,#598,#689,.T.);
#454=EDGE_CURVE('',#598,#599,#690,.T.);
#455=EDGE_CURVE('',#599,#600,#691,.T.);
#456=EDGE_CURVE('',#600,#601,#32,.T.);
#457=EDGE_CURVE('',#601,#602,#692,.T.);
#458=EDGE_CURVE('',#602,#603,#693,.T.);
#459=EDGE_CURVE('',#603,#604,#694,.T.);
#460=EDGE_CURVE('',#604,#605,#33,.T.);
#461=EDGE_CURVE('',#605,#606,#695,.T.);
#462=EDGE_CURVE('',#606,#607,#696,.T.);
#463=EDGE_CURVE('',#607,#608,#697,.T.);
#464=EDGE_CURVE('',#608,#609,#698,.T.);
#465=EDGE_CURVE('',#609,#610,#699,.T.);
#466=EDGE_CURVE('',#610,#611,#34,.T.);
#467=EDGE_CURVE('',#611,#612,#700,.T.);
#468=EDGE_CURVE('',#612,#613,#701,.T.);
#469=EDGE_CURVE('',#613,#614,#702,.T.);
#470=EDGE_CURVE('',#614,#615,#35,.T.);
#471=EDGE_CURVE('',#615,#596,#703,.T.);
#472=EDGE_CURVE('',#544,#525,#704,.T.);
#473=EDGE_CURVE('',#544,#608,#705,.T.);
#474=EDGE_CURVE('',#608,#525,#706,.F.);
#475=EDGE_CURVE('',#609,#524,#707,.T.);
#476=EDGE_CURVE('',#545,#607,#708,.F.);
#477=EDGE_CURVE('',#550,#545,#709,.F.);
#478=EDGE_CURVE('',#609,#592,#710,.T.);
#479=EDGE_CURVE('',#592,#524,#711,.F.);
#480=EDGE_CURVE('',#550,#607,#712,.T.);
#481=EDGE_CURVE('',#593,#535,#713,.T.);
#482=EDGE_CURVE('',#610,#590,#714,.T.);
#483=EDGE_CURVE('',#551,#606,#715,.F.);
#484=EDGE_CURVE('',#594,#534,#716,.T.);
#485=EDGE_CURVE('',#611,#589,#717,.T.);
#486=EDGE_CURVE('',#551,#571,#718,.F.);
#487=EDGE_CURVE('',#571,#606,#719,.F.);
#488=EDGE_CURVE('',#595,#533,#720,.T.);
#489=EDGE_CURVE('',#612,#595,#721,.F.);
#490=EDGE_CURVE('',#565,#605,#722,.T.);
#491=EDGE_CURVE('',#552,#570,#723,.F.);
#492=EDGE_CURVE('',#612,#533,#724,.F.);
#493=EDGE_CURVE('',#566,#604,#725,.T.);
#494=EDGE_CURVE('',#553,#569,#726,.F.);
#495=EDGE_CURVE('',#613,#532,#727,.T.);
#496=EDGE_CURVE('',#568,#603,#728,.T.);
#497=EDGE_CURVE('',#554,#568,#729,.T.);
#498=EDGE_CURVE('',#613,#586,#730,.F.);
#499=EDGE_CURVE('',#586,#532,#731,.T.);
#500=EDGE_CURVE('',#554,#603,#732,.T.);
#501=EDGE_CURVE('',#587,#531,#733,.F.);
#502=EDGE_CURVE('',#614,#584,#734,.T.);
#503=EDGE_CURVE('',#555,#602,#735,.F.);
#504=EDGE_CURVE('',#580,#530,#736,.F.);
#505=EDGE_CURVE('',#615,#582,#737,.T.);
#506=EDGE_CURVE('',#555,#573,#738,.T.);
#507=EDGE_CURVE('',#573,#602,#739,.T.);
#508=EDGE_CURVE('',#581,#529,#740,.F.);
#509=EDGE_CURVE('',#596,#581,#741,.T.);
#510=EDGE_CURVE('',#574,#601,#742,.T.);
#511=EDGE_CURVE('',#556,#572,#743,.F.);
#512=EDGE_CURVE('',#596,#529,#744,.F.);
#513=EDGE_CURVE('',#577,#600,#745,.T.);
#514=EDGE_CURVE('',#557,#579,#746,.F.);
#515=EDGE_CURVE('',#528,#563,#747,.F.);
#516=EDGE_CURVE('',#597,#528,#748,.T.);
#517=EDGE_CURVE('',#578,#599,#749,.F.);
#518=EDGE_CURVE('',#558,#578,#750,.F.);
#519=EDGE_CURVE('',#597,#563,#751,.F.);
#520=EDGE_CURVE('',#558,#599,#752,.T.);
#521=EDGE_CURVE('',#598,#562,#753,.T.);
#522=EDGE_CURVE('',#559,#598,#754,.F.);
#523=EDGE_CURVE('',#559,#562,#755,.F.);
#524=VERTEX_POINT('',#1644);
#525=VERTEX_POINT('',#1645);
#526=VERTEX_POINT('',#1647);
#527=VERTEX_POINT('',#1649);
#528=VERTEX_POINT('',#1651);
#529=VERTEX_POINT('',#1653);
#530=VERTEX_POINT('',#1655);
#531=VERTEX_POINT('',#1657);
#532=VERTEX_POINT('',#1659);
#533=VERTEX_POINT('',#1661);
#534=VERTEX_POINT('',#1663);
#535=VERTEX_POINT('',#1665);
#536=VERTEX_POINT('',#1669);
#537=VERTEX_POINT('',#1671);
#538=VERTEX_POINT('',#1674);
#539=VERTEX_POINT('',#1676);
#540=VERTEX_POINT('',#1679);
#541=VERTEX_POINT('',#1681);
#542=VERTEX_POINT('',#1684);
#543=VERTEX_POINT('',#1686);
#544=VERTEX_POINT('',#1689);
#545=VERTEX_POINT('',#1690);
#546=VERTEX_POINT('',#1692);
#547=VERTEX_POINT('',#1694);
#548=VERTEX_POINT('',#1698);
#549=VERTEX_POINT('',#1699);
#550=VERTEX_POINT('',#1701);
#551=VERTEX_POINT('',#1703);
#552=VERTEX_POINT('',#1705);
#553=VERTEX_POINT('',#1707);
#554=VERTEX_POINT('',#1709);
#555=VERTEX_POINT('',#1711);
#556=VERTEX_POINT('',#1713);
#557=VERTEX_POINT('',#1715);
#558=VERTEX_POINT('',#1717);
#559=VERTEX_POINT('',#1719);
#560=VERTEX_POINT('',#1723);
#561=VERTEX_POINT('',#1724);
#562=VERTEX_POINT('',#1726);
#563=VERTEX_POINT('',#1728);
#564=VERTEX_POINT('',#1737);
#565=VERTEX_POINT('',#1738);
#566=VERTEX_POINT('',#1740);
#567=VERTEX_POINT('',#1742);
#568=VERTEX_POINT('',#1746);
#569=VERTEX_POINT('',#1748);
#570=VERTEX_POINT('',#1752);
#571=VERTEX_POINT('',#1753);
#572=VERTEX_POINT('',#1760);
#573=VERTEX_POINT('',#1761);
#574=VERTEX_POINT('',#1763);
#575=VERTEX_POINT('',#1765);
#576=VERTEX_POINT('',#1769);
#577=VERTEX_POINT('',#1770);
#578=VERTEX_POINT('',#1772);
#579=VERTEX_POINT('',#1774);
#580=VERTEX_POINT('',#1783);
#581=VERTEX_POINT('',#1784);
#582=VERTEX_POINT('',#1786);
#583=VERTEX_POINT('',#1788);
#584=VERTEX_POINT('',#1792);
#585=VERTEX_POINT('',#1794);
#586=VERTEX_POINT('',#1798);
#587=VERTEX_POINT('',#1800);
#588=VERTEX_POINT('',#1806);
#589=VERTEX_POINT('',#1807);
#590=VERTEX_POINT('',#1809);
#591=VERTEX_POINT('',#1811);
#592=VERTEX_POINT('',#1815);
#593=VERTEX_POINT('',#1817);
#594=VERTEX_POINT('',#1821);
#595=VERTEX_POINT('',#1822);
#596=VERTEX_POINT('',#1829);
#597=VERTEX_POINT('',#1830);
#598=VERTEX_POINT('',#1832);
#599=VERTEX_POINT('',#1834);
#600=VERTEX_POINT('',#1836);
#601=VERTEX_POINT('',#1838);
#602=VERTEX_POINT('',#1840);
#603=VERTEX_POINT('',#1842);
#604=VERTEX_POINT('',#1844);
#605=VERTEX_POINT('',#1846);
#606=VERTEX_POINT('',#1848);
#607=VERTEX_POINT('',#1850);
#608=VERTEX_POINT('',#1852);
#609=VERTEX_POINT('',#1854);
#610=VERTEX_POINT('',#1856);
#611=VERTEX_POINT('',#1858);
#612=VERTEX_POINT('',#1860);
#613=VERTEX_POINT('',#1862);
#614=VERTEX_POINT('',#1864);
#615=VERTEX_POINT('',#1866);
#616=LINE('',#1643,#756);
#617=LINE('',#1646,#757);
#618=LINE('',#1648,#758);
#619=LINE('',#1650,#759);
#620=LINE('',#1652,#760);
#621=LINE('',#1654,#761);
#622=LINE('',#1656,#762);
#623=LINE('',#1658,#763);
#624=LINE('',#1660,#764);
#625=LINE('',#1662,#765);
#626=LINE('',#1664,#766);
#627=LINE('',#1666,#767);
#628=LINE('',#1688,#768);
#629=LINE('',#1691,#769);
#630=LINE('',#1693,#770);
#631=LINE('',#1695,#771);
#632=LINE('',#1697,#772);
#633=LINE('',#1700,#773);
#634=LINE('',#1702,#774);
#635=LINE('',#1704,#775);
#636=LINE('',#1706,#776);
#637=LINE('',#1708,#777);
#638=LINE('',#1710,#778);
#639=LINE('',#1712,#779);
#640=LINE('',#1714,#780);
#641=LINE('',#1716,#781);
#642=LINE('',#1718,#782);
#643=LINE('',#1720,#783);
#644=LINE('',#1722,#784);
#645=LINE('',#1725,#785);
#646=LINE('',#1727,#786);
#647=LINE('',#1729,#787);
#648=LINE('',#1731,#788);
#649=LINE('',#1732,#789);
#650=LINE('',#1733,#790);
#651=LINE('',#1734,#791);
#652=LINE('',#1736,#792);
#653=LINE('',#1741,#793);
#654=LINE('',#1745,#794);
#655=LINE('',#1747,#795);
#656=LINE('',#1749,#796);
#657=LINE('',#1751,#797);
#658=LINE('',#1754,#798);
#659=LINE('',#1755,#799);
#660=LINE('',#1757,#800);
#661=LINE('',#1759,#801);
#662=LINE('',#1762,#802);
#663=LINE('',#1764,#803);
#664=LINE('',#1766,#804);
#665=LINE('',#1768,#805);
#666=LINE('',#1771,#806);
#667=LINE('',#1773,#807);
#668=LINE('',#1775,#808);
#669=LINE('',#1777,#809);
#670=LINE('',#1782,#810);
#671=LINE('',#1785,#811);
#672=LINE('',#1787,#812);
#673=LINE('',#1789,#813);
#674=LINE('',#1793,#814);
#675=LINE('',#1797,#815);
#676=LINE('',#1799,#816);
#677=LINE('',#1801,#817);
#678=LINE('',#1803,#818);
#679=LINE('',#1805,#819);
#680=LINE('',#1810,#820);
#681=LINE('',#1814,#821);
#682=LINE('',#1816,#822);
#683=LINE('',#1818,#823);
#684=LINE('',#1820,#824);
#685=LINE('',#1823,#825);
#686=LINE('',#1824,#826);
#687=LINE('',#1826,#827);
#688=LINE('',#1828,#828);
#689=LINE('',#1831,#829);
#690=LINE('',#1833,#830);
#691=LINE('',#1835,#831);
#692=LINE('',#1839,#832);
#693=LINE('',#1841,#833);
#694=LINE('',#1843,#834);
#695=LINE('',#1847,#835);
#696=LINE('',#1849,#836);
#697=LINE('',#1851,#837);
#698=LINE('',#1853,#838);
#699=LINE('',#1855,#839);
#700=LINE('',#1859,#840);
#701=LINE('',#1861,#841);
#702=LINE('',#1863,#842);
#703=LINE('',#1867,#843);
#704=LINE('',#1869,#844);
#705=LINE('',#1871,#845);
#706=LINE('',#1872,#846);
#707=LINE('',#1874,#847);
#708=LINE('',#1876,#848);
#709=LINE('',#1878,#849);
#710=LINE('',#1880,#850);
#711=LINE('',#1881,#851);
#712=LINE('',#1883,#852);
#713=LINE('',#1885,#853);
#714=LINE('',#1887,#854);
#715=LINE('',#1889,#855);
#716=LINE('',#1891,#856);
#717=LINE('',#1893,#857);
#718=LINE('',#1895,#858);
#719=LINE('',#1896,#859);
#720=LINE('',#1898,#860);
#721=LINE('',#1900,#861);
#722=LINE('',#1902,#862);
#723=LINE('',#1904,#863);
#724=LINE('',#1906,#864);
#725=LINE('',#1908,#865);
#726=LINE('',#1910,#866);
#727=LINE('',#1912,#867);
#728=LINE('',#1914,#868);
#729=LINE('',#1916,#869);
#730=LINE('',#1918,#870);
#731=LINE('',#1919,#871);
#732=LINE('',#1921,#872);
#733=LINE('',#1923,#873);
#734=LINE('',#1925,#874);
#735=LINE('',#1927,#875);
#736=LINE('',#1929,#876);
#737=LINE('',#1931,#877);
#738=LINE('',#1933,#878);
#739=LINE('',#1934,#879);
#740=LINE('',#1936,#880);
#741=LINE('',#1938,#881);
#742=LINE('',#1940,#882);
#743=LINE('',#1942,#883);
#744=LINE('',#1944,#884);
#745=LINE('',#1946,#885);
#746=LINE('',#1948,#886);
#747=LINE('',#1950,#887);
#748=LINE('',#1952,#888);
#749=LINE('',#1954,#889);
#750=LINE('',#1956,#890);
#751=LINE('',#1958,#891);
#752=LINE('',#1960,#892);
#753=LINE('',#1962,#893);
#754=LINE('',#1964,#894);
#755=LINE('',#1966,#895);
#756=VECTOR('',#1315,1.);
#757=VECTOR('',#1316,1.);
#758=VECTOR('',#1317,1.);
#759=VECTOR('',#1318,1.);
#760=VECTOR('',#1319,1.);
#761=VECTOR('',#1320,1.);
#762=VECTOR('',#1321,1.);
#763=VECTOR('',#1322,1.);
#764=VECTOR('',#1323,1.);
#765=VECTOR('',#1324,1.);
#766=VECTOR('',#1325,1.);
#767=VECTOR('',#1326,1.);
#768=VECTOR('',#1353,1.);
#769=VECTOR('',#1354,1.);
#770=VECTOR('',#1355,1.);
#771=VECTOR('',#1356,1.);
#772=VECTOR('',#1359,1.);
#773=VECTOR('',#1360,1.);
#774=VECTOR('',#1361,1.);
#775=VECTOR('',#1362,1.);
#776=VECTOR('',#1363,1.);
#777=VECTOR('',#1364,1.);
#778=VECTOR('',#1365,1.);
#779=VECTOR('',#1366,1.);
#780=VECTOR('',#1367,1.);
#781=VECTOR('',#1368,1.);
#782=VECTOR('',#1369,1.);
#783=VECTOR('',#1370,1.);
#784=VECTOR('',#1373,1.);
#785=VECTOR('',#1374,1.);
#786=VECTOR('',#1375,1.);
#787=VECTOR('',#1376,1.);
#788=VECTOR('',#1379,1.);
#789=VECTOR('',#1380,1.);
#790=VECTOR('',#1381,1.);
#791=VECTOR('',#1382,1.);
#792=VECTOR('',#1385,1.);
#793=VECTOR('',#1388,1.);
#794=VECTOR('',#1393,1.);
#795=VECTOR('',#1394,1.);
#796=VECTOR('',#1395,1.);
#797=VECTOR('',#1398,1.);
#798=VECTOR('',#1399,1.);
#799=VECTOR('',#1400,1.);
#800=VECTOR('',#1403,1.);
#801=VECTOR('',#1406,1.);
#802=VECTOR('',#1407,1.);
#803=VECTOR('',#1408,1.);
#804=VECTOR('',#1409,1.);
#805=VECTOR('',#1412,1.);
#806=VECTOR('',#1413,1.);
#807=VECTOR('',#1414,1.);
#808=VECTOR('',#1415,1.);
#809=VECTOR('',#1418,1.);
#810=VECTOR('',#1427,1.);
#811=VECTOR('',#1428,1.);
#812=VECTOR('',#1429,1.);
#813=VECTOR('',#1430,1.);
#814=VECTOR('',#1435,1.);
#815=VECTOR('',#1440,1.);
#816=VECTOR('',#1441,1.);
#817=VECTOR('',#1442,1.);
#818=VECTOR('',#1445,1.);
#819=VECTOR('',#1448,1.);
#820=VECTOR('',#1451,1.);
#821=VECTOR('',#1456,1.);
#822=VECTOR('',#1457,1.);
#823=VECTOR('',#1458,1.);
#824=VECTOR('',#1461,1.);
#825=VECTOR('',#1462,1.);
#826=VECTOR('',#1463,1.);
#827=VECTOR('',#1466,1.);
#828=VECTOR('',#1469,1.);
#829=VECTOR('',#1470,1.);
#830=VECTOR('',#1471,1.);
#831=VECTOR('',#1472,1.);
#832=VECTOR('',#1475,1.);
#833=VECTOR('',#1476,1.);
#834=VECTOR('',#1477,1.);
#835=VECTOR('',#1480,1.);
#836=VECTOR('',#1481,1.);
#837=VECTOR('',#1482,1.);
#838=VECTOR('',#1483,1.);
#839=VECTOR('',#1484,1.);
#840=VECTOR('',#1487,1.);
#841=VECTOR('',#1488,1.);
#842=VECTOR('',#1489,1.);
#843=VECTOR('',#1492,1.);
#844=VECTOR('',#1495,1.);
#845=VECTOR('',#1498,1.);
#846=VECTOR('',#1499,1.);
#847=VECTOR('',#1502,1.);
#848=VECTOR('',#1505,1.);
#849=VECTOR('',#1508,1.);
#850=VECTOR('',#1511,1.);
#851=VECTOR('',#1512,1.);
#852=VECTOR('',#1515,1.);
#853=VECTOR('',#1518,1.);
#854=VECTOR('',#1521,1.);
#855=VECTOR('',#1524,1.);
#856=VECTOR('',#1527,1.);
#857=VECTOR('',#1530,1.);
#858=VECTOR('',#1533,1.);
#859=VECTOR('',#1534,1.);
#860=VECTOR('',#1537,1.);
#861=VECTOR('',#1540,1.);
#862=VECTOR('',#1543,1.);
#863=VECTOR('',#1546,1.);
#864=VECTOR('',#1549,1.);
#865=VECTOR('',#1552,1.);
#866=VECTOR('',#1555,1.);
#867=VECTOR('',#1558,1.);
#868=VECTOR('',#1561,1.);
#869=VECTOR('',#1564,1.);
#870=VECTOR('',#1567,1.);
#871=VECTOR('',#1568,1.);
#872=VECTOR('',#1571,1.);
#873=VECTOR('',#1574,1.);
#874=VECTOR('',#1577,1.);
#875=VECTOR('',#1580,1.);
#876=VECTOR('',#1583,1.);
#877=VECTOR('',#1586,1.);
#878=VECTOR('',#1589,1.);
#879=VECTOR('',#1590,1.);
#880=VECTOR('',#1593,1.);
#881=VECTOR('',#1596,1.);
#882=VECTOR('',#1599,1.);
#883=VECTOR('',#1602,1.);
#884=VECTOR('',#1605,1.);
#885=VECTOR('',#1608,1.);
#886=VECTOR('',#1611,1.);
#887=VECTOR('',#1614,1.);
#888=VECTOR('',#1617,1.);
#889=VECTOR('',#1620,1.);
#890=VECTOR('',#1623,1.);
#891=VECTOR('',#1626,1.);
#892=VECTOR('',#1629,1.);
#893=VECTOR('',#1632,1.);
#894=VECTOR('',#1635,1.);
#895=VECTOR('',#1638,1.);
#896=EDGE_LOOP('',(#44,#45,#46,#47,#48,#49,#50,#51,#52,#53,#54,#55));
#897=EDGE_LOOP('',(#56));
#898=EDGE_LOOP('',(#57));
#899=EDGE_LOOP('',(#58));
#900=EDGE_LOOP('',(#59));
#901=EDGE_LOOP('',(#60));
#902=EDGE_LOOP('',(#61));
#903=EDGE_LOOP('',(#62));
#904=EDGE_LOOP('',(#63));
#905=EDGE_LOOP('',(#64,#65,#66,#67));
#906=EDGE_LOOP('',(#68,#69,#70,#71,#72,#73,#74,#75,#76,#77,#78,#79));
#907=EDGE_LOOP('',(#80,#81,#82,#83));
#908=EDGE_LOOP('',(#84));
#909=EDGE_LOOP('',(#85));
#910=EDGE_LOOP('',(#86));
#911=EDGE_LOOP('',(#87));
#912=EDGE_LOOP('',(#88,#89,#90,#91,#92,#93,#94,#95));
#913=EDGE_LOOP('',(#96,#97,#98,#99));
#914=EDGE_LOOP('',(#100,#101,#102,#103));
#915=EDGE_LOOP('',(#104,#105,#106,#107));
#916=EDGE_LOOP('',(#108,#109,#110,#111));
#917=EDGE_LOOP('',(#112));
#918=EDGE_LOOP('',(#113,#114,#115,#116));
#919=EDGE_LOOP('',(#117,#118,#119,#120));
#920=EDGE_LOOP('',(#121));
#921=EDGE_LOOP('',(#122,#123,#124,#125));
#922=EDGE_LOOP('',(#126,#127,#128,#129));
#923=EDGE_LOOP('',(#130,#131,#132,#133));
#924=EDGE_LOOP('',(#134,#135,#136,#137));
#925=EDGE_LOOP('',(#138,#139,#140,#141));
#926=EDGE_LOOP('',(#142,#143,#144,#145));
#927=EDGE_LOOP('',(#146));
#928=EDGE_LOOP('',(#147,#148,#149,#150));
#929=EDGE_LOOP('',(#151,#152,#153,#154));
#930=EDGE_LOOP('',(#155,#156,#157,#158));
#931=EDGE_LOOP('',(#159));
#932=EDGE_LOOP('',(#160,#161,#162,#163));
#933=EDGE_LOOP('',(#164,#165,#166,#167,#168,#169,#170,#171,#172,#173,#174,
#175,#176,#177,#178,#179,#180,#181,#182,#183));
#934=EDGE_LOOP('',(#184,#185,#186,#187));
#935=EDGE_LOOP('',(#188,#189,#190));
#936=EDGE_LOOP('',(#191,#192,#193,#194));
#937=EDGE_LOOP('',(#195,#196,#197,#198));
#938=EDGE_LOOP('',(#199,#200,#201,#202));
#939=EDGE_LOOP('',(#203,#204,#205));
#940=EDGE_LOOP('',(#206,#207,#208));
#941=EDGE_LOOP('',(#209,#210,#211,#212));
#942=EDGE_LOOP('',(#213,#214,#215,#216));
#943=EDGE_LOOP('',(#217,#218,#219,#220));
#944=EDGE_LOOP('',(#221,#222,#223,#224));
#945=EDGE_LOOP('',(#225,#226,#227,#228));
#946=EDGE_LOOP('',(#229,#230,#231));
#947=EDGE_LOOP('',(#232,#233,#234,#235));
#948=EDGE_LOOP('',(#236,#237,#238,#239));
#949=EDGE_LOOP('',(#240,#241,#242,#243));
#950=EDGE_LOOP('',(#244,#245,#246,#247));
#951=EDGE_LOOP('',(#248,#249,#250));
#952=EDGE_LOOP('',(#251,#252,#253,#254));
#953=EDGE_LOOP('',(#255,#256,#257,#258));
#954=EDGE_LOOP('',(#259,#260,#261,#262));
#955=EDGE_LOOP('',(#263,#264,#265,#266));
#956=EDGE_LOOP('',(#267,#268,#269,#270));
#957=EDGE_LOOP('',(#271,#272,#273));
#958=EDGE_LOOP('',(#274,#275,#276));
#959=EDGE_LOOP('',(#277,#278,#279,#280));
#960=EDGE_LOOP('',(#281,#282,#283,#284));
#961=EDGE_LOOP('',(#285,#286,#287,#288));
#962=EDGE_LOOP('',(#289,#290,#291,#292));
#963=EDGE_LOOP('',(#293,#294,#295,#296));
#964=EDGE_LOOP('',(#297,#298,#299));
#965=EDGE_LOOP('',(#300,#301,#302,#303));
#966=EDGE_LOOP('',(#304,#305,#306,#307));
#967=EDGE_LOOP('',(#308,#309,#310,#311));
#968=EDGE_LOOP('',(#312,#313,#314,#315));
#969=EDGE_LOOP('',(#316,#317,#318));
#970=EDGE_LOOP('',(#319,#320,#321,#322));
#971=EDGE_LOOP('',(#323,#324,#325,#326));
#972=EDGE_LOOP('',(#327,#328,#329,#330));
#973=EDGE_LOOP('',(#331,#332,#333,#334));
#974=EDGE_LOOP('',(#335,#336,#337,#338));
#975=EDGE_LOOP('',(#339,#340,#341,#342));
#976=EDGE_LOOP('',(#343,#344,#345));
#977=EDGE_LOOP('',(#346,#347,#348));
#978=EDGE_LOOP('',(#349,#350,#351,#352));
#979=EDGE_LOOP('',(#353,#354,#355,#356));
#980=EDGE_LOOP('',(#357,#358,#359));
#981=EDGE_LOOP('',(#360,#361,#362,#363));
#982=FACE_BOUND('',#896,.T.);
#983=FACE_BOUND('',#897,.T.);
#984=FACE_BOUND('',#898,.T.);
#985=FACE_BOUND('',#899,.T.);
#986=FACE_BOUND('',#900,.T.);
#987=FACE_BOUND('',#901,.T.);
#988=FACE_BOUND('',#902,.T.);
#989=FACE_BOUND('',#903,.T.);
#990=FACE_BOUND('',#904,.T.);
#991=FACE_BOUND('',#905,.T.);
#992=FACE_BOUND('',#906,.T.);
#993=FACE_BOUND('',#907,.T.);
#994=FACE_BOUND('',#908,.T.);
#995=FACE_BOUND('',#909,.T.);
#996=FACE_BOUND('',#910,.T.);
#997=FACE_BOUND('',#911,.T.);
#998=FACE_BOUND('',#912,.T.);
#999=FACE_BOUND('',#913,.T.);
#1000=FACE_BOUND('',#914,.T.);
#1001=FACE_BOUND('',#915,.T.);
#1002=FACE_BOUND('',#916,.T.);
#1003=FACE_BOUND('',#917,.T.);
#1004=FACE_BOUND('',#918,.T.);
#1005=FACE_BOUND('',#919,.T.);
#1006=FACE_BOUND('',#920,.T.);
#1007=FACE_BOUND('',#921,.T.);
#1008=FACE_BOUND('',#922,.T.);
#1009=FACE_BOUND('',#923,.T.);
#1010=FACE_BOUND('',#924,.T.);
#1011=FACE_BOUND('',#925,.T.);
#1012=FACE_BOUND('',#926,.T.);
#1013=FACE_BOUND('',#927,.T.);
#1014=FACE_BOUND('',#928,.T.);
#1015=FACE_BOUND('',#929,.T.);
#1016=FACE_BOUND('',#930,.T.);
#1017=FACE_BOUND('',#931,.T.);
#1018=FACE_BOUND('',#932,.T.);
#1019=FACE_BOUND('',#933,.T.);
#1020=FACE_BOUND('',#934,.T.);
#1021=FACE_BOUND('',#935,.T.);
#1022=FACE_BOUND('',#936,.T.);
#1023=FACE_BOUND('',#937,.T.);
#1024=FACE_BOUND('',#938,.T.);
#1025=FACE_BOUND('',#939,.T.);
#1026=FACE_BOUND('',#940,.T.);
#1027=FACE_BOUND('',#941,.T.);
#1028=FACE_BOUND('',#942,.T.);
#1029=FACE_BOUND('',#943,.T.);
#1030=FACE_BOUND('',#944,.T.);
#1031=FACE_BOUND('',#945,.T.);
#1032=FACE_BOUND('',#946,.T.);
#1033=FACE_BOUND('',#947,.T.);
#1034=FACE_BOUND('',#948,.T.);
#1035=FACE_BOUND('',#949,.T.);
#1036=FACE_BOUND('',#950,.T.);
#1037=FACE_BOUND('',#951,.T.);
#1038=FACE_BOUND('',#952,.T.);
#1039=FACE_BOUND('',#953,.T.);
#1040=FACE_BOUND('',#954,.T.);
#1041=FACE_BOUND('',#955,.T.);
#1042=FACE_BOUND('',#956,.T.);
#1043=FACE_BOUND('',#957,.T.);
#1044=FACE_BOUND('',#958,.T.);
#1045=FACE_BOUND('',#959,.T.);
#1046=FACE_BOUND('',#960,.T.);
#1047=FACE_BOUND('',#961,.T.);
#1048=FACE_BOUND('',#962,.T.);
#1049=FACE_BOUND('',#963,.T.);
#1050=FACE_BOUND('',#964,.T.);
#1051=FACE_BOUND('',#965,.T.);
#1052=FACE_BOUND('',#966,.T.);
#1053=FACE_BOUND('',#967,.T.);
#1054=FACE_BOUND('',#968,.T.);
#1055=FACE_BOUND('',#969,.T.);
#1056=FACE_BOUND('',#970,.T.);
#1057=FACE_BOUND('',#971,.T.);
#1058=FACE_BOUND('',#972,.T.);
#1059=FACE_BOUND('',#973,.T.);
#1060=FACE_BOUND('',#974,.T.);
#1061=FACE_BOUND('',#975,.T.);
#1062=FACE_BOUND('',#976,.T.);
#1063=FACE_BOUND('',#977,.T.);
#1064=FACE_BOUND('',#978,.T.);
#1065=FACE_BOUND('',#979,.T.);
#1066=FACE_BOUND('',#980,.T.);
#1067=FACE_BOUND('',#981,.T.);
#1068=PLANE('',#1217);
#1069=PLANE('',#1230);
#1070=PLANE('',#1231);
#1071=PLANE('',#1232);
#1072=PLANE('',#1233);
#1073=PLANE('',#1237);
#1074=PLANE('',#1238);
#1075=PLANE('',#1239);
#1076=PLANE('',#1240);
#1077=PLANE('',#1241);
#1078=PLANE('',#1242);
#1079=PLANE('',#1246);
#1080=PLANE('',#1250);
#1081=PLANE('',#1251);
#1082=PLANE('',#1255);
#1083=PLANE('',#1256);
#1084=PLANE('',#1257);
#1085=PLANE('',#1258);
#1086=PLANE('',#1263);
#1087=PLANE('',#1264);
#1088=PLANE('',#1265);
#1089=PLANE('',#1266);
#1090=PLANE('',#1267);
#1091=PLANE('',#1268);
#1092=PLANE('',#1269);
#1093=PLANE('',#1270);
#1094=PLANE('',#1271);
#1095=PLANE('',#1272);
#1096=PLANE('',#1273);
#1097=PLANE('',#1275);
#1098=PLANE('',#1276);
#1099=PLANE('',#1277);
#1100=PLANE('',#1278);
#1101=PLANE('',#1279);
#1102=PLANE('',#1280);
#1103=PLANE('',#1282);
#1104=PLANE('',#1283);
#1105=PLANE('',#1284);
#1106=PLANE('',#1285);
#1107=PLANE('',#1286);
#1108=PLANE('',#1287);
#1109=PLANE('',#1288);
#1110=PLANE('',#1289);
#1111=PLANE('',#1290);
#1112=PLANE('',#1291);
#1113=PLANE('',#1293);
#1114=PLANE('',#1294);
#1115=PLANE('',#1295);
#1116=PLANE('',#1296);
#1117=PLANE('',#1297);
#1118=PLANE('',#1298);
#1119=PLANE('',#1300);
#1120=PLANE('',#1301);
#1121=PLANE('',#1302);
#1122=PLANE('',#1303);
#1123=PLANE('',#1304);
#1124=PLANE('',#1305);
#1125=PLANE('',#1306);
#1126=PLANE('',#1307);
#1127=PLANE('',#1308);
#1128=PLANE('',#1309);
#1129=PLANE('',#1310);
#1130=ADVANCED_FACE('',(#982),#1068,.T.);
#1131=ADVANCED_FACE('',(#983,#984),#36,.F.);
#1132=ADVANCED_FACE('',(#985,#986),#37,.F.);
#1133=ADVANCED_FACE('',(#987,#988),#38,.F.);
#1134=ADVANCED_FACE('',(#989,#990),#39,.F.);
#1135=ADVANCED_FACE('',(#991),#1069,.F.);
#1136=ADVANCED_FACE('',(#992),#1070,.F.);
#1137=ADVANCED_FACE('',(#993),#1071,.T.);
#1138=ADVANCED_FACE('',(#994,#995,#996,#997,#998),#1072,.T.);
#1139=ADVANCED_FACE('',(#999),#40,.F.);
#1140=ADVANCED_FACE('',(#1000),#1073,.T.);
#1141=ADVANCED_FACE('',(#1001),#1074,.T.);
#1142=ADVANCED_FACE('',(#1002,#1003),#1075,.T.);
#1143=ADVANCED_FACE('',(#1004),#1076,.F.);
#1144=ADVANCED_FACE('',(#1005),#1077,.F.);
#1145=ADVANCED_FACE('',(#1006,#1007),#1078,.T.);
#1146=ADVANCED_FACE('',(#1008),#41,.F.);
#1147=ADVANCED_FACE('',(#1009),#1079,.T.);
#1148=ADVANCED_FACE('',(#1010),#42,.F.);
#1149=ADVANCED_FACE('',(#1011),#1080,.T.);
#1150=ADVANCED_FACE('',(#1012,#1013),#1081,.T.);
#1151=ADVANCED_FACE('',(#1014),#43,.F.);
#1152=ADVANCED_FACE('',(#1015),#1082,.F.);
#1153=ADVANCED_FACE('',(#1016),#1083,.F.);
#1154=ADVANCED_FACE('',(#1017,#1018),#1084,.T.);
#1155=ADVANCED_FACE('',(#1019),#1085,.F.);
#1156=ADVANCED_FACE('',(#1020),#1086,.T.);
#1157=ADVANCED_FACE('',(#1021),#1087,.T.);
#1158=ADVANCED_FACE('',(#1022),#1088,.T.);
#1159=ADVANCED_FACE('',(#1023),#1089,.F.);
#1160=ADVANCED_FACE('',(#1024),#1090,.F.);
#1161=ADVANCED_FACE('',(#1025),#1091,.T.);
#1162=ADVANCED_FACE('',(#1026),#1092,.T.);
#1163=ADVANCED_FACE('',(#1027),#1093,.T.);
#1164=ADVANCED_FACE('',(#1028),#1094,.F.);
#1165=ADVANCED_FACE('',(#1029),#1095,.F.);
#1166=ADVANCED_FACE('',(#1030),#1096,.F.);
#1167=ADVANCED_FACE('',(#1031),#12,.F.);
#1168=ADVANCED_FACE('',(#1032),#1097,.T.);
#1169=ADVANCED_FACE('',(#1033),#1098,.T.);
#1170=ADVANCED_FACE('',(#1034),#1099,.F.);
#1171=ADVANCED_FACE('',(#1035),#1100,.T.);
#1172=ADVANCED_FACE('',(#1036),#1101,.T.);
#1173=ADVANCED_FACE('',(#1037),#1102,.T.);
#1174=ADVANCED_FACE('',(#1038),#13,.F.);
#1175=ADVANCED_FACE('',(#1039),#1103,.T.);
#1176=ADVANCED_FACE('',(#1040),#1104,.T.);
#1177=ADVANCED_FACE('',(#1041),#1105,.T.);
#1178=ADVANCED_FACE('',(#1042),#1106,.T.);
#1179=ADVANCED_FACE('',(#1043),#1107,.T.);
#1180=ADVANCED_FACE('',(#1044),#1108,.T.);
#1181=ADVANCED_FACE('',(#1045),#1109,.F.);
#1182=ADVANCED_FACE('',(#1046),#1110,.T.);
#1183=ADVANCED_FACE('',(#1047),#1111,.F.);
#1184=ADVANCED_FACE('',(#1048),#1112,.F.);
#1185=ADVANCED_FACE('',(#1049),#14,.F.);
#1186=ADVANCED_FACE('',(#1050),#1113,.T.);
#1187=ADVANCED_FACE('',(#1051),#1114,.F.);
#1188=ADVANCED_FACE('',(#1052),#1115,.T.);
#1189=ADVANCED_FACE('',(#1053),#1116,.F.);
#1190=ADVANCED_FACE('',(#1054),#1117,.F.);
#1191=ADVANCED_FACE('',(#1055),#1118,.T.);
#1192=ADVANCED_FACE('',(#1056),#15,.F.);
#1193=ADVANCED_FACE('',(#1057),#1119,.T.);
#1194=ADVANCED_FACE('',(#1058),#1120,.F.);
#1195=ADVANCED_FACE('',(#1059),#1121,.T.);
#1196=ADVANCED_FACE('',(#1060),#1122,.F.);
#1197=ADVANCED_FACE('',(#1061),#1123,.F.);
#1198=ADVANCED_FACE('',(#1062),#1124,.T.);
#1199=ADVANCED_FACE('',(#1063),#1125,.T.);
#1200=ADVANCED_FACE('',(#1064),#1126,.T.);
#1201=ADVANCED_FACE('',(#1065),#1127,.F.);
#1202=ADVANCED_FACE('',(#1066),#1128,.T.);
#1203=ADVANCED_FACE('',(#1067),#1129,.T.);
#1204=CLOSED_SHELL('',(#1130,#1131,#1132,#1133,#1134,#1135,#1136,#1137,
#1138,#1139,#1140,#1141,#1142,#1143,#1144,#1145,#1146,#1147,#1148,#1149,
#1150,#1151,#1152,#1153,#1154,#1155,#1156,#1157,#1158,#1159,#1160,#1161,
#1162,#1163,#1164,#1165,#1166,#1167,#1168,#1169,#1170,#1171,#1172,#1173,
#1174,#1175,#1176,#1177,#1178,#1179,#1180,#1181,#1182,#1183,#1184,#1185,
#1186,#1187,#1188,#1189,#1190,#1191,#1192,#1193,#1194,#1195,#1196,#1197,
#1198,#1199,#1200,#1201,#1202,#1203));
#1205=STYLED_ITEM('',(#1206),#1213);
#1206=PRESENTATION_STYLE_ASSIGNMENT((#1207));
#1207=SURFACE_STYLE_USAGE(.BOTH.,#1208);
#1208=SURFACE_SIDE_STYLE('',(#1209));
#1209=SURFACE_STYLE_FILL_AREA(#1210);
#1210=FILL_AREA_STYLE('',(#1211));
#1211=FILL_AREA_STYLE_COLOUR('',#1212);
#1212=COLOUR_RGB('',0.615686274509804,0.811764705882353,0.929411764705882);
#1213=MANIFOLD_SOLID_BREP('Keyboard_Part1',#1204);
#1214=SHAPE_DEFINITION_REPRESENTATION(#1974,#1215);
#1215=SHAPE_REPRESENTATION('Keyboard_Part1',(#1216),#1969);
#1216=AXIS2_PLACEMENT_3D('',#1641,#1311,#1312);
#1217=AXIS2_PLACEMENT_3D('',#1642,#1313,#1314);
#1218=AXIS2_PLACEMENT_3D('',#1667,#1327,#1328);
#1219=AXIS2_PLACEMENT_3D('',#1668,#1329,#1330);
#1220=AXIS2_PLACEMENT_3D('',#1670,#1331,#1332);
#1221=AXIS2_PLACEMENT_3D('',#1672,#1333,#1334);
#1222=AXIS2_PLACEMENT_3D('',#1673,#1335,#1336);
#1223=AXIS2_PLACEMENT_3D('',#1675,#1337,#1338);
#1224=AXIS2_PLACEMENT_3D('',#1677,#1339,#1340);
#1225=AXIS2_PLACEMENT_3D('',#1678,#1341,#1342);
#1226=AXIS2_PLACEMENT_3D('',#1680,#1343,#1344);
#1227=AXIS2_PLACEMENT_3D('',#1682,#1345,#1346);
#1228=AXIS2_PLACEMENT_3D('',#1683,#1347,#1348);
#1229=AXIS2_PLACEMENT_3D('',#1685,#1349,#1350);
#1230=AXIS2_PLACEMENT_3D('',#1687,#1351,#1352);
#1231=AXIS2_PLACEMENT_3D('',#1696,#1357,#1358);
#1232=AXIS2_PLACEMENT_3D('',#1721,#1371,#1372);
#1233=AXIS2_PLACEMENT_3D('',#1730,#1377,#1378);
#1234=AXIS2_PLACEMENT_3D('',#1735,#1383,#1384);
#1235=AXIS2_PLACEMENT_3D('',#1739,#1386,#1387);
#1236=AXIS2_PLACEMENT_3D('',#1743,#1389,#1390);
#1237=AXIS2_PLACEMENT_3D('',#1744,#1391,#1392);
#1238=AXIS2_PLACEMENT_3D('',#1750,#1396,#1397);
#1239=AXIS2_PLACEMENT_3D('',#1756,#1401,#1402);
#1240=AXIS2_PLACEMENT_3D('',#1758,#1404,#1405);
#1241=AXIS2_PLACEMENT_3D('',#1767,#1410,#1411);
#1242=AXIS2_PLACEMENT_3D('',#1776,#1416,#1417);
#1243=AXIS2_PLACEMENT_3D('',#1778,#1419,#1420);
#1244=AXIS2_PLACEMENT_3D('',#1779,#1421,#1422);
#1245=AXIS2_PLACEMENT_3D('',#1780,#1423,#1424);
#1246=AXIS2_PLACEMENT_3D('',#1781,#1425,#1426);
#1247=AXIS2_PLACEMENT_3D('',#1790,#1431,#1432);
#1248=AXIS2_PLACEMENT_3D('',#1791,#1433,#1434);
#1249=AXIS2_PLACEMENT_3D('',#1795,#1436,#1437);
#1250=AXIS2_PLACEMENT_3D('',#1796,#1438,#1439);
#1251=AXIS2_PLACEMENT_3D('',#1802,#1443,#1444);
#1252=AXIS2_PLACEMENT_3D('',#1804,#1446,#1447);
#1253=AXIS2_PLACEMENT_3D('',#1808,#1449,#1450);
#1254=AXIS2_PLACEMENT_3D('',#1812,#1452,#1453);
#1255=AXIS2_PLACEMENT_3D('',#1813,#1454,#1455);
#1256=AXIS2_PLACEMENT_3D('',#1819,#1459,#1460);
#1257=AXIS2_PLACEMENT_3D('',#1825,#1464,#1465);
#1258=AXIS2_PLACEMENT_3D('',#1827,#1467,#1468);
#1259=AXIS2_PLACEMENT_3D('',#1837,#1473,#1474);
#1260=AXIS2_PLACEMENT_3D('',#1845,#1478,#1479);
#1261=AXIS2_PLACEMENT_3D('',#1857,#1485,#1486);
#1262=AXIS2_PLACEMENT_3D('',#1865,#1490,#1491);
#1263=AXIS2_PLACEMENT_3D('',#1868,#1493,#1494);
#1264=AXIS2_PLACEMENT_3D('',#1870,#1496,#1497);
#1265=AXIS2_PLACEMENT_3D('',#1873,#1500,#1501);
#1266=AXIS2_PLACEMENT_3D('',#1875,#1503,#1504);
#1267=AXIS2_PLACEMENT_3D('',#1877,#1506,#1507);
#1268=AXIS2_PLACEMENT_3D('',#1879,#1509,#1510);
#1269=AXIS2_PLACEMENT_3D('',#1882,#1513,#1514);
#1270=AXIS2_PLACEMENT_3D('',#1884,#1516,#1517);
#1271=AXIS2_PLACEMENT_3D('',#1886,#1519,#1520);
#1272=AXIS2_PLACEMENT_3D('',#1888,#1522,#1523);
#1273=AXIS2_PLACEMENT_3D('',#1890,#1525,#1526);
#1274=AXIS2_PLACEMENT_3D('',#1892,#1528,#1529);
#1275=AXIS2_PLACEMENT_3D('',#1894,#1531,#1532);
#1276=AXIS2_PLACEMENT_3D('',#1897,#1535,#1536);
#1277=AXIS2_PLACEMENT_3D('',#1899,#1538,#1539);
#1278=AXIS2_PLACEMENT_3D('',#1901,#1541,#1542);
#1279=AXIS2_PLACEMENT_3D('',#1903,#1544,#1545);
#1280=AXIS2_PLACEMENT_3D('',#1905,#1547,#1548);
#1281=AXIS2_PLACEMENT_3D('',#1907,#1550,#1551);
#1282=AXIS2_PLACEMENT_3D('',#1909,#1553,#1554);
#1283=AXIS2_PLACEMENT_3D('',#1911,#1556,#1557);
#1284=AXIS2_PLACEMENT_3D('',#1913,#1559,#1560);
#1285=AXIS2_PLACEMENT_3D('',#1915,#1562,#1563);
#1286=AXIS2_PLACEMENT_3D('',#1917,#1565,#1566);
#1287=AXIS2_PLACEMENT_3D('',#1920,#1569,#1570);
#1288=AXIS2_PLACEMENT_3D('',#1922,#1572,#1573);
#1289=AXIS2_PLACEMENT_3D('',#1924,#1575,#1576);
#1290=AXIS2_PLACEMENT_3D('',#1926,#1578,#1579);
#1291=AXIS2_PLACEMENT_3D('',#1928,#1581,#1582);
#1292=AXIS2_PLACEMENT_3D('',#1930,#1584,#1585);
#1293=AXIS2_PLACEMENT_3D('',#1932,#1587,#1588);
#1294=AXIS2_PLACEMENT_3D('',#1935,#1591,#1592);
#1295=AXIS2_PLACEMENT_3D('',#1937,#1594,#1595);
#1296=AXIS2_PLACEMENT_3D('',#1939,#1597,#1598);
#1297=AXIS2_PLACEMENT_3D('',#1941,#1600,#1601);
#1298=AXIS2_PLACEMENT_3D('',#1943,#1603,#1604);
#1299=AXIS2_PLACEMENT_3D('',#1945,#1606,#1607);
#1300=AXIS2_PLACEMENT_3D('',#1947,#1609,#1610);
#1301=AXIS2_PLACEMENT_3D('',#1949,#1612,#1613);
#1302=AXIS2_PLACEMENT_3D('',#1951,#1615,#1616);
#1303=AXIS2_PLACEMENT_3D('',#1953,#1618,#1619);
#1304=AXIS2_PLACEMENT_3D('',#1955,#1621,#1622);
#1305=AXIS2_PLACEMENT_3D('',#1957,#1624,#1625);
#1306=AXIS2_PLACEMENT_3D('',#1959,#1627,#1628);
#1307=AXIS2_PLACEMENT_3D('',#1961,#1630,#1631);
#1308=AXIS2_PLACEMENT_3D('',#1963,#1633,#1634);
#1309=AXIS2_PLACEMENT_3D('',#1965,#1636,#1637);
#1310=AXIS2_PLACEMENT_3D('',#1967,#1639,#1640);
#1311=DIRECTION('',(0.,0.,1.));
#1312=DIRECTION('',(1.,0.,0.));
#1313=DIRECTION('',(1.,1.7347234759768E-16,0.));
#1314=DIRECTION('',(-1.7347234759768E-16,1.,0.));
#1315=DIRECTION('',(-1.7347234759768E-16,1.,0.));
#1316=DIRECTION('',(0.,0.,1.));
#1317=DIRECTION('',(1.7347234759768E-16,-1.,0.));
#1318=DIRECTION('',(0.,0.,-1.));
#1319=DIRECTION('',(-1.7347234759768E-16,1.,0.));
#1320=DIRECTION('',(0.,0.,1.));
#1321=DIRECTION('',(-1.7347234759768E-16,1.,0.));
#1322=DIRECTION('',(0.,0.,-1.));
#1323=DIRECTION('',(-1.7347234759768E-16,1.,0.));
#1324=DIRECTION('',(0.,0.,1.));
#1325=DIRECTION('',(-1.7347234759768E-16,1.,0.));
#1326=DIRECTION('',(0.,0.,-1.));
#1327=DIRECTION('',(0.,0.,-1.));
#1328=DIRECTION('',(-1.,0.,0.));
#1329=DIRECTION('',(0.,0.,-1.));
#1330=DIRECTION('',(1.,0.,0.));
#1331=DIRECTION('',(0.,0.,-1.));
#1332=DIRECTION('',(1.,0.,0.));
#1333=DIRECTION('',(0.,0.,-1.));
#1334=DIRECTION('',(-1.,0.,0.));
#1335=DIRECTION('',(0.,0.,1.));
#1336=DIRECTION('',(1.,0.,0.));
#1337=DIRECTION('',(0.,0.,1.));
#1338=DIRECTION('',(1.,0.,0.));
#1339=DIRECTION('',(0.,0.,-1.));
#1340=DIRECTION('',(-1.,0.,0.));
#1341=DIRECTION('',(0.,0.,-1.));
#1342=DIRECTION('',(1.,0.,0.));
#1343=DIRECTION('',(0.,0.,-1.));
#1344=DIRECTION('',(1.,0.,0.));
#1345=DIRECTION('',(0.,0.,-1.));
#1346=DIRECTION('',(-1.,0.,0.));
#1347=DIRECTION('',(0.,0.,1.));
#1348=DIRECTION('',(1.,0.,0.));
#1349=DIRECTION('',(0.,0.,1.));
#1350=DIRECTION('',(1.,0.,0.));
#1351=DIRECTION('',(0.,-1.,0.));
#1352=DIRECTION('',(0.,0.,-1.));
#1353=DIRECTION('',(-1.,0.,0.));
#1354=DIRECTION('',(0.,0.,1.));
#1355=DIRECTION('',(-1.,0.,0.));
#1356=DIRECTION('',(0.,0.,-1.));
#1357=DIRECTION('',(1.,1.7347234759768E-16,0.));
#1358=DIRECTION('',(-1.7347234759768E-16,1.,0.));
#1359=DIRECTION('',(1.7347234759768E-16,-1.,0.));
#1360=DIRECTION('',(0.,0.,-1.));
#1361=DIRECTION('',(1.7347234759768E-16,-1.,0.));
#1362=DIRECTION('',(0.,0.,1.));
#1363=DIRECTION('',(1.7347234759768E-16,-1.,0.));
#1364=DIRECTION('',(0.,0.,-1.));
#1365=DIRECTION('',(1.7347234759768E-16,-1.,0.));
#1366=DIRECTION('',(0.,0.,1.));
#1367=DIRECTION('',(1.7347234759768E-16,-1.,0.));
#1368=DIRECTION('',(0.,0.,-1.));
#1369=DIRECTION('',(1.7347234759768E-16,-1.,0.));
#1370=DIRECTION('',(0.,0.,1.));
#1371=DIRECTION('',(0.,-1.,0.));
#1372=DIRECTION('',(0.,0.,-1.));
#1373=DIRECTION('',(-1.,0.,0.));
#1374=DIRECTION('',(0.,0.,-1.));
#1375=DIRECTION('',(1.,0.,0.));
#1376=DIRECTION('',(0.,0.,1.));
#1377=DIRECTION('',(0.,0.,1.));
#1378=DIRECTION('',(1.,0.,0.));
#1379=DIRECTION('',(0.707106781186551,-0.707106781186545,0.));
#1380=DIRECTION('',(-0.707106781186551,-0.707106781186545,0.));
#1381=DIRECTION('',(-0.707106781186551,0.707106781186545,0.));
#1382=DIRECTION('',(0.707106781186545,0.707106781186551,0.));
#1383=DIRECTION('',(0.,0.,-1.));
#1384=DIRECTION('',(-1.,0.,0.));
#1385=DIRECTION('',(0.,0.,-1.));
#1386=DIRECTION('',(0.,0.,1.));
#1387=DIRECTION('',(1.,0.,0.));
#1388=DIRECTION('',(0.,0.,-1.));
#1389=DIRECTION('',(0.,0.,1.));
#1390=DIRECTION('',(-1.,0.,0.));
#1391=DIRECTION('',(0.,1.,0.));
#1392=DIRECTION('',(0.,0.,1.));
#1393=DIRECTION('',(-1.,0.,0.));
#1394=DIRECTION('',(0.,0.,1.));
#1395=DIRECTION('',(1.,0.,0.));
#1396=DIRECTION('',(0.,-1.,0.));
#1397=DIRECTION('',(0.,0.,-1.));
#1398=DIRECTION('',(0.,0.,-1.));
#1399=DIRECTION('',(1.,0.,0.));
#1400=DIRECTION('',(-1.,0.,0.));
#1401=DIRECTION('',(0.,0.,-1.));
#1402=DIRECTION('',(1.,0.,0.));
#1403=DIRECTION('',(-1.7347234759768E-16,1.,0.));
#1404=DIRECTION('',(0.,1.,0.));
#1405=DIRECTION('',(0.,0.,1.));
#1406=DIRECTION('',(0.,0.,-1.));
#1407=DIRECTION('',(1.,0.,0.));
#1408=DIRECTION('',(0.,0.,-1.));
#1409=DIRECTION('',(1.,0.,0.));
#1410=DIRECTION('',(0.,-1.,0.));
#1411=DIRECTION('',(0.,0.,-1.));
#1412=DIRECTION('',(0.,0.,-1.));
#1413=DIRECTION('',(-1.,0.,0.));
#1414=DIRECTION('',(0.,0.,1.));
#1415=DIRECTION('',(-1.,0.,0.));
#1416=DIRECTION('',(0.,0.,-1.));
#1417=DIRECTION('',(1.,0.,0.));
#1418=DIRECTION('',(-1.7347234759768E-16,1.,0.));
#1419=DIRECTION('',(0.,0.,-1.));
#1420=DIRECTION('',(-1.,0.,0.));
#1421=DIRECTION('',(0.,0.,-1.));
#1422=DIRECTION('',(-1.,0.,0.));
#1423=DIRECTION('',(0.,0.,1.));
#1424=DIRECTION('',(1.,0.,0.));
#1425=DIRECTION('',(0.,1.,0.));
#1426=DIRECTION('',(0.,0.,1.));
#1427=DIRECTION('',(0.,0.,-1.));
#1428=DIRECTION('',(-1.,0.,0.));
#1429=DIRECTION('',(0.,0.,-1.));
#1430=DIRECTION('',(1.,0.,0.));
#1431=DIRECTION('',(0.,0.,-1.));
#1432=DIRECTION('',(-1.,0.,0.));
#1433=DIRECTION('',(0.,0.,1.));
#1434=DIRECTION('',(1.,0.,0.));
#1435=DIRECTION('',(0.,0.,-1.));
#1436=DIRECTION('',(0.,0.,1.));
#1437=DIRECTION('',(-1.,0.,0.));
#1438=DIRECTION('',(0.,-1.,0.));
#1439=DIRECTION('',(0.,0.,-1.));
#1440=DIRECTION('',(1.,0.,0.));
#1441=DIRECTION('',(0.,0.,1.));
#1442=DIRECTION('',(-1.,0.,0.));
#1443=DIRECTION('',(0.,0.,-1.));
#1444=DIRECTION('',(1.,0.,0.));
#1445=DIRECTION('',(1.7347234759768E-16,-1.,0.));
#1446=DIRECTION('',(0.,0.,-1.));
#1447=DIRECTION('',(-1.,0.,0.));
#1448=DIRECTION('',(0.,0.,-1.));
#1449=DIRECTION('',(0.,0.,1.));
#1450=DIRECTION('',(1.,0.,0.));
#1451=DIRECTION('',(0.,0.,-1.));
#1452=DIRECTION('',(0.,0.,-1.));
#1453=DIRECTION('',(-1.,0.,0.));
#1454=DIRECTION('',(0.,1.,0.));
#1455=DIRECTION('',(0.,0.,1.));
#1456=DIRECTION('',(1.,0.,0.));
#1457=DIRECTION('',(0.,0.,1.));
#1458=DIRECTION('',(1.,0.,0.));
#1459=DIRECTION('',(0.,-1.,0.));
#1460=DIRECTION('',(0.,0.,-1.));
#1461=DIRECTION('',(0.,0.,-1.));
#1462=DIRECTION('',(-1.,0.,0.));
#1463=DIRECTION('',(-1.,0.,0.));
#1464=DIRECTION('',(0.,0.,-1.));
#1465=DIRECTION('',(1.,0.,0.));
#1466=DIRECTION('',(1.7347234759768E-16,-1.,0.));
#1467=DIRECTION('',(0.,0.,1.));
#1468=DIRECTION('',(1.,0.,0.));
#1469=DIRECTION('',(1.7347234759768E-16,-1.,0.));
#1470=DIRECTION('',(-1.,0.,0.));
#1471=DIRECTION('',(-1.7347234759768E-16,1.,0.));
#1472=DIRECTION('',(1.,0.,0.));
#1473=DIRECTION('',(0.,0.,1.));
#1474=DIRECTION('',(1.,0.,0.));
#1475=DIRECTION('',(-1.,0.,0.));
#1476=DIRECTION('',(-1.7347234759768E-16,1.,0.));
#1477=DIRECTION('',(1.,0.,0.));
#1478=DIRECTION('',(0.,0.,1.));
#1479=DIRECTION('',(1.,0.,0.));
#1480=DIRECTION('',(-1.,0.,0.));
#1481=DIRECTION('',(-1.7347234759768E-16,1.,0.));
#1482=DIRECTION('',(1.,0.,0.));
#1483=DIRECTION('',(1.7347234759768E-16,-1.,0.));
#1484=DIRECTION('',(-1.,0.,0.));
#1485=DIRECTION('',(0.,0.,1.));
#1486=DIRECTION('',(1.,0.,0.));
#1487=DIRECTION('',(1.,0.,0.));
#1488=DIRECTION('',(1.7347234759768E-16,-1.,0.));
#1489=DIRECTION('',(-1.,0.,0.));
#1490=DIRECTION('',(0.,0.,1.));
#1491=DIRECTION('',(1.,0.,0.));
#1492=DIRECTION('',(1.,0.,0.));
#1493=DIRECTION('',(0.707106781186545,0.707106781186551,0.));
#1494=DIRECTION('',(0.,0.,1.));
#1495=DIRECTION('',(0.707106781186551,-0.707106781186544,-1.19609907444043E-16));
#1496=DIRECTION('',(0.577350269189623,0.577350269189629,-0.577350269189625));
#1497=DIRECTION('',(0.,0.707106781186546,0.70710678118655));
#1498=DIRECTION('',(-1.23903709934807E-16,-0.707106781186546,-0.70710678118655));
#1499=DIRECTION('',(-0.707106781186548,-1.4699775904033E-15,-0.707106781186547));
#1500=DIRECTION('',(0.707106781186547,1.2266347333467E-16,-0.707106781186548));
#1501=DIRECTION('',(-1.7347234759768E-16,1.,0.));
#1502=DIRECTION('',(0.707106781186548,1.09202503292984E-14,0.707106781186547));
#1503=DIRECTION('',(0.,-0.707106781186549,0.707106781186546));
#1504=DIRECTION('',(-1.,0.,0.));
#1505=DIRECTION('',(-6.83925587035486E-17,0.707106781186546,0.707106781186549));
#1506=DIRECTION('',(0.707106781186551,-0.707106781186545,0.));
#1507=DIRECTION('',(0.,0.,-1.));
#1508=DIRECTION('',(-0.707106781186545,-0.707106781186551,0.));
#1509=DIRECTION('',(0.57735026918963,-0.577350269189625,-0.577350269189622));
#1510=DIRECTION('',(0.707106781186545,0.707106781186551,0.));
#1511=DIRECTION('',(6.83925587035486E-17,-0.707106781186546,0.707106781186549));
#1512=DIRECTION('',(-0.707106781186545,-0.707106781186551,0.));
#1513=DIRECTION('',(-0.57735026918963,0.577350269189625,-0.577350269189622));
#1514=DIRECTION('',(-0.707106781186545,-0.707106781186551,0.));
#1515=DIRECTION('',(0.707106781186549,1.35568869390041E-14,-0.707106781186546));
#1516=DIRECTION('',(0.707106781186551,-0.707106781186545,0.));
#1517=DIRECTION('',(0.,0.,1.));
#1518=DIRECTION('',(0.577350269189624,0.577350269189629,0.577350269189624));
#1519=DIRECTION('',(0.,0.707106781186549,0.707106781186546));
#1520=DIRECTION('',(1.,0.,0.));
#1521=DIRECTION('',(0.,-0.707106781186546,0.707106781186549));
#1522=DIRECTION('',(0.707106781186546,1.2266347333467E-16,0.707106781186549));
#1523=DIRECTION('',(1.7347234759768E-16,-1.,0.));
#1524=DIRECTION('',(-0.70710678118655,1.24992574614931E-15,0.707106781186546));
#1525=DIRECTION('',(-0.707106781186547,-1.2266347333467E-16,0.707106781186548));
#1526=DIRECTION('',(1.7347234759768E-16,-1.,0.));
#1527=DIRECTION('',(0.577350269189626,-0.577350269189626,0.577350269189625));
#1528=DIRECTION('',(0.,0.,-1.));
#1529=DIRECTION('',(-1.,0.,0.));
#1530=DIRECTION('',(0.,0.707106781186546,0.707106781186549));
#1531=DIRECTION('',(-0.577350269189623,-0.577350269189629,-0.577350269189625));
#1532=DIRECTION('',(0.,0.707106781186546,-0.70710678118655));
#1533=DIRECTION('',(-0.707106781186551,0.707106781186544,-1.19609907444043E-16));
#1534=DIRECTION('',(-1.23903709934807E-16,-0.707106781186546,0.70710678118655));
#1535=DIRECTION('',(0.707106781186548,0.707106781186548,0.));
#1536=DIRECTION('',(0.,0.,1.));
#1537=DIRECTION('',(0.707106781186548,-0.707106781186548,0.));
#1538=DIRECTION('',(0.,-0.707106781186549,0.707106781186546));
#1539=DIRECTION('',(-1.,0.,0.));
#1540=DIRECTION('',(-1.92296268638356E-16,-0.707106781186546,-0.70710678118655));
#1541=DIRECTION('',(0.,-0.707106781186549,-0.707106781186546));
#1542=DIRECTION('',(1.,0.,0.));
#1543=DIRECTION('',(0.,0.707106781186546,-0.707106781186549));
#1544=DIRECTION('',(-0.707106781186545,-0.707106781186551,0.));
#1545=DIRECTION('',(0.,0.,1.));
#1546=DIRECTION('',(-0.577350269189627,0.577350269189622,0.577350269189628));
#1547=DIRECTION('',(0.577350269189627,0.577350269189627,-0.577350269189624));
#1548=DIRECTION('',(-0.707106781186548,0.707106781186548,0.));
#1549=DIRECTION('',(-0.707106781186548,4.64286602293618E-15,-0.707106781186547));
#1550=DIRECTION('',(0.,0.,-1.));
#1551=DIRECTION('',(-1.,0.,0.));
#1552=DIRECTION('',(0.,-0.707106781186546,-0.707106781186549));
#1553=DIRECTION('',(-0.707106781186548,-1.2266347333467E-16,-0.707106781186547));
#1554=DIRECTION('',(-1.7347234759768E-16,1.,0.));
#1555=DIRECTION('',(-0.577350269189625,-0.577350269189625,0.577350269189627));
#1556=DIRECTION('',(0.707106781186547,1.2266347333467E-16,-0.707106781186548));
#1557=DIRECTION('',(-1.7347234759768E-16,1.,0.));
#1558=DIRECTION('',(0.707106781186548,4.67062159855178E-15,0.707106781186547));
#1559=DIRECTION('',(0.,0.707106781186549,-0.707106781186546));
#1560=DIRECTION('',(-1.,0.,0.));
#1561=DIRECTION('',(6.83925587035492E-17,-0.707106781186546,-0.70710678118655));
#1562=DIRECTION('',(-0.707106781186548,0.707106781186548,0.));
#1563=DIRECTION('',(0.,0.,1.));
#1564=DIRECTION('',(0.707106781186548,0.707106781186548,1.19609907444044E-16));
#1565=DIRECTION('',(0.577350269189625,-0.57735026918963,-0.577350269189622));
#1566=DIRECTION('',(0.707106781186551,0.707106781186545,0.));
#1567=DIRECTION('',(5.92054734470114E-15,0.707106781186546,-0.70710678118655));
#1568=DIRECTION('',(0.707106781186551,0.707106781186545,0.));
#1569=DIRECTION('',(-0.577350269189627,0.577350269189627,-0.577350269189624));
#1570=DIRECTION('',(-0.707106781186548,-0.707106781186548,0.));
#1571=DIRECTION('',(0.707106781186549,7.30725820825753E-15,-0.707106781186546));
#1572=DIRECTION('',(-0.707106781186545,0.707106781186551,0.));
#1573=DIRECTION('',(0.,0.,-1.));
#1574=DIRECTION('',(-0.577350269189629,-0.577350269189624,-0.577350269189624));
#1575=DIRECTION('',(0.,-0.707106781186549,-0.707106781186546));
#1576=DIRECTION('',(1.,0.,0.));
#1577=DIRECTION('',(0.,-0.707106781186546,0.707106781186549));
#1578=DIRECTION('',(0.707106781186546,1.2266347333467E-16,0.707106781186549));
#1579=DIRECTION('',(1.7347234759768E-16,-1.,0.));
#1580=DIRECTION('',(-0.707106781186549,-4.90355485027808E-15,0.707106781186546));
#1581=DIRECTION('',(-0.707106781186544,-1.22663473334669E-16,0.707106781186551));
#1582=DIRECTION('',(1.7347234759768E-16,-1.,0.));
#1583=DIRECTION('',(-0.577350269189629,0.577350269189624,-0.577350269189623));
#1584=DIRECTION('',(0.,0.,-1.));
#1585=DIRECTION('',(-1.,0.,0.));
#1586=DIRECTION('',(0.,0.707106781186546,0.707106781186549));
#1587=DIRECTION('',(-0.577350269189622,-0.577350269189627,-0.577350269189629));
#1588=DIRECTION('',(0.,0.707106781186549,-0.707106781186546));
#1589=DIRECTION('',(0.707106781186551,-0.707106781186545,9.18543318284138E-17));
#1590=DIRECTION('',(6.15348059642745E-15,0.707106781186546,-0.70710678118655));
#1591=DIRECTION('',(-0.707106781186545,-0.707106781186551,0.));
#1592=DIRECTION('',(0.,0.,-1.));
#1593=DIRECTION('',(-0.707106781186551,0.707106781186544,1.19609907444043E-16));
#1594=DIRECTION('',(0.,0.707106781186549,-0.707106781186546));
#1595=DIRECTION('',(-1.,0.,0.));
#1596=DIRECTION('',(1.23903709934807E-16,0.707106781186546,0.70710678118655));
#1597=DIRECTION('',(0.,0.707106781186549,0.707106781186546));
#1598=DIRECTION('',(1.,0.,0.));
#1599=DIRECTION('',(0.,0.707106781186546,-0.707106781186549));
#1600=DIRECTION('',(0.707106781186545,0.707106781186551,0.));
#1601=DIRECTION('',(0.,0.,1.));
#1602=DIRECTION('',(-0.577350269189629,0.577350269189624,0.577350269189625));
#1603=DIRECTION('',(0.577350269189623,0.577350269189629,-0.577350269189625));
#1604=DIRECTION('',(0.,0.707106781186546,0.70710678118655));
#1605=DIRECTION('',(-0.707106781186548,-1.4699775904033E-15,-0.707106781186547));
#1606=DIRECTION('',(0.,0.,-1.));
#1607=DIRECTION('',(-1.,0.,0.));
#1608=DIRECTION('',(0.,-0.707106781186546,-0.707106781186549));
#1609=DIRECTION('',(-0.707106781186545,-1.22663473334669E-16,-0.70710678118655));
#1610=DIRECTION('',(1.7347234759768E-16,-1.,0.));
#1611=DIRECTION('',(-0.577350269189629,-0.577350269189624,0.577350269189625));
#1612=DIRECTION('',(-0.707106781186545,0.707106781186551,0.));
#1613=DIRECTION('',(0.,0.,-1.));
#1614=DIRECTION('',(0.707106781186551,0.707106781186544,-1.19609907444043E-16));
#1615=DIRECTION('',(0.707106781186547,1.2266347333467E-16,-0.707106781186548));
#1616=DIRECTION('',(-1.7347234759768E-16,1.,0.));
#1617=DIRECTION('',(0.707106781186548,-1.46997759040329E-15,0.707106781186547));
#1618=DIRECTION('',(0.,-0.707106781186549,0.707106781186546));
#1619=DIRECTION('',(-1.,0.,0.));
#1620=DIRECTION('',(-1.23903709934807E-16,0.707106781186546,0.70710678118655));
#1621=DIRECTION('',(0.707106781186545,-0.707106781186551,0.));
#1622=DIRECTION('',(0.,0.,-1.));
#1623=DIRECTION('',(-0.707106781186551,-0.707106781186544,-1.19609907444043E-16));
#1624=DIRECTION('',(0.577350269189623,-0.577350269189629,-0.577350269189625));
#1625=DIRECTION('',(0.,0.707106781186546,-0.70710678118655));
#1626=DIRECTION('',(-1.23903709934807E-16,0.707106781186546,-0.70710678118655));
#1627=DIRECTION('',(-0.577350269189623,0.577350269189629,-0.577350269189625));
#1628=DIRECTION('',(0.,0.707106781186546,0.70710678118655));
#1629=DIRECTION('',(0.707106781186549,1.24992574614931E-15,-0.707106781186546));
#1630=DIRECTION('',(0.,-0.707106781186549,-0.707106781186546));
#1631=DIRECTION('',(1.,0.,0.));
#1632=DIRECTION('',(-1.23903709934807E-16,-0.707106781186546,0.70710678118655));
#1633=DIRECTION('',(0.707106781186546,1.2266347333467E-16,0.707106781186549));
#1634=DIRECTION('',(1.7347234759768E-16,-1.,0.));
#1635=DIRECTION('',(-0.70710678118655,1.24992574614931E-15,0.707106781186546));
#1636=DIRECTION('',(-0.577350269189623,-0.577350269189629,-0.577350269189625));
#1637=DIRECTION('',(0.,0.707106781186546,-0.70710678118655));
#1638=DIRECTION('',(-0.707106781186551,0.707106781186544,-1.19609907444043E-16));
#1639=DIRECTION('',(-0.707106781186545,-0.707106781186551,0.));
#1640=DIRECTION('',(0.,0.,1.));
#1641=CARTESIAN_POINT('',(0.,0.,0.));
#1642=CARTESIAN_POINT('',(0.02,0.,0.006));
#1643=CARTESIAN_POINT('',(0.02,0.04,-0.0011));
#1644=CARTESIAN_POINT('',(0.02,0.0354,-0.0011));
#1645=CARTESIAN_POINT('',(0.02,0.0396,-0.0011));
#1646=CARTESIAN_POINT('',(0.02,0.0396,0.0068));
#1647=CARTESIAN_POINT('',(0.02,0.0396,0.0068));
#1648=CARTESIAN_POINT('',(0.02,0.,0.0068));
#1649=CARTESIAN_POINT('',(0.02,-0.0396,0.0068));
#1650=CARTESIAN_POINT('',(0.02,-0.0396,0.006));
#1651=CARTESIAN_POINT('',(0.02,-0.0396,-0.0011));
#1652=CARTESIAN_POINT('',(0.02,-0.035,-0.0011));
#1653=CARTESIAN_POINT('',(0.02,-0.0354,-0.0011));
#1654=CARTESIAN_POINT('',(0.02,-0.0354,0.006));
#1655=CARTESIAN_POINT('',(0.02,-0.0354,0.0034));
#1656=CARTESIAN_POINT('',(0.02,0.,0.0034));
#1657=CARTESIAN_POINT('',(0.02,-0.0286,0.0034));
#1658=CARTESIAN_POINT('',(0.02,-0.0286,0.006));
#1659=CARTESIAN_POINT('',(0.02,-0.0286,-0.0011));
#1660=CARTESIAN_POINT('',(0.02,0.029,-0.0011));
#1661=CARTESIAN_POINT('',(0.02,0.0286,-0.0011));
#1662=CARTESIAN_POINT('',(0.02,0.0286,0.003));
#1663=CARTESIAN_POINT('',(0.02,0.0286,0.0034));
#1664=CARTESIAN_POINT('',(0.02,0.,0.0034));
#1665=CARTESIAN_POINT('',(0.02,0.0354,0.0034));
#1666=CARTESIAN_POINT('',(0.02,0.0354,-0.0015));
#1667=CARTESIAN_POINT('',(0.017,0.032,0.006));
#1668=CARTESIAN_POINT('',(0.017,0.032,0.0068));
#1669=CARTESIAN_POINT('',(0.01865,0.032,0.0068));
#1670=CARTESIAN_POINT('',(0.017,0.032,0.003));
#1671=CARTESIAN_POINT('',(0.01865,0.032,0.003));
#1672=CARTESIAN_POINT('',(0.017,-0.032,0.006));
#1673=CARTESIAN_POINT('',(0.017,-0.032,0.0068));
#1674=CARTESIAN_POINT('',(0.01865,-0.032,0.0068));
#1675=CARTESIAN_POINT('',(0.017,-0.032,0.003));
#1676=CARTESIAN_POINT('',(0.01865,-0.032,0.003));
#1677=CARTESIAN_POINT('',(-0.017,-0.032,0.006));
#1678=CARTESIAN_POINT('',(-0.017,-0.032,0.0068));
#1679=CARTESIAN_POINT('',(-0.01535,-0.032,0.0068));
#1680=CARTESIAN_POINT('',(-0.017,-0.032,0.003));
#1681=CARTESIAN_POINT('',(-0.01535,-0.032,0.003));
#1682=CARTESIAN_POINT('',(-0.017,0.032,0.006));
#1683=CARTESIAN_POINT('',(-0.017,0.032,0.0068));
#1684=CARTESIAN_POINT('',(-0.01535,0.032,0.0068));
#1685=CARTESIAN_POINT('',(-0.017,0.032,0.003));
#1686=CARTESIAN_POINT('',(-0.01535,0.032,0.003));
#1687=CARTESIAN_POINT('',(-3.46944695195361E-18,0.04,0.006));
#1688=CARTESIAN_POINT('',(-3.46944695195361E-18,0.04,-0.0011));
#1689=CARTESIAN_POINT('',(0.0196,0.04,-0.0011));
#1690=CARTESIAN_POINT('',(-0.0196,0.04,-0.0011));
#1691=CARTESIAN_POINT('',(-0.0196,0.04,0.006));
#1692=CARTESIAN_POINT('',(-0.0196,0.04,0.0068));
#1693=CARTESIAN_POINT('',(-3.46944695195361E-18,0.04,0.0068));
#1694=CARTESIAN_POINT('',(0.0196,0.04,0.0068));
#1695=CARTESIAN_POINT('',(0.0196,0.04,-0.0015));
#1696=CARTESIAN_POINT('',(-0.02,0.,0.006));
#1697=CARTESIAN_POINT('',(-0.02,0.,0.0068));
#1698=CARTESIAN_POINT('',(-0.02,0.0396,0.0068));
#1699=CARTESIAN_POINT('',(-0.02,-0.0396,0.0068));
#1700=CARTESIAN_POINT('',(-0.02,0.0396,0.006));
#1701=CARTESIAN_POINT('',(-0.02,0.0396,-0.0011));
#1702=CARTESIAN_POINT('',(-0.02,0.,-0.0011));
#1703=CARTESIAN_POINT('',(-0.02,0.0354,-0.0011));
#1704=CARTESIAN_POINT('',(-0.02,0.0354,0.003));
#1705=CARTESIAN_POINT('',(-0.02,0.0354,0.0034));
#1706=CARTESIAN_POINT('',(-0.02,0.029,0.0034));
#1707=CARTESIAN_POINT('',(-0.02,0.0286,0.0034));
#1708=CARTESIAN_POINT('',(-0.02,0.0286,-0.0015));
#1709=CARTESIAN_POINT('',(-0.02,0.0286,-0.0011));
#1710=CARTESIAN_POINT('',(-0.02,0.,-0.0011));
#1711=CARTESIAN_POINT('',(-0.02,-0.0286,-0.0011));
#1712=CARTESIAN_POINT('',(-0.02,-0.0286,0.006));
#1713=CARTESIAN_POINT('',(-0.02,-0.0286,0.0034));
#1714=CARTESIAN_POINT('',(-0.02,-0.035,0.0034));
#1715=CARTESIAN_POINT('',(-0.02,-0.0354,0.0034));
#1716=CARTESIAN_POINT('',(-0.02,-0.0354,0.006));
#1717=CARTESIAN_POINT('',(-0.02,-0.0354,-0.0011));
#1718=CARTESIAN_POINT('',(-0.02,0.,-0.0011));
#1719=CARTESIAN_POINT('',(-0.02,-0.0396,-0.0011));
#1720=CARTESIAN_POINT('',(-0.02,-0.0396,0.0068));
#1721=CARTESIAN_POINT('',(6.93889390390723E-18,-0.04,0.006));
#1722=CARTESIAN_POINT('',(6.93889390390723E-18,-0.04,0.0068));
#1723=CARTESIAN_POINT('',(0.0196,-0.04,0.0068));
#1724=CARTESIAN_POINT('',(-0.0196,-0.04,0.0068));
#1725=CARTESIAN_POINT('',(-0.0196,-0.04,-0.0015));
#1726=CARTESIAN_POINT('',(-0.0196,-0.04,-0.0011));
#1727=CARTESIAN_POINT('',(0.02,-0.04,-0.0011));
#1728=CARTESIAN_POINT('',(0.0196,-0.04,-0.0011));
#1729=CARTESIAN_POINT('',(0.0196,-0.04,0.006));
#1730=CARTESIAN_POINT('',(-0.00389941573143005,0.000348424091935154,0.0068));
#1731=CARTESIAN_POINT('',(-0.0319239199116826,-0.0276760800883175,0.0068));
#1732=CARTESIAN_POINT('',(0.0280245041802525,-0.0315754958197476,0.0068));
#1733=CARTESIAN_POINT('',(0.0276760800883173,0.0319239199116828,0.0068));
#1734=CARTESIAN_POINT('',(-0.0315754958197475,0.0280245041802524,0.0068));
#1735=CARTESIAN_POINT('',(-0.017,0.032,0.003));
#1736=CARTESIAN_POINT('',(-0.017,0.035,0.003));
#1737=CARTESIAN_POINT('',(-0.017,0.035,0.003));
#1738=CARTESIAN_POINT('',(-0.017,0.035,-0.0011));
#1739=CARTESIAN_POINT('',(-0.017,0.032,-0.0011));
#1740=CARTESIAN_POINT('',(-0.017,0.029,-0.0011));
#1741=CARTESIAN_POINT('',(-0.017,0.029,0.003));
#1742=CARTESIAN_POINT('',(-0.017,0.029,0.003));
#1743=CARTESIAN_POINT('',(-0.017,0.032,0.003));
#1744=CARTESIAN_POINT('',(-0.0207618172788443,0.029,0.003));
#1745=CARTESIAN_POINT('',(-0.02,0.029,-0.0011));
#1746=CARTESIAN_POINT('',(-0.0196,0.029,-0.0011));
#1747=CARTESIAN_POINT('',(-0.0196,0.029,0.003));
#1748=CARTESIAN_POINT('',(-0.0196,0.029,0.003));
#1749=CARTESIAN_POINT('',(-0.0207618172788443,0.029,0.003));
#1750=CARTESIAN_POINT('',(-0.0207618172788443,0.035,0.003));
#1751=CARTESIAN_POINT('',(-0.0196,0.035,-0.0015));
#1752=CARTESIAN_POINT('',(-0.0196,0.035,0.003));
#1753=CARTESIAN_POINT('',(-0.0196,0.035,-0.0011));
#1754=CARTESIAN_POINT('',(-0.017,0.035,-0.0011));
#1755=CARTESIAN_POINT('',(-0.0207618172788443,0.035,0.003));
#1756=CARTESIAN_POINT('',(-0.00389914023639537,-0.00390636689960956,0.003));
#1757=CARTESIAN_POINT('',(-0.0196,0.035,0.003));
#1758=CARTESIAN_POINT('',(-0.0207618172788443,-0.029,0.003));
#1759=CARTESIAN_POINT('',(-0.0196,-0.029,0.003));
#1760=CARTESIAN_POINT('',(-0.0196,-0.029,0.003));
#1761=CARTESIAN_POINT('',(-0.0196,-0.029,-0.0011));
#1762=CARTESIAN_POINT('',(-0.0207618172788443,-0.029,-0.0011));
#1763=CARTESIAN_POINT('',(-0.017,-0.029,-0.0011));
#1764=CARTESIAN_POINT('',(-0.017,-0.029,0.003));
#1765=CARTESIAN_POINT('',(-0.017,-0.029,0.003));
#1766=CARTESIAN_POINT('',(-0.0207618172788443,-0.029,0.003));
#1767=CARTESIAN_POINT('',(-0.0207618172788443,-0.035,0.003));
#1768=CARTESIAN_POINT('',(-0.017,-0.035,0.003));
#1769=CARTESIAN_POINT('',(-0.017,-0.035,0.003));
#1770=CARTESIAN_POINT('',(-0.017,-0.035,-0.0011));
#1771=CARTESIAN_POINT('',(-0.0207618172788443,-0.035,-0.0011));
#1772=CARTESIAN_POINT('',(-0.0196,-0.035,-0.0011));
#1773=CARTESIAN_POINT('',(-0.0196,-0.035,0.003));
#1774=CARTESIAN_POINT('',(-0.0196,-0.035,0.003));
#1775=CARTESIAN_POINT('',(-0.0207618172788443,-0.035,0.003));
#1776=CARTESIAN_POINT('',(-0.00389914023639537,-0.00390636689960956,0.003));
#1777=CARTESIAN_POINT('',(-0.0196,-0.029,0.003));
#1778=CARTESIAN_POINT('',(-0.017,-0.032,0.003));
#1779=CARTESIAN_POINT('',(-0.017,-0.032,0.003));
#1780=CARTESIAN_POINT('',(-0.017,-0.032,-0.0011));
#1781=CARTESIAN_POINT('',(0.0207618172788443,-0.035,0.003));
#1782=CARTESIAN_POINT('',(0.0196,-0.035,0.003));
#1783=CARTESIAN_POINT('',(0.0196,-0.035,0.003));
#1784=CARTESIAN_POINT('',(0.0196,-0.035,-0.0011));
#1785=CARTESIAN_POINT('',(0.017,-0.035,-0.0011));
#1786=CARTESIAN_POINT('',(0.017,-0.035,-0.0011));
#1787=CARTESIAN_POINT('',(0.017,-0.035,0.003));
#1788=CARTESIAN_POINT('',(0.017,-0.035,0.003));
#1789=CARTESIAN_POINT('',(0.0207618172788443,-0.035,0.003));
#1790=CARTESIAN_POINT('',(0.017,-0.032,0.003));
#1791=CARTESIAN_POINT('',(0.017,-0.032,-0.0011));
#1792=CARTESIAN_POINT('',(0.017,-0.029,-0.0011));
#1793=CARTESIAN_POINT('',(0.017,-0.029,0.003));
#1794=CARTESIAN_POINT('',(0.017,-0.029,0.003));
#1795=CARTESIAN_POINT('',(0.017,-0.032,0.003));
#1796=CARTESIAN_POINT('',(0.0207618172788443,-0.029,0.003));
#1797=CARTESIAN_POINT('',(0.02,-0.029,-0.0011));
#1798=CARTESIAN_POINT('',(0.0196,-0.029,-0.0011));
#1799=CARTESIAN_POINT('',(0.0196,-0.029,0.003));
#1800=CARTESIAN_POINT('',(0.0196,-0.029,0.003));
#1801=CARTESIAN_POINT('',(0.0207618172788443,-0.029,0.003));
#1802=CARTESIAN_POINT('',(-0.00389914023639537,-0.00390636689960956,0.003));
#1803=CARTESIAN_POINT('',(0.0196,-0.00390636689960956,0.003));
#1804=CARTESIAN_POINT('',(0.017,0.032,0.003));
#1805=CARTESIAN_POINT('',(0.017,0.029,0.003));
#1806=CARTESIAN_POINT('',(0.017,0.029,0.003));
#1807=CARTESIAN_POINT('',(0.017,0.029,-0.0011));
#1808=CARTESIAN_POINT('',(0.017,0.032,-0.0011));
#1809=CARTESIAN_POINT('',(0.017,0.035,-0.0011));
#1810=CARTESIAN_POINT('',(0.017,0.035,0.003));
#1811=CARTESIAN_POINT('',(0.017,0.035,0.003));
#1812=CARTESIAN_POINT('',(0.017,0.032,0.003));
#1813=CARTESIAN_POINT('',(0.0207618172788443,0.035,0.003));
#1814=CARTESIAN_POINT('',(0.0207618172788443,0.035,-0.0011));
#1815=CARTESIAN_POINT('',(0.0196,0.035,-0.0011));
#1816=CARTESIAN_POINT('',(0.0196,0.035,0.003));
#1817=CARTESIAN_POINT('',(0.0196,0.035,0.003));
#1818=CARTESIAN_POINT('',(0.0207618172788443,0.035,0.003));
#1819=CARTESIAN_POINT('',(0.0207618172788443,0.029,0.003));
#1820=CARTESIAN_POINT('',(0.0196,0.029,-0.0015));
#1821=CARTESIAN_POINT('',(0.0196,0.029,0.003));
#1822=CARTESIAN_POINT('',(0.0196,0.029,-0.0011));
#1823=CARTESIAN_POINT('',(0.0207618172788443,0.029,-0.0011));
#1824=CARTESIAN_POINT('',(0.0207618172788443,0.029,0.003));
#1825=CARTESIAN_POINT('',(-0.00389914023639537,-0.00390636689960956,0.003));
#1826=CARTESIAN_POINT('',(0.0196,-0.00390636689960956,0.003));
#1827=CARTESIAN_POINT('',(-0.00927378950705011,0.00443467634264133,-0.0015));
#1828=CARTESIAN_POINT('',(0.0196,-0.04,-0.0015));
#1829=CARTESIAN_POINT('',(0.0196,-0.0354,-0.0015));
#1830=CARTESIAN_POINT('',(0.0196,-0.0396,-0.0015));
#1831=CARTESIAN_POINT('',(-0.02,-0.0396,-0.0015));
#1832=CARTESIAN_POINT('',(-0.0196,-0.0396,-0.0015));
#1833=CARTESIAN_POINT('',(-0.0196,0.00443467634264133,-0.0015));
#1834=CARTESIAN_POINT('',(-0.0196,-0.0354,-0.0015));
#1835=CARTESIAN_POINT('',(-0.00927378950705011,-0.0354,-0.0015));
#1836=CARTESIAN_POINT('',(-0.017,-0.0354,-0.0015));
#1837=CARTESIAN_POINT('',(-0.017,-0.032,-0.0015));
#1838=CARTESIAN_POINT('',(-0.017,-0.0286,-0.0015));
#1839=CARTESIAN_POINT('',(-0.00927378950705011,-0.0286,-0.0015));
#1840=CARTESIAN_POINT('',(-0.0196,-0.0286,-0.0015));
#1841=CARTESIAN_POINT('',(-0.0196,0.00443467634264133,-0.0015));
#1842=CARTESIAN_POINT('',(-0.0196,0.0286,-0.0015));
#1843=CARTESIAN_POINT('',(-0.017,0.0286,-0.0015));
#1844=CARTESIAN_POINT('',(-0.017,0.0286,-0.0015));
#1845=CARTESIAN_POINT('',(-0.017,0.032,-0.0015));
#1846=CARTESIAN_POINT('',(-0.017,0.0354,-0.0015));
#1847=CARTESIAN_POINT('',(-0.02,0.0354,-0.0015));
#1848=CARTESIAN_POINT('',(-0.0196,0.0354,-0.0015));
#1849=CARTESIAN_POINT('',(-0.0196,0.00443467634264133,-0.0015));
#1850=CARTESIAN_POINT('',(-0.0196,0.0396,-0.0015));
#1851=CARTESIAN_POINT('',(-0.00927378950705011,0.0396,-0.0015));
#1852=CARTESIAN_POINT('',(0.0196,0.0396,-0.0015));
#1853=CARTESIAN_POINT('',(0.0196,0.035,-0.0015));
#1854=CARTESIAN_POINT('',(0.0196,0.0354,-0.0015));
#1855=CARTESIAN_POINT('',(-0.00927378950705011,0.0354,-0.0015));
#1856=CARTESIAN_POINT('',(0.017,0.0354,-0.0015));
#1857=CARTESIAN_POINT('',(0.017,0.032,-0.0015));
#1858=CARTESIAN_POINT('',(0.017,0.0286,-0.0015));
#1859=CARTESIAN_POINT('',(-0.00927378950705011,0.0286,-0.0015));
#1860=CARTESIAN_POINT('',(0.0196,0.0286,-0.0015));
#1861=CARTESIAN_POINT('',(0.0196,-0.029,-0.0015));
#1862=CARTESIAN_POINT('',(0.0196,-0.0286,-0.0015));
#1863=CARTESIAN_POINT('',(0.017,-0.0286,-0.0015));
#1864=CARTESIAN_POINT('',(0.017,-0.0286,-0.0015));
#1865=CARTESIAN_POINT('',(0.017,-0.032,-0.0015));
#1866=CARTESIAN_POINT('',(0.017,-0.0354,-0.0015));
#1867=CARTESIAN_POINT('',(0.02,-0.0354,-0.0015));
#1868=CARTESIAN_POINT('',(0.0196,0.04,0.006));
#1869=CARTESIAN_POINT('',(0.0196,0.04,-0.0011));
#1870=CARTESIAN_POINT('',(0.0196,0.04,-0.0011));
#1871=CARTESIAN_POINT('',(0.0196,0.04,-0.0011));
#1872=CARTESIAN_POINT('',(0.0198,0.0396,-0.0013));
#1873=CARTESIAN_POINT('',(0.0196,0.00443467634264133,-0.0015));
#1874=CARTESIAN_POINT('',(0.0196,0.0354,-0.0015));
#1875=CARTESIAN_POINT('',(-3.46944695195361E-18,0.04,-0.0011));
#1876=CARTESIAN_POINT('',(-0.0196,0.0398,-0.0013));
#1877=CARTESIAN_POINT('',(-0.02,0.0396,0.006));
#1878=CARTESIAN_POINT('',(-0.02,0.0396,-0.0011));
#1879=CARTESIAN_POINT('',(0.0196,0.0354,-0.0015));
#1880=CARTESIAN_POINT('',(0.0196,0.0354,-0.0015));
#1881=CARTESIAN_POINT('',(0.0198,0.0352,-0.0011));
#1882=CARTESIAN_POINT('',(-0.02,0.0396,-0.0011));
#1883=CARTESIAN_POINT('',(-0.02,0.0396,-0.0011));
#1884=CARTESIAN_POINT('',(0.02,0.0354,0.006));
#1885=CARTESIAN_POINT('',(0.00663121103346342,0.0220312110334633,-0.00996878896653655));
#1886=CARTESIAN_POINT('',(0.0207618172788443,0.035,-0.0011));
#1887=CARTESIAN_POINT('',(0.017,0.0354,-0.0015));
#1888=CARTESIAN_POINT('',(-0.02,0.,-0.0011));
#1889=CARTESIAN_POINT('',(-0.02,0.0354,-0.0011));
#1890=CARTESIAN_POINT('',(0.0196,-0.00390636689960956,0.003));
#1891=CARTESIAN_POINT('',(0.0196,0.029,0.003));
#1892=CARTESIAN_POINT('',(0.017,0.032,-0.0011));
#1893=CARTESIAN_POINT('',(0.017,0.0286,-0.0015));
#1894=CARTESIAN_POINT('',(-0.02,0.0354,-0.0011));
#1895=CARTESIAN_POINT('',(-0.02,0.0354,-0.0011));
#1896=CARTESIAN_POINT('',(-0.0196,0.0352,-0.0013));
#1897=CARTESIAN_POINT('',(0.0196,0.029,0.003));
#1898=CARTESIAN_POINT('',(0.02,0.0286,-0.0011));
#1899=CARTESIAN_POINT('',(0.0207618172788443,0.029,-0.0011));
#1900=CARTESIAN_POINT('',(0.0196,0.0288,-0.0013));
#1901=CARTESIAN_POINT('',(-0.00927378950705011,0.0354,-0.0015));
#1902=CARTESIAN_POINT('',(-0.017,0.035,-0.0011));
#1903=CARTESIAN_POINT('',(-0.0196,0.035,0.003));
#1904=CARTESIAN_POINT('',(-0.0082,0.0236,-0.0084));
#1905=CARTESIAN_POINT('',(0.02,0.0286,-0.0011));
#1906=CARTESIAN_POINT('',(0.02,0.0286,-0.0011));
#1907=CARTESIAN_POINT('',(-0.017,0.032,-0.0015));
#1908=CARTESIAN_POINT('',(-0.017,0.029,-0.0011));
#1909=CARTESIAN_POINT('',(-0.02,0.,0.0034));
#1910=CARTESIAN_POINT('',(-0.0208666666666667,0.0277333333333333,0.00426666666666667));
#1911=CARTESIAN_POINT('',(0.0196,0.00443467634264133,-0.0015));
#1912=CARTESIAN_POINT('',(0.0196,-0.0286,-0.0015));
#1913=CARTESIAN_POINT('',(-0.00927378950705011,0.0286,-0.0015));
#1914=CARTESIAN_POINT('',(-0.0196,0.0286,-0.0015));
#1915=CARTESIAN_POINT('',(-0.02,0.0286,0.006));
#1916=CARTESIAN_POINT('',(-0.0198,0.0288,-0.0011));
#1917=CARTESIAN_POINT('',(0.0196,-0.0286,-0.0015));
#1918=CARTESIAN_POINT('',(0.0196,-0.0286,-0.0015));
#1919=CARTESIAN_POINT('',(0.0198,-0.0288,-0.0011));
#1920=CARTESIAN_POINT('',(-0.0196,0.0286,-0.0015));
#1921=CARTESIAN_POINT('',(-0.0196,0.0286,-0.0015));
#1922=CARTESIAN_POINT('',(0.02,-0.0286,0.006));
#1923=CARTESIAN_POINT('',(0.0279645443667969,-0.0206354556332033,0.0113645443667968));
#1924=CARTESIAN_POINT('',(-0.00927378950705011,-0.0286,-0.0015));
#1925=CARTESIAN_POINT('',(0.017,-0.0286,-0.0015));
#1926=CARTESIAN_POINT('',(-0.02,0.,-0.0011));
#1927=CARTESIAN_POINT('',(-0.02,-0.0286,-0.0011));
#1928=CARTESIAN_POINT('',(0.0196,-0.00390636689960956,0.003));
#1929=CARTESIAN_POINT('',(0.0196,-0.035,0.003));
#1930=CARTESIAN_POINT('',(0.017,-0.032,-0.0015));
#1931=CARTESIAN_POINT('',(0.017,-0.0354,-0.0015));
#1932=CARTESIAN_POINT('',(-0.02,-0.0286,-0.0011));
#1933=CARTESIAN_POINT('',(-0.02,-0.0286,-0.0011));
#1934=CARTESIAN_POINT('',(-0.0196,-0.0288,-0.0013));
#1935=CARTESIAN_POINT('',(0.0196,-0.035,0.003));
#1936=CARTESIAN_POINT('',(0.02,-0.0354,-0.0011));
#1937=CARTESIAN_POINT('',(-0.00927378950705011,-0.0354,-0.0015));
#1938=CARTESIAN_POINT('',(0.0196,-0.0352,-0.0013));
#1939=CARTESIAN_POINT('',(-0.0207618172788443,-0.029,-0.0011));
#1940=CARTESIAN_POINT('',(-0.017,-0.029,-0.0011));
#1941=CARTESIAN_POINT('',(-0.02,-0.0286,0.006));
#1942=CARTESIAN_POINT('',(-0.0208666666666667,-0.0277333333333333,0.00426666666666666));
#1943=CARTESIAN_POINT('',(0.02,-0.0354,-0.0011));
#1944=CARTESIAN_POINT('',(0.02,-0.0354,-0.0011));
#1945=CARTESIAN_POINT('',(-0.017,-0.032,-0.0011));
#1946=CARTESIAN_POINT('',(-0.017,-0.035,-0.0011));
#1947=CARTESIAN_POINT('',(-0.0196,-0.00390636689960956,0.003));
#1948=CARTESIAN_POINT('',(-0.00923545563320316,-0.0246354556332033,-0.00736454436679677));
#1949=CARTESIAN_POINT('',(0.02,-0.0396,0.006));
#1950=CARTESIAN_POINT('',(0.02,-0.0396,-0.0011));
#1951=CARTESIAN_POINT('',(0.0196,0.00443467634264133,-0.0015));
#1952=CARTESIAN_POINT('',(0.02,-0.0396,-0.0011));
#1953=CARTESIAN_POINT('',(-0.0207618172788443,-0.035,-0.0011));
#1954=CARTESIAN_POINT('',(-0.0196,-0.0354,-0.0015));
#1955=CARTESIAN_POINT('',(-0.02,-0.0354,0.006));
#1956=CARTESIAN_POINT('',(-0.0198,-0.0352,-0.0011));
#1957=CARTESIAN_POINT('',(0.02,-0.0396,-0.0011));
#1958=CARTESIAN_POINT('',(0.0196,-0.0398,-0.0013));
#1959=CARTESIAN_POINT('',(-0.0196,-0.0354,-0.0015));
#1960=CARTESIAN_POINT('',(-0.0196,-0.0354,-0.0015));
#1961=CARTESIAN_POINT('',(-0.00927378950705011,-0.0396,-0.0015));
#1962=CARTESIAN_POINT('',(-0.0196,-0.04,-0.0011));
#1963=CARTESIAN_POINT('',(-0.02,0.,-0.0011));
#1964=CARTESIAN_POINT('',(-0.0198,-0.0396,-0.0013));
#1965=CARTESIAN_POINT('',(-0.0196,-0.04,-0.0011));
#1966=CARTESIAN_POINT('',(-0.0196,-0.04,-0.0011));
#1967=CARTESIAN_POINT('',(-0.0196,-0.04,0.006));
#1968=MECHANICAL_DESIGN_GEOMETRIC_PRESENTATION_REPRESENTATION('',(#1205),
#1969);
#1969=(
GEOMETRIC_REPRESENTATION_CONTEXT(3)
GLOBAL_UNCERTAINTY_ASSIGNED_CONTEXT((#1970))
GLOBAL_UNIT_ASSIGNED_CONTEXT((#1973,#1972,#1971))
REPRESENTATION_CONTEXT('Keyboard_Part1','TOP_LEVEL_ASSEMBLY_PART')
);
#1970=UNCERTAINTY_MEASURE_WITH_UNIT(LENGTH_MEASURE(1.E-8),#1973,
'DISTANCE_ACCURACY_VALUE','Maximum Tolerance applied to model');
#1971=(
NAMED_UNIT(*)
SI_UNIT($,.STERADIAN.)
SOLID_ANGLE_UNIT()
);
#1972=(
NAMED_UNIT(*)
PLANE_ANGLE_UNIT()
SI_UNIT($,.RADIAN.)
);
#1973=(
LENGTH_UNIT()
NAMED_UNIT(*)
SI_UNIT($,.METRE.)
);
#1974=PRODUCT_DEFINITION_SHAPE('','',#1975);
#1975=PRODUCT_DEFINITION('','',#1977,#1976);
#1976=PRODUCT_DEFINITION_CONTEXT('',#1983,'design');
#1977=PRODUCT_DEFINITION_FORMATION_WITH_SPECIFIED_SOURCE('','',#1979,
 .NOT_KNOWN.);
#1978=PRODUCT_RELATED_PRODUCT_CATEGORY('','',(#1979));
#1979=PRODUCT('Keyboard_Part1','Keyboard_Part1','Keyboard_Part1',(#1981));
#1980=PRODUCT_CATEGORY('','');
#1981=PRODUCT_CONTEXT('',#1983,'mechanical');
#1982=APPLICATION_PROTOCOL_DEFINITION('international standard',
'ap242_managed_model_based_3d_engineering',2020,#1983);
#1983=APPLICATION_CONTEXT('managed model based 3d engineering');
ENDSEC;
END-ISO-10303-21;
