ISO-10303-21;
HEADER;
/* Generated by software containing ST-Developer
 * from STEP Tools, Inc. (www.steptools.com) 
 */
/* OPTION: using custom renumber hook */

FILE_DESCRIPTION(
/* description */ ('STEP AP242 Edition 2',
'CAx-IF Rec.Pracs.---Representation and Presentation of Product Manufa
cturing Information (PMI)---4.0---2014-10-13',
'CAx-IF Rec.Pracs.---3D Tessellated Geometry---0.4---2014-09-14','2;1',
'CAx-IF Rec.Pracs.---User Defined Attributes---1.5---2016-08-15'),
/* implementation_level */ '2;1');

FILE_NAME(
/* name */ 'Part Studio 1 - Eyepiece_Cap',
/* time_stamp */ '2026-09-10T16:41:56Z',
/* author */ (''),
/* organization */ (''),
/* preprocessor_version */ 'ST-DEVELOPER v20',
/* originating_system */ 'ONSHAPE BY PTC INC, 1.220',
/* authorisation */ '  ');

FILE_SCHEMA (('AP242_MANAGED_MODEL_BASED_3D_ENGINEERING_MIM_LF { 1 0 10303 442 3 1 4 }'));
ENDSEC;

DATA;
#10=SHAPE_REPRESENTATION_RELATIONSHIP('','',#223,#11);
#11=ADVANCED_BREP_SHAPE_REPRESENTATION('',(#221),#416);
#12=CYLINDRICAL_SURFACE('',#235,0.03425);
#13=CYLINDRICAL_SURFACE('',#240,0.03275);
#14=PLANE('',#229);
#15=PLANE('',#234);
#16=PLANE('',#238);
#17=PLANE('',#243);
#18=PLANE('',#246);
#19=PLANE('',#248);
#20=B_SPLINE_CURVE_WITH_KNOTS('',3,(#336,#337,#338,#339,#340,#341,#342,
#343,#344,#345,#346),.UNSPECIFIED.,.T.,.F.,(1,1,1,1,1,1,1,1,1,1,1,1,1,1,
1),(-0.00548968905293913,-0.00365979270195942,-0.00182989635097971,0.,0.00182989635097971,
0.00365979270195942,0.00548968905293913,0.00731958540391884,0.00914948175489855,
0.0109793781058783,0.012809274456858,0.0146391708078377,0.0164690671588174,
0.0182989635097971,0.0201288598607768),.UNSPECIFIED.);
#21=B_SPLINE_CURVE_WITH_KNOTS('',3,(#355,#356,#357,#358,#359,#360,#361,
#362,#363,#364,#365),.UNSPECIFIED.,.T.,.F.,(1,1,1,1,1,1,1,1,1,1,1,1,1,1,
1),(-0.00548968905293912,-0.00365979270195942,-0.00182989635097971,0.,0.00182989635097971,
0.00365979270195942,0.00548968905293912,0.00731958540391883,0.00914948175489854,
0.0109793781058782,0.012809274456858,0.0146391708078377,0.0164690671588174,
0.0182989635097971,0.0201288598607768),.UNSPECIFIED.);
#22=B_SPLINE_CURVE_WITH_KNOTS('',3,(#381,#382,#383,#384,#385,#386,#387,
#388,#389,#390,#391),.UNSPECIFIED.,.T.,.F.,(1,1,1,1,1,1,1,1,1,1,1,1,1,1,
1),(-0.00548968905293913,-0.00365979270195942,-0.00182989635097971,4.33680868994202E-19,
0.00182989635097971,0.00365979270195942,0.00548968905293913,0.00731958540391885,
0.00914948175489856,0.0109793781058783,0.012809274456858,0.0146391708078377,
0.0164690671588174,0.0182989635097971,0.0201288598607768),.UNSPECIFIED.);
#23=CONICAL_SURFACE('',#228,0.0025,1.08083900054117);
#24=CONICAL_SURFACE('',#233,0.0025,1.08083900054117);
#25=CONICAL_SURFACE('',#250,0.0025,1.08083900054117);
#26=CONICAL_SURFACE('',#253,0.03275,0.785398163397448);
#27=CONICAL_SURFACE('',#254,0.03425,0.785398163397448);
#28=CONICAL_SURFACE('',#256,0.03425,0.392699081698725);
#29=CONICAL_SURFACE('',#257,0.03275,0.785398163397444);
#30=CONICAL_SURFACE('',#258,0.03385,0.785398163397444);
#31=ORIENTED_EDGE('',*,*,#67,.F.);
#32=ORIENTED_EDGE('',*,*,#68,.F.);
#33=ORIENTED_EDGE('',*,*,#67,.T.);
#34=ORIENTED_EDGE('',*,*,#69,.F.);
#35=ORIENTED_EDGE('',*,*,#68,.T.);
#36=ORIENTED_EDGE('',*,*,#70,.F.);
#37=ORIENTED_EDGE('',*,*,#71,.F.);
#38=ORIENTED_EDGE('',*,*,#70,.T.);
#39=ORIENTED_EDGE('',*,*,#72,.F.);
#40=ORIENTED_EDGE('',*,*,#71,.T.);
#41=ORIENTED_EDGE('',*,*,#73,.T.);
#42=ORIENTED_EDGE('',*,*,#74,.T.);
#43=ORIENTED_EDGE('',*,*,#75,.T.);
#44=ORIENTED_EDGE('',*,*,#76,.T.);
#45=ORIENTED_EDGE('',*,*,#77,.T.);
#46=ORIENTED_EDGE('',*,*,#69,.T.);
#47=ORIENTED_EDGE('',*,*,#72,.T.);
#48=ORIENTED_EDGE('',*,*,#78,.T.);
#49=ORIENTED_EDGE('',*,*,#79,.T.);
#50=ORIENTED_EDGE('',*,*,#80,.T.);
#51=ORIENTED_EDGE('',*,*,#81,.T.);
#52=ORIENTED_EDGE('',*,*,#82,.T.);
#53=ORIENTED_EDGE('',*,*,#83,.T.);
#54=ORIENTED_EDGE('',*,*,#78,.F.);
#55=ORIENTED_EDGE('',*,*,#83,.F.);
#56=ORIENTED_EDGE('',*,*,#82,.F.);
#57=ORIENTED_EDGE('',*,*,#81,.F.);
#58=ORIENTED_EDGE('',*,*,#77,.F.);
#59=ORIENTED_EDGE('',*,*,#84,.T.);
#60=ORIENTED_EDGE('',*,*,#75,.F.);
#61=ORIENTED_EDGE('',*,*,#84,.F.);
#62=ORIENTED_EDGE('',*,*,#73,.F.);
#63=ORIENTED_EDGE('',*,*,#79,.F.);
#64=ORIENTED_EDGE('',*,*,#76,.F.);
#65=ORIENTED_EDGE('',*,*,#74,.F.);
#66=ORIENTED_EDGE('',*,*,#80,.F.);
#67=EDGE_CURVE('',#85,#85,#103,.T.);
#68=EDGE_CURVE('',#86,#86,#104,.F.);
#69=EDGE_CURVE('',#87,#87,#20,.T.);
#70=EDGE_CURVE('',#88,#88,#105,.T.);
#71=EDGE_CURVE('',#89,#89,#106,.F.);
#72=EDGE_CURVE('',#90,#90,#21,.T.);
#73=EDGE_CURVE('',#91,#91,#107,.F.);
#74=EDGE_CURVE('',#92,#92,#108,.F.);
#75=EDGE_CURVE('',#93,#93,#109,.F.);
#76=EDGE_CURVE('',#94,#94,#110,.T.);
#77=EDGE_CURVE('',#95,#95,#111,.F.);
#78=EDGE_CURVE('',#96,#96,#22,.T.);
#79=EDGE_CURVE('',#97,#97,#112,.F.);
#80=EDGE_CURVE('',#98,#98,#113,.T.);
#81=EDGE_CURVE('',#99,#99,#114,.T.);
#82=EDGE_CURVE('',#100,#100,#115,.F.);
#83=EDGE_CURVE('',#101,#101,#116,.T.);
#84=EDGE_CURVE('',#102,#102,#117,.F.);
#85=VERTEX_POINT('',#332);
#86=VERTEX_POINT('',#334);
#87=VERTEX_POINT('',#347);
#88=VERTEX_POINT('',#351);
#89=VERTEX_POINT('',#353);
#90=VERTEX_POINT('',#366);
#91=VERTEX_POINT('',#370);
#92=VERTEX_POINT('',#372);
#93=VERTEX_POINT('',#375);
#94=VERTEX_POINT('',#378);
#95=VERTEX_POINT('',#380);
#96=VERTEX_POINT('',#392);
#97=VERTEX_POINT('',#395);
#98=VERTEX_POINT('',#397);
#99=VERTEX_POINT('',#400);
#100=VERTEX_POINT('',#403);
#101=VERTEX_POINT('',#406);
#102=VERTEX_POINT('',#411);
#103=CIRCLE('',#226,0.00166176470588235);
#104=CIRCLE('',#227,0.00025);
#105=CIRCLE('',#231,0.00166176470588235);
#106=CIRCLE('',#232,0.00025);
#107=CIRCLE('',#236,0.03425);
#108=CIRCLE('',#237,0.03425);
#109=CIRCLE('',#239,0.02925);
#110=CIRCLE('',#241,0.03275);
#111=CIRCLE('',#242,0.03275);
#112=CIRCLE('',#244,0.03315);
#113=CIRCLE('',#245,0.03385);
#114=CIRCLE('',#247,0.02775);
#115=CIRCLE('',#249,0.00025);
#116=CIRCLE('',#251,0.00166176470588235);
#117=CIRCLE('',#255,0.0339671572875254);
#118=EDGE_LOOP('',(#31));
#119=EDGE_LOOP('',(#32));
#120=EDGE_LOOP('',(#33));
#121=EDGE_LOOP('',(#34));
#122=EDGE_LOOP('',(#35));
#123=EDGE_LOOP('',(#36));
#124=EDGE_LOOP('',(#37));
#125=EDGE_LOOP('',(#38));
#126=EDGE_LOOP('',(#39));
#127=EDGE_LOOP('',(#40));
#128=EDGE_LOOP('',(#41));
#129=EDGE_LOOP('',(#42));
#130=EDGE_LOOP('',(#43));
#131=EDGE_LOOP('',(#44));
#132=EDGE_LOOP('',(#45));
#133=EDGE_LOOP('',(#46));
#134=EDGE_LOOP('',(#47));
#135=EDGE_LOOP('',(#48));
#136=EDGE_LOOP('',(#49));
#137=EDGE_LOOP('',(#50));
#138=EDGE_LOOP('',(#51));
#139=EDGE_LOOP('',(#52));
#140=EDGE_LOOP('',(#53));
#141=EDGE_LOOP('',(#54));
#142=EDGE_LOOP('',(#55));
#143=EDGE_LOOP('',(#56));
#144=EDGE_LOOP('',(#57));
#145=EDGE_LOOP('',(#58));
#146=EDGE_LOOP('',(#59));
#147=EDGE_LOOP('',(#60));
#148=EDGE_LOOP('',(#61));
#149=EDGE_LOOP('',(#62));
#150=EDGE_LOOP('',(#63));
#151=EDGE_LOOP('',(#64));
#152=EDGE_LOOP('',(#65));
#153=EDGE_LOOP('',(#66));
#154=FACE_BOUND('',#118,.T.);
#155=FACE_BOUND('',#119,.T.);
#156=FACE_BOUND('',#120,.T.);
#157=FACE_BOUND('',#121,.T.);
#158=FACE_BOUND('',#122,.T.);
#159=FACE_BOUND('',#123,.T.);
#160=FACE_BOUND('',#124,.T.);
#161=FACE_BOUND('',#125,.T.);
#162=FACE_BOUND('',#126,.T.);
#163=FACE_BOUND('',#127,.T.);
#164=FACE_BOUND('',#128,.T.);
#165=FACE_BOUND('',#129,.T.);
#166=FACE_BOUND('',#130,.T.);
#167=FACE_BOUND('',#131,.T.);
#168=FACE_BOUND('',#132,.T.);
#169=FACE_BOUND('',#133,.T.);
#170=FACE_BOUND('',#134,.T.);
#171=FACE_BOUND('',#135,.T.);
#172=FACE_BOUND('',#136,.T.);
#173=FACE_BOUND('',#137,.T.);
#174=FACE_BOUND('',#138,.T.);
#175=FACE_BOUND('',#139,.T.);
#176=FACE_BOUND('',#140,.T.);
#177=FACE_BOUND('',#141,.T.);
#178=FACE_BOUND('',#142,.T.);
#179=FACE_BOUND('',#143,.T.);
#180=FACE_BOUND('',#144,.T.);
#181=FACE_BOUND('',#145,.T.);
#182=FACE_BOUND('',#146,.T.);
#183=FACE_BOUND('',#147,.T.);
#184=FACE_BOUND('',#148,.T.);
#185=FACE_BOUND('',#149,.T.);
#186=FACE_BOUND('',#150,.T.);
#187=FACE_BOUND('',#151,.T.);
#188=FACE_BOUND('',#152,.T.);
#189=FACE_BOUND('',#153,.T.);
#190=DEGENERATE_TOROIDAL_SURFACE('',#225,0.00025,0.003,.T.);
#191=DEGENERATE_TOROIDAL_SURFACE('',#230,0.00025,0.003,.T.);
#192=DEGENERATE_TOROIDAL_SURFACE('',#252,0.00025,0.003,.T.);
#193=ADVANCED_FACE('',(#154,#155),#190,.T.);
#194=ADVANCED_FACE('',(#156,#157),#23,.T.);
#195=ADVANCED_FACE('',(#158),#14,.F.);
#196=ADVANCED_FACE('',(#159,#160),#191,.T.);
#197=ADVANCED_FACE('',(#161,#162),#24,.T.);
#198=ADVANCED_FACE('',(#163),#15,.F.);
#199=ADVANCED_FACE('',(#164,#165),#12,.T.);
#200=ADVANCED_FACE('',(#166),#16,.F.);
#201=ADVANCED_FACE('',(#167,#168,#169,#170,#171),#13,.F.);
#202=ADVANCED_FACE('',(#172,#173),#17,.T.);
#203=ADVANCED_FACE('',(#174),#18,.T.);
#204=ADVANCED_FACE('',(#175),#19,.F.);
#205=ADVANCED_FACE('',(#176,#177),#25,.T.);
#206=ADVANCED_FACE('',(#178,#179),#192,.T.);
#207=ADVANCED_FACE('',(#180,#181),#26,.F.);
#208=ADVANCED_FACE('',(#182,#183),#27,.T.);
#209=ADVANCED_FACE('',(#184,#185),#28,.T.);
#210=ADVANCED_FACE('',(#186,#187),#29,.F.);
#211=ADVANCED_FACE('',(#188,#189),#30,.T.);
#212=CLOSED_SHELL('',(#193,#194,#195,#196,#197,#198,#199,#200,#201,#202,
#203,#204,#205,#206,#207,#208,#209,#210,#211));
#213=STYLED_ITEM('',(#214),#221);
#214=PRESENTATION_STYLE_ASSIGNMENT((#215));
#215=SURFACE_STYLE_USAGE(.BOTH.,#216);
#216=SURFACE_SIDE_STYLE('',(#217));
#217=SURFACE_STYLE_FILL_AREA(#218);
#218=FILL_AREA_STYLE('',(#219));
#219=FILL_AREA_STYLE_COLOUR('',#220);
#220=COLOUR_RGB('',0.615686274509804,0.811764705882353,0.929411764705882);
#221=MANIFOLD_SOLID_BREP('Eyepiece_Cap',#212);
#222=SHAPE_DEFINITION_REPRESENTATION(#421,#223);
#223=SHAPE_REPRESENTATION('Eyepiece_Cap',(#224),#416);
#224=AXIS2_PLACEMENT_3D('',#329,#259,#260);
#225=AXIS2_PLACEMENT_3D('',#330,#261,#262);
#226=AXIS2_PLACEMENT_3D('',#331,#263,#264);
#227=AXIS2_PLACEMENT_3D('',#333,#265,#266);
#228=AXIS2_PLACEMENT_3D('',#335,#267,#268);
#229=AXIS2_PLACEMENT_3D('',#348,#269,#270);
#230=AXIS2_PLACEMENT_3D('',#349,#271,#272);
#231=AXIS2_PLACEMENT_3D('',#350,#273,#274);
#232=AXIS2_PLACEMENT_3D('',#352,#275,#276);
#233=AXIS2_PLACEMENT_3D('',#354,#277,#278);
#234=AXIS2_PLACEMENT_3D('',#367,#279,#280);
#235=AXIS2_PLACEMENT_3D('',#368,#281,#282);
#236=AXIS2_PLACEMENT_3D('',#369,#283,#284);
#237=AXIS2_PLACEMENT_3D('',#371,#285,#286);
#238=AXIS2_PLACEMENT_3D('',#373,#287,#288);
#239=AXIS2_PLACEMENT_3D('',#374,#289,#290);
#240=AXIS2_PLACEMENT_3D('',#376,#291,#292);
#241=AXIS2_PLACEMENT_3D('',#377,#293,#294);
#242=AXIS2_PLACEMENT_3D('',#379,#295,#296);
#243=AXIS2_PLACEMENT_3D('',#393,#297,#298);
#244=AXIS2_PLACEMENT_3D('',#394,#299,#300);
#245=AXIS2_PLACEMENT_3D('',#396,#301,#302);
#246=AXIS2_PLACEMENT_3D('',#398,#303,#304);
#247=AXIS2_PLACEMENT_3D('',#399,#305,#306);
#248=AXIS2_PLACEMENT_3D('',#401,#307,#308);
#249=AXIS2_PLACEMENT_3D('',#402,#309,#310);
#250=AXIS2_PLACEMENT_3D('',#404,#311,#312);
#251=AXIS2_PLACEMENT_3D('',#405,#313,#314);
#252=AXIS2_PLACEMENT_3D('',#407,#315,#316);
#253=AXIS2_PLACEMENT_3D('',#408,#317,#318);
#254=AXIS2_PLACEMENT_3D('',#409,#319,#320);
#255=AXIS2_PLACEMENT_3D('',#410,#321,#322);
#256=AXIS2_PLACEMENT_3D('',#412,#323,#324);
#257=AXIS2_PLACEMENT_3D('',#413,#325,#326);
#258=AXIS2_PLACEMENT_3D('',#414,#327,#328);
#259=DIRECTION('',(0.,0.,1.));
#260=DIRECTION('',(1.,0.,0.));
#261=DIRECTION('',(-0.5,-0.866025403784438,0.));
#262=DIRECTION('',(0.,0.,-1.));
#263=DIRECTION('',(-0.5,-0.866025403784438,0.));
#264=DIRECTION('',(0.,0.,-1.));
#265=DIRECTION('',(-0.5,-0.866025403784438,0.));
#266=DIRECTION('',(0.,0.,-1.));
#267=DIRECTION('',(-0.5,-0.866025403784438,0.));
#268=DIRECTION('',(0.,0.,-1.));
#269=DIRECTION('',(-0.5,-0.866025403784438,0.));
#270=DIRECTION('',(0.866025403784438,-0.5,0.));
#271=DIRECTION('',(-0.5,0.866025403784439,0.));
#272=DIRECTION('',(0.,0.,-1.));
#273=DIRECTION('',(-0.5,0.866025403784439,0.));
#274=DIRECTION('',(0.,0.,-1.));
#275=DIRECTION('',(-0.5,0.866025403784439,0.));
#276=DIRECTION('',(0.,0.,-1.));
#277=DIRECTION('',(-0.5,0.866025403784439,0.));
#278=DIRECTION('',(0.,0.,-1.));
#279=DIRECTION('',(-0.5,0.866025403784439,0.));
#280=DIRECTION('',(-0.866025403784439,-0.5,0.));
#281=DIRECTION('',(0.,0.,-1.));
#282=DIRECTION('',(-1.,0.,0.));
#283=DIRECTION('',(0.,0.,-1.));
#284=DIRECTION('',(-1.,0.,0.));
#285=DIRECTION('',(0.,0.,1.));
#286=DIRECTION('',(1.,0.,0.));
#287=DIRECTION('',(0.,0.,1.));
#288=DIRECTION('',(1.,0.,0.));
#289=DIRECTION('',(0.,0.,1.));
#290=DIRECTION('',(1.,0.,0.));
#291=DIRECTION('',(0.,0.,-1.));
#292=DIRECTION('',(-1.,0.,0.));
#293=DIRECTION('',(0.,0.,1.));
#294=DIRECTION('',(1.,0.,0.));
#295=DIRECTION('',(0.,0.,1.));
#296=DIRECTION('',(1.,0.,0.));
#297=DIRECTION('',(0.,0.,1.));
#298=DIRECTION('',(1.,0.,0.));
#299=DIRECTION('',(0.,0.,1.));
#300=DIRECTION('',(1.,0.,0.));
#301=DIRECTION('',(0.,0.,1.));
#302=DIRECTION('',(1.,0.,0.));
#303=DIRECTION('',(0.,0.,1.));
#304=DIRECTION('',(1.,0.,0.));
#305=DIRECTION('',(0.,0.,1.));
#306=DIRECTION('',(1.,0.,0.));
#307=DIRECTION('',(1.,0.,0.));
#308=DIRECTION('',(0.,1.,0.));
#309=DIRECTION('',(1.,0.,0.));
#310=DIRECTION('',(0.,0.,-1.));
#311=DIRECTION('',(1.,0.,0.));
#312=DIRECTION('',(0.,0.,-1.));
#313=DIRECTION('',(1.,0.,0.));
#314=DIRECTION('',(0.,0.,-1.));
#315=DIRECTION('',(1.,0.,0.));
#316=DIRECTION('',(0.,0.,-1.));
#317=DIRECTION('',(0.,0.,1.));
#318=DIRECTION('',(1.,0.,0.));
#319=DIRECTION('',(0.,0.,1.));
#320=DIRECTION('',(1.,0.,0.));
#321=DIRECTION('',(0.,0.,1.));
#322=DIRECTION('',(1.,0.,0.));
#323=DIRECTION('',(0.,0.,1.));
#324=DIRECTION('',(1.,0.,0.));
#325=DIRECTION('',(0.,0.,1.));
#326=DIRECTION('',(1.,0.,0.));
#327=DIRECTION('',(0.,0.,-1.));
#328=DIRECTION('',(-1.,0.,0.));
#329=CARTESIAN_POINT('',(0.,0.,0.));
#330=CARTESIAN_POINT('',(-0.0175,-0.0303108891324553,0.0195));
#331=CARTESIAN_POINT('',(-0.0161764705882353,-0.0280184689459671,0.0195));
#332=CARTESIAN_POINT('',(-0.0161764705882353,-0.0280184689459671,0.0178382352941176));
#333=CARTESIAN_POINT('',(-0.016,-0.0277128129211021,0.0195));
#334=CARTESIAN_POINT('',(-0.016,-0.0277128129211021,0.01925));
#335=CARTESIAN_POINT('',(-0.0164,-0.0284056332441296,0.0195));
#336=CARTESIAN_POINT('',(-0.0149628157528091,-0.029144823779151,0.0215429031437567));
#337=CARTESIAN_POINT('',(-0.0166387107453706,-0.0282321560194216,0.0221724175235876));
#338=CARTESIAN_POINT('',(-0.0180703678746088,-0.0273209881679182,0.0211101320350837));
#339=CARTESIAN_POINT('',(-0.0184661723605703,-0.0270451894466607,0.0192195691973917));
#340=CARTESIAN_POINT('',(-0.0177575738184267,-0.0275313079781042,0.0174560853018438));
#341=CARTESIAN_POINT('',(-0.0161325011220789,-0.0285243913523311,0.0168283529349174));
#342=CARTESIAN_POINT('',(-0.0146269284057595,-0.0293092101067782,0.017886582434454));
#343=CARTESIAN_POINT('',(-0.0141886204397907,-0.0295148020634423,0.0197808932752055));
#344=CARTESIAN_POINT('',(-0.0149628157528091,-0.029144823779151,0.0215429031437567));
#345=CARTESIAN_POINT('',(-0.0166387107453706,-0.0282321560194216,0.0221724175235876));
#346=CARTESIAN_POINT('',(-0.0180703678746088,-0.0273209881679182,0.0211101320350837));
#347=CARTESIAN_POINT('',(-0.0165980044348167,-0.028232406004126,0.0218904508788651));
#348=CARTESIAN_POINT('',(-0.016,-0.0277128129211021,0.0166999122324637));
#349=CARTESIAN_POINT('',(-0.0175,0.0303108891324553,0.0195));
#350=CARTESIAN_POINT('',(-0.0161764705882353,0.0280184689459671,0.0195));
#351=CARTESIAN_POINT('',(-0.0161764705882353,0.0280184689459671,0.0178382352941176));
#352=CARTESIAN_POINT('',(-0.016,0.0277128129211021,0.0195));
#353=CARTESIAN_POINT('',(-0.016,0.0277128129211021,0.01925));
#354=CARTESIAN_POINT('',(-0.0164,0.0284056332441296,0.0195));
#355=CARTESIAN_POINT('',(-0.017758749905161,0.0275305904436542,0.0215429031437567));
#356=CARTESIAN_POINT('',(-0.0161304089437396,0.0285256242014228,0.0221724175235875));
#357=CARTESIAN_POINT('',(-0.0146254858726068,0.0293098917191006,0.0211101320350837));
#358=CARTESIAN_POINT('',(-0.0141887349306858,0.0295147690982463,0.0192195691973917));
#359=CARTESIAN_POINT('',(-0.0149640251992381,0.029144164025387,0.0174560853018438));
#360=CARTESIAN_POINT('',(-0.0166365969775685,0.0282333514744669,0.0168283529349174));
#361=CARTESIAN_POINT('',(-0.0180690563144458,0.027321896632113,0.017886582434454));
#362=CARTESIAN_POINT('',(-0.018466258154715,0.027045106777235,0.0197808932752055));
#363=CARTESIAN_POINT('',(-0.017758749905161,0.0275305904436542,0.0215429031437567));
#364=CARTESIAN_POINT('',(-0.0161304089437396,0.0285256242014228,0.0221724175235875));
#365=CARTESIAN_POINT('',(-0.0146254858726068,0.0293098917191006,0.0211101320350837));
#366=CARTESIAN_POINT('',(-0.016150978592121,0.028490496494741,0.0218904508788651));
#367=CARTESIAN_POINT('',(-0.016,0.0277128129211021,0.0166999122324637));
#368=CARTESIAN_POINT('',(0.,2.09720764353984E-18,0.001));
#369=CARTESIAN_POINT('',(0.,2.09720764353984E-18,0.0054));
#370=CARTESIAN_POINT('',(-0.03425,2.09720764353984E-18,0.0054));
#371=CARTESIAN_POINT('',(0.,2.09720764353984E-18,0.0246));
#372=CARTESIAN_POINT('',(0.03425,2.09720764353984E-18,0.0246));
#373=CARTESIAN_POINT('',(0.,0.,0.));
#374=CARTESIAN_POINT('',(0.,2.09720764353984E-18,0.));
#375=CARTESIAN_POINT('',(0.02925,2.09720764353984E-18,0.));
#376=CARTESIAN_POINT('',(0.,2.00535913360379E-18,0.025));
#377=CARTESIAN_POINT('',(0.,2.00535913360379E-18,0.0246));
#378=CARTESIAN_POINT('',(0.03275,2.00535913360379E-18,0.0246));
#379=CARTESIAN_POINT('',(0.,2.00535913360379E-18,0.006));
#380=CARTESIAN_POINT('',(0.03275,2.00535913360379E-18,0.006));
#381=CARTESIAN_POINT('',(0.0327215656579701,0.00161423333549686,0.0215429031437567));
#382=CARTESIAN_POINT('',(0.0327691196891101,-0.000293468182001204,0.0221724175235875));
#383=CARTESIAN_POINT('',(0.0326958537472157,-0.00198890355118236,0.0211101320350837));
#384=CARTESIAN_POINT('',(0.0326549072912561,-0.00246957965158558,0.0192195691973917));
#385=CARTESIAN_POINT('',(0.0327215990176648,-0.00161285604728285,0.0174560853018438));
#386=CARTESIAN_POINT('',(0.0327690980996474,0.000291039877864283,0.0168283529349174));
#387=CARTESIAN_POINT('',(0.0326959847202053,0.00198731347466519,0.017886582434454));
#388=CARTESIAN_POINT('',(0.0326548785945057,0.00246969528620729,0.0197808932752055));
#389=CARTESIAN_POINT('',(0.0327215656579701,0.00161423333549686,0.0215429031437567));
#390=CARTESIAN_POINT('',(0.0327691196891101,-0.000293468182001204,0.0221724175235875));
#391=CARTESIAN_POINT('',(0.0326958537472157,-0.00198890355118236,0.0211101320350837));
#392=CARTESIAN_POINT('',(0.0327489830269377,-0.000258090490615052,0.0218904508788651));
#393=CARTESIAN_POINT('',(0.,0.,0.025));
#394=CARTESIAN_POINT('',(0.,2.00535913360379E-18,0.025));
#395=CARTESIAN_POINT('',(0.03315,2.00535913360379E-18,0.025));
#396=CARTESIAN_POINT('',(0.,2.09720764353984E-18,0.025));
#397=CARTESIAN_POINT('',(0.03385,2.09720764353984E-18,0.025));
#398=CARTESIAN_POINT('',(0.,0.,0.001));
#399=CARTESIAN_POINT('',(0.,2.00535913360379E-18,0.001));
#400=CARTESIAN_POINT('',(0.02775,2.00535913360379E-18,0.001));
#401=CARTESIAN_POINT('',(0.032,0.,0.0166999122324637));
#402=CARTESIAN_POINT('',(0.032,2.06736519935689E-18,0.0195));
#403=CARTESIAN_POINT('',(0.032,2.06736519935689E-18,0.01925));
#404=CARTESIAN_POINT('',(0.0328,2.06736519935689E-18,0.0195));
#405=CARTESIAN_POINT('',(0.0323529411764706,2.06736519935689E-18,0.0195));
#406=CARTESIAN_POINT('',(0.0323529411764706,2.06736519935689E-18,0.0178382352941176));
#407=CARTESIAN_POINT('',(0.035,2.06736519935689E-18,0.0195));
#408=CARTESIAN_POINT('',(0.,2.00535913360379E-18,0.006));
#409=CARTESIAN_POINT('',(0.,2.09720764353984E-18,0.005));
#410=CARTESIAN_POINT('',(0.,2.09720764353984E-18,0.00471715728752539));
#411=CARTESIAN_POINT('',(0.0339671572875254,2.09720764353984E-18,0.00471715728752539));
#412=CARTESIAN_POINT('',(0.,2.09720764353984E-18,0.0054));
#413=CARTESIAN_POINT('',(0.,2.00535913360379E-18,0.0246));
#414=CARTESIAN_POINT('',(0.,2.09720764353984E-18,0.025));
#415=MECHANICAL_DESIGN_GEOMETRIC_PRESENTATION_REPRESENTATION('',(#213),
#416);
#416=(
GEOMETRIC_REPRESENTATION_CONTEXT(3)
GLOBAL_UNCERTAINTY_ASSIGNED_CONTEXT((#417))
GLOBAL_UNIT_ASSIGNED_CONTEXT((#420,#419,#418))
REPRESENTATION_CONTEXT('Eyepiece_Cap','TOP_LEVEL_ASSEMBLY_PART')
);
#417=UNCERTAINTY_MEASURE_WITH_UNIT(LENGTH_MEASURE(2.E-5),#420,
'DISTANCE_ACCURACY_VALUE','Maximum Tolerance applied to model');
#418=(
NAMED_UNIT(*)
SI_UNIT($,.STERADIAN.)
SOLID_ANGLE_UNIT()
);
#419=(
NAMED_UNIT(*)
PLANE_ANGLE_UNIT()
SI_UNIT($,.RADIAN.)
);
#420=(
LENGTH_UNIT()
NAMED_UNIT(*)
SI_UNIT($,.METRE.)
);
#421=PRODUCT_DEFINITION_SHAPE('','',#422);
#422=PRODUCT_DEFINITION('','',#424,#423);
#423=PRODUCT_DEFINITION_CONTEXT('',#430,'design');
#424=PRODUCT_DEFINITION_FORMATION_WITH_SPECIFIED_SOURCE('','',#426,
 .NOT_KNOWN.);
#425=PRODUCT_RELATED_PRODUCT_CATEGORY('','',(#426));
#426=PRODUCT('Eyepiece_Cap','Eyepiece_Cap','Eyepiece_Cap',(#428));
#427=PRODUCT_CATEGORY('','');
#428=PRODUCT_CONTEXT('',#430,'mechanical');
#429=APPLICATION_PROTOCOL_DEFINITION('international standard',
'ap242_managed_model_based_3d_engineering',2020,#430);
#430=APPLICATION_CONTEXT('managed model based 3d engineering');
ENDSEC;
END-ISO-10303-21;
