ISO-10303-21;
HEADER;
/* Generated by software containing ST-Developer
 * from STEP Tools, Inc. (www.steptools.com) 
 */
/* OPTION: using custom renumber hook */

FILE_DESCRIPTION(
/* description */ ('STEP AP242 Edition 2',
'CAx-IF Rec.Pracs.---Representation and Presentation of Product Manufa
cturing Information (PMI)---4.0---2014-10-13',
'CAx-IF Rec.Pracs.---3D Tessellated Geometry---0.4---2014-09-14','2;1',
'CAx-IF Rec.Pracs.---User Defined Attributes---1.5---2016-08-15'),
/* implementation_level */ '2;1');

FILE_NAME(
/* name */ 'Part Studio 1 - Gasket',
/* time_stamp */ '2026-09-22T19:29:27Z',
/* author */ (''),
/* organization */ (''),
/* preprocessor_version */ 'ST-DEVELOPER v20',
/* originating_system */ 'ONSHAPE BY PTC INC, 1.221',
/* authorisation */ '  ');

FILE_SCHEMA (('AP242_MANAGED_MODEL_BASED_3D_ENGINEERING_MIM_LF { 1 0 10303 442 3 1 4 }'));
ENDSEC;

DATA;
#10=SHAPE_REPRESENTATION_RELATIONSHIP('','',#378,#11);
#11=ADVANCED_BREP_SHAPE_REPRESENTATION('',(#376),#616);
#12=CIRCLE('',#393,0.0016);
#13=CIRCLE('',#394,0.0016);
#14=CIRCLE('',#396,0.0016);
#15=CIRCLE('',#397,0.0016);
#16=CIRCLE('',#399,0.0016);
#17=CIRCLE('',#400,0.0016);
#18=CIRCLE('',#403,0.0016);
#19=CIRCLE('',#404,0.0016);
#20=CYLINDRICAL_SURFACE('',#392,0.0016);
#21=CYLINDRICAL_SURFACE('',#395,0.0016);
#22=CYLINDRICAL_SURFACE('',#398,0.0016);
#23=CYLINDRICAL_SURFACE('',#402,0.0016);
#24=B_SPLINE_CURVE_WITH_KNOTS('',3,(#519,#520,#521,#522),.UNSPECIFIED.,
 .F.,.F.,(4,4),(0.,1.),.UNSPECIFIED.);
#25=B_SPLINE_CURVE_WITH_KNOTS('',3,(#526,#527,#528,#529),.UNSPECIFIED.,
 .F.,.F.,(4,4),(0.,1.),.UNSPECIFIED.);
#26=B_SPLINE_CURVE_WITH_KNOTS('',3,(#555,#556,#557,#558),.UNSPECIFIED.,
 .F.,.F.,(4,4),(0.,0.001132616983406),.UNSPECIFIED.);
#27=B_SPLINE_CURVE_WITH_KNOTS('',3,(#562,#563,#564,#565),.UNSPECIFIED.,
 .F.,.F.,(4,4),(0.,0.001132616983406),.UNSPECIFIED.);
#28=B_SPLINE_CURVE_WITH_KNOTS('',3,(#573,#574,#575,#576),.UNSPECIFIED.,
 .F.,.F.,(4,4),(0.,0.001132616983406),.UNSPECIFIED.);
#29=B_SPLINE_CURVE_WITH_KNOTS('',3,(#580,#581,#582,#583),.UNSPECIFIED.,
 .F.,.F.,(4,4),(0.,0.001132616983406),.UNSPECIFIED.);
#30=ORIENTED_EDGE('',*,*,#124,.F.);
#31=ORIENTED_EDGE('',*,*,#125,.F.);
#32=ORIENTED_EDGE('',*,*,#126,.T.);
#33=ORIENTED_EDGE('',*,*,#127,.T.);
#34=ORIENTED_EDGE('',*,*,#128,.F.);
#35=ORIENTED_EDGE('',*,*,#129,.F.);
#36=ORIENTED_EDGE('',*,*,#130,.T.);
#37=ORIENTED_EDGE('',*,*,#125,.T.);
#38=ORIENTED_EDGE('',*,*,#131,.T.);
#39=ORIENTED_EDGE('',*,*,#132,.F.);
#40=ORIENTED_EDGE('',*,*,#133,.F.);
#41=ORIENTED_EDGE('',*,*,#129,.T.);
#42=ORIENTED_EDGE('',*,*,#134,.T.);
#43=ORIENTED_EDGE('',*,*,#135,.F.);
#44=ORIENTED_EDGE('',*,*,#136,.F.);
#45=ORIENTED_EDGE('',*,*,#132,.T.);
#46=ORIENTED_EDGE('',*,*,#137,.T.);
#47=ORIENTED_EDGE('',*,*,#138,.F.);
#48=ORIENTED_EDGE('',*,*,#139,.F.);
#49=ORIENTED_EDGE('',*,*,#135,.T.);
#50=ORIENTED_EDGE('',*,*,#140,.T.);
#51=ORIENTED_EDGE('',*,*,#141,.F.);
#52=ORIENTED_EDGE('',*,*,#142,.F.);
#53=ORIENTED_EDGE('',*,*,#138,.T.);
#54=ORIENTED_EDGE('',*,*,#143,.T.);
#55=ORIENTED_EDGE('',*,*,#144,.F.);
#56=ORIENTED_EDGE('',*,*,#145,.F.);
#57=ORIENTED_EDGE('',*,*,#141,.T.);
#58=ORIENTED_EDGE('',*,*,#146,.T.);
#59=ORIENTED_EDGE('',*,*,#147,.F.);
#60=ORIENTED_EDGE('',*,*,#148,.F.);
#61=ORIENTED_EDGE('',*,*,#144,.T.);
#62=ORIENTED_EDGE('',*,*,#149,.T.);
#63=ORIENTED_EDGE('',*,*,#150,.F.);
#64=ORIENTED_EDGE('',*,*,#151,.F.);
#65=ORIENTED_EDGE('',*,*,#147,.T.);
#66=ORIENTED_EDGE('',*,*,#152,.T.);
#67=ORIENTED_EDGE('',*,*,#153,.F.);
#68=ORIENTED_EDGE('',*,*,#154,.F.);
#69=ORIENTED_EDGE('',*,*,#150,.T.);
#70=ORIENTED_EDGE('',*,*,#155,.T.);
#71=ORIENTED_EDGE('',*,*,#156,.F.);
#72=ORIENTED_EDGE('',*,*,#157,.F.);
#73=ORIENTED_EDGE('',*,*,#153,.T.);
#74=ORIENTED_EDGE('',*,*,#158,.T.);
#75=ORIENTED_EDGE('',*,*,#159,.F.);
#76=ORIENTED_EDGE('',*,*,#160,.F.);
#77=ORIENTED_EDGE('',*,*,#156,.T.);
#78=ORIENTED_EDGE('',*,*,#161,.T.);
#79=ORIENTED_EDGE('',*,*,#162,.F.);
#80=ORIENTED_EDGE('',*,*,#163,.T.);
#81=ORIENTED_EDGE('',*,*,#164,.F.);
#82=ORIENTED_EDGE('',*,*,#165,.T.);
#83=ORIENTED_EDGE('',*,*,#166,.F.);
#84=ORIENTED_EDGE('',*,*,#167,.T.);
#85=ORIENTED_EDGE('',*,*,#127,.F.);
#86=ORIENTED_EDGE('',*,*,#168,.F.);
#87=ORIENTED_EDGE('',*,*,#159,.T.);
#88=ORIENTED_EDGE('',*,*,#169,.T.);
#89=ORIENTED_EDGE('',*,*,#170,.F.);
#90=ORIENTED_EDGE('',*,*,#126,.F.);
#91=ORIENTED_EDGE('',*,*,#130,.F.);
#92=ORIENTED_EDGE('',*,*,#133,.T.);
#93=ORIENTED_EDGE('',*,*,#136,.T.);
#94=ORIENTED_EDGE('',*,*,#139,.T.);
#95=ORIENTED_EDGE('',*,*,#142,.T.);
#96=ORIENTED_EDGE('',*,*,#145,.T.);
#97=ORIENTED_EDGE('',*,*,#148,.T.);
#98=ORIENTED_EDGE('',*,*,#151,.T.);
#99=ORIENTED_EDGE('',*,*,#154,.T.);
#100=ORIENTED_EDGE('',*,*,#157,.T.);
#101=ORIENTED_EDGE('',*,*,#160,.T.);
#102=ORIENTED_EDGE('',*,*,#168,.T.);
#103=ORIENTED_EDGE('',*,*,#165,.F.);
#104=ORIENTED_EDGE('',*,*,#163,.F.);
#105=ORIENTED_EDGE('',*,*,#161,.F.);
#106=ORIENTED_EDGE('',*,*,#169,.F.);
#107=ORIENTED_EDGE('',*,*,#124,.T.);
#108=ORIENTED_EDGE('',*,*,#167,.F.);
#109=ORIENTED_EDGE('',*,*,#158,.F.);
#110=ORIENTED_EDGE('',*,*,#155,.F.);
#111=ORIENTED_EDGE('',*,*,#152,.F.);
#112=ORIENTED_EDGE('',*,*,#149,.F.);
#113=ORIENTED_EDGE('',*,*,#146,.F.);
#114=ORIENTED_EDGE('',*,*,#143,.F.);
#115=ORIENTED_EDGE('',*,*,#140,.F.);
#116=ORIENTED_EDGE('',*,*,#137,.F.);
#117=ORIENTED_EDGE('',*,*,#134,.F.);
#118=ORIENTED_EDGE('',*,*,#131,.F.);
#119=ORIENTED_EDGE('',*,*,#128,.T.);
#120=ORIENTED_EDGE('',*,*,#166,.T.);
#121=ORIENTED_EDGE('',*,*,#164,.T.);
#122=ORIENTED_EDGE('',*,*,#162,.T.);
#123=ORIENTED_EDGE('',*,*,#170,.T.);
#124=EDGE_CURVE('',#171,#172,#205,.T.);
#125=EDGE_CURVE('',#173,#171,#206,.T.);
#126=EDGE_CURVE('',#173,#174,#207,.T.);
#127=EDGE_CURVE('',#174,#172,#208,.T.);
#128=EDGE_CURVE('',#175,#171,#209,.T.);
#129=EDGE_CURVE('',#176,#175,#210,.T.);
#130=EDGE_CURVE('',#176,#173,#211,.T.);
#131=EDGE_CURVE('',#175,#177,#212,.T.);
#132=EDGE_CURVE('',#178,#177,#213,.T.);
#133=EDGE_CURVE('',#176,#178,#214,.T.);
#134=EDGE_CURVE('',#177,#179,#24,.T.);
#135=EDGE_CURVE('',#180,#179,#215,.T.);
#136=EDGE_CURVE('',#178,#180,#25,.F.);
#137=EDGE_CURVE('',#179,#181,#216,.T.);
#138=EDGE_CURVE('',#182,#181,#217,.T.);
#139=EDGE_CURVE('',#180,#182,#218,.T.);
#140=EDGE_CURVE('',#181,#183,#219,.T.);
#141=EDGE_CURVE('',#184,#183,#220,.T.);
#142=EDGE_CURVE('',#182,#184,#221,.T.);
#143=EDGE_CURVE('',#183,#185,#222,.T.);
#144=EDGE_CURVE('',#186,#185,#223,.T.);
#145=EDGE_CURVE('',#184,#186,#224,.T.);
#146=EDGE_CURVE('',#185,#187,#225,.T.);
#147=EDGE_CURVE('',#188,#187,#226,.T.);
#148=EDGE_CURVE('',#186,#188,#227,.T.);
#149=EDGE_CURVE('',#187,#189,#26,.F.);
#150=EDGE_CURVE('',#190,#189,#228,.T.);
#151=EDGE_CURVE('',#188,#190,#27,.F.);
#152=EDGE_CURVE('',#189,#191,#229,.T.);
#153=EDGE_CURVE('',#192,#191,#230,.T.);
#154=EDGE_CURVE('',#190,#192,#231,.T.);
#155=EDGE_CURVE('',#191,#193,#28,.F.);
#156=EDGE_CURVE('',#194,#193,#232,.T.);
#157=EDGE_CURVE('',#192,#194,#29,.F.);
#158=EDGE_CURVE('',#193,#195,#233,.T.);
#159=EDGE_CURVE('',#196,#195,#234,.T.);
#160=EDGE_CURVE('',#194,#196,#235,.T.);
#161=EDGE_CURVE('',#197,#197,#12,.T.);
#162=EDGE_CURVE('',#198,#198,#13,.T.);
#163=EDGE_CURVE('',#199,#199,#14,.T.);
#164=EDGE_CURVE('',#200,#200,#15,.T.);
#165=EDGE_CURVE('',#201,#201,#16,.T.);
#166=EDGE_CURVE('',#202,#202,#17,.T.);
#167=EDGE_CURVE('',#195,#172,#236,.T.);
#168=EDGE_CURVE('',#196,#174,#237,.T.);
#169=EDGE_CURVE('',#203,#203,#18,.T.);
#170=EDGE_CURVE('',#204,#204,#19,.T.);
#171=VERTEX_POINT('',#499);
#172=VERTEX_POINT('',#500);
#173=VERTEX_POINT('',#502);
#174=VERTEX_POINT('',#504);
#175=VERTEX_POINT('',#508);
#176=VERTEX_POINT('',#510);
#177=VERTEX_POINT('',#514);
#178=VERTEX_POINT('',#516);
#179=VERTEX_POINT('',#523);
#180=VERTEX_POINT('',#525);
#181=VERTEX_POINT('',#532);
#182=VERTEX_POINT('',#534);
#183=VERTEX_POINT('',#538);
#184=VERTEX_POINT('',#540);
#185=VERTEX_POINT('',#544);
#186=VERTEX_POINT('',#546);
#187=VERTEX_POINT('',#550);
#188=VERTEX_POINT('',#552);
#189=VERTEX_POINT('',#559);
#190=VERTEX_POINT('',#561);
#191=VERTEX_POINT('',#568);
#192=VERTEX_POINT('',#570);
#193=VERTEX_POINT('',#577);
#194=VERTEX_POINT('',#579);
#195=VERTEX_POINT('',#586);
#196=VERTEX_POINT('',#588);
#197=VERTEX_POINT('',#592);
#198=VERTEX_POINT('',#594);
#199=VERTEX_POINT('',#597);
#200=VERTEX_POINT('',#599);
#201=VERTEX_POINT('',#602);
#202=VERTEX_POINT('',#604);
#203=VERTEX_POINT('',#610);
#204=VERTEX_POINT('',#612);
#205=LINE('',#498,#238);
#206=LINE('',#501,#239);
#207=LINE('',#503,#240);
#208=LINE('',#505,#241);
#209=LINE('',#507,#242);
#210=LINE('',#509,#243);
#211=LINE('',#511,#244);
#212=LINE('',#513,#245);
#213=LINE('',#515,#246);
#214=LINE('',#517,#247);
#215=LINE('',#524,#248);
#216=LINE('',#531,#249);
#217=LINE('',#533,#250);
#218=LINE('',#535,#251);
#219=LINE('',#537,#252);
#220=LINE('',#539,#253);
#221=LINE('',#541,#254);
#222=LINE('',#543,#255);
#223=LINE('',#545,#256);
#224=LINE('',#547,#257);
#225=LINE('',#549,#258);
#226=LINE('',#551,#259);
#227=LINE('',#553,#260);
#228=LINE('',#560,#261);
#229=LINE('',#567,#262);
#230=LINE('',#569,#263);
#231=LINE('',#571,#264);
#232=LINE('',#578,#265);
#233=LINE('',#585,#266);
#234=LINE('',#587,#267);
#235=LINE('',#589,#268);
#236=LINE('',#606,#269);
#237=LINE('',#607,#270);
#238=VECTOR('',#411,1.);
#239=VECTOR('',#412,1.);
#240=VECTOR('',#413,1.);
#241=VECTOR('',#414,1.);
#242=VECTOR('',#417,1.);
#243=VECTOR('',#418,1.);
#244=VECTOR('',#419,1.);
#245=VECTOR('',#422,1.);
#246=VECTOR('',#423,1.);
#247=VECTOR('',#424,1.);
#248=VECTOR('',#427,1.);
#249=VECTOR('',#430,1.);
#250=VECTOR('',#431,1.);
#251=VECTOR('',#432,1.);
#252=VECTOR('',#435,1.);
#253=VECTOR('',#436,1.);
#254=VECTOR('',#437,1.);
#255=VECTOR('',#440,1.);
#256=VECTOR('',#441,1.);
#257=VECTOR('',#442,1.);
#258=VECTOR('',#445,1.);
#259=VECTOR('',#446,1.);
#260=VECTOR('',#447,1.);
#261=VECTOR('',#450,1.);
#262=VECTOR('',#453,1.);
#263=VECTOR('',#454,1.);
#264=VECTOR('',#455,1.);
#265=VECTOR('',#458,1.);
#266=VECTOR('',#461,1.);
#267=VECTOR('',#462,1.);
#268=VECTOR('',#463,1.);
#269=VECTOR('',#484,1.);
#270=VECTOR('',#485,1.);
#271=EDGE_LOOP('',(#30,#31,#32,#33));
#272=EDGE_LOOP('',(#34,#35,#36,#37));
#273=EDGE_LOOP('',(#38,#39,#40,#41));
#274=EDGE_LOOP('',(#42,#43,#44,#45));
#275=EDGE_LOOP('',(#46,#47,#48,#49));
#276=EDGE_LOOP('',(#50,#51,#52,#53));
#277=EDGE_LOOP('',(#54,#55,#56,#57));
#278=EDGE_LOOP('',(#58,#59,#60,#61));
#279=EDGE_LOOP('',(#62,#63,#64,#65));
#280=EDGE_LOOP('',(#66,#67,#68,#69));
#281=EDGE_LOOP('',(#70,#71,#72,#73));
#282=EDGE_LOOP('',(#74,#75,#76,#77));
#283=EDGE_LOOP('',(#78));
#284=EDGE_LOOP('',(#79));
#285=EDGE_LOOP('',(#80));
#286=EDGE_LOOP('',(#81));
#287=EDGE_LOOP('',(#82));
#288=EDGE_LOOP('',(#83));
#289=EDGE_LOOP('',(#84,#85,#86,#87));
#290=EDGE_LOOP('',(#88));
#291=EDGE_LOOP('',(#89));
#292=EDGE_LOOP('',(#90,#91,#92,#93,#94,#95,#96,#97,#98,#99,#100,#101,#102));
#293=EDGE_LOOP('',(#103));
#294=EDGE_LOOP('',(#104));
#295=EDGE_LOOP('',(#105));
#296=EDGE_LOOP('',(#106));
#297=EDGE_LOOP('',(#107,#108,#109,#110,#111,#112,#113,#114,#115,#116,#117,
#118,#119));
#298=EDGE_LOOP('',(#120));
#299=EDGE_LOOP('',(#121));
#300=EDGE_LOOP('',(#122));
#301=EDGE_LOOP('',(#123));
#302=FACE_BOUND('',#271,.T.);
#303=FACE_BOUND('',#272,.T.);
#304=FACE_BOUND('',#273,.T.);
#305=FACE_BOUND('',#274,.T.);
#306=FACE_BOUND('',#275,.T.);
#307=FACE_BOUND('',#276,.T.);
#308=FACE_BOUND('',#277,.T.);
#309=FACE_BOUND('',#278,.T.);
#310=FACE_BOUND('',#279,.T.);
#311=FACE_BOUND('',#280,.T.);
#312=FACE_BOUND('',#281,.T.);
#313=FACE_BOUND('',#282,.T.);
#314=FACE_BOUND('',#283,.T.);
#315=FACE_BOUND('',#284,.T.);
#316=FACE_BOUND('',#285,.T.);
#317=FACE_BOUND('',#286,.T.);
#318=FACE_BOUND('',#287,.T.);
#319=FACE_BOUND('',#288,.T.);
#320=FACE_BOUND('',#289,.T.);
#321=FACE_BOUND('',#290,.T.);
#322=FACE_BOUND('',#291,.T.);
#323=FACE_BOUND('',#292,.T.);
#324=FACE_BOUND('',#293,.T.);
#325=FACE_BOUND('',#294,.T.);
#326=FACE_BOUND('',#295,.T.);
#327=FACE_BOUND('',#296,.T.);
#328=FACE_BOUND('',#297,.T.);
#329=FACE_BOUND('',#298,.T.);
#330=FACE_BOUND('',#299,.T.);
#331=FACE_BOUND('',#300,.T.);
#332=FACE_BOUND('',#301,.T.);
#333=PLANE('',#380);
#334=PLANE('',#381);
#335=PLANE('',#382);
#336=PLANE('',#383);
#337=PLANE('',#384);
#338=PLANE('',#385);
#339=PLANE('',#386);
#340=PLANE('',#387);
#341=PLANE('',#388);
#342=PLANE('',#389);
#343=PLANE('',#390);
#344=PLANE('',#391);
#345=PLANE('',#401);
#346=PLANE('',#405);
#347=PLANE('',#406);
#348=ADVANCED_FACE('',(#302),#333,.T.);
#349=ADVANCED_FACE('',(#303),#334,.T.);
#350=ADVANCED_FACE('',(#304),#335,.F.);
#351=ADVANCED_FACE('',(#305),#336,.F.);
#352=ADVANCED_FACE('',(#306),#337,.F.);
#353=ADVANCED_FACE('',(#307),#338,.F.);
#354=ADVANCED_FACE('',(#308),#339,.F.);
#355=ADVANCED_FACE('',(#309),#340,.F.);
#356=ADVANCED_FACE('',(#310),#341,.F.);
#357=ADVANCED_FACE('',(#311),#342,.F.);
#358=ADVANCED_FACE('',(#312),#343,.F.);
#359=ADVANCED_FACE('',(#313),#344,.F.);
#360=ADVANCED_FACE('',(#314,#315),#20,.F.);
#361=ADVANCED_FACE('',(#316,#317),#21,.F.);
#362=ADVANCED_FACE('',(#318,#319),#22,.F.);
#363=ADVANCED_FACE('',(#320),#345,.F.);
#364=ADVANCED_FACE('',(#321,#322),#23,.F.);
#365=ADVANCED_FACE('',(#323,#324,#325,#326,#327),#346,.T.);
#366=ADVANCED_FACE('',(#328,#329,#330,#331,#332),#347,.F.);
#367=CLOSED_SHELL('',(#348,#349,#350,#351,#352,#353,#354,#355,#356,#357,
#358,#359,#360,#361,#362,#363,#364,#365,#366));
#368=STYLED_ITEM('',(#369),#376);
#369=PRESENTATION_STYLE_ASSIGNMENT((#370));
#370=SURFACE_STYLE_USAGE(.BOTH.,#371);
#371=SURFACE_SIDE_STYLE('',(#372));
#372=SURFACE_STYLE_FILL_AREA(#373);
#373=FILL_AREA_STYLE('',(#374));
#374=FILL_AREA_STYLE_COLOUR('',#375);
#375=COLOUR_RGB('',0.980392156862745,0.713725490196078,0.00392156862745098);
#376=MANIFOLD_SOLID_BREP('Gasket',#367);
#377=SHAPE_DEFINITION_REPRESENTATION(#621,#378);
#378=SHAPE_REPRESENTATION('Gasket',(#379),#616);
#379=AXIS2_PLACEMENT_3D('',#496,#407,#408);
#380=AXIS2_PLACEMENT_3D('',#497,#409,#410);
#381=AXIS2_PLACEMENT_3D('',#506,#415,#416);
#382=AXIS2_PLACEMENT_3D('',#512,#420,#421);
#383=AXIS2_PLACEMENT_3D('',#518,#425,#426);
#384=AXIS2_PLACEMENT_3D('',#530,#428,#429);
#385=AXIS2_PLACEMENT_3D('',#536,#433,#434);
#386=AXIS2_PLACEMENT_3D('',#542,#438,#439);
#387=AXIS2_PLACEMENT_3D('',#548,#443,#444);
#388=AXIS2_PLACEMENT_3D('',#554,#448,#449);
#389=AXIS2_PLACEMENT_3D('',#566,#451,#452);
#390=AXIS2_PLACEMENT_3D('',#572,#456,#457);
#391=AXIS2_PLACEMENT_3D('',#584,#459,#460);
#392=AXIS2_PLACEMENT_3D('',#590,#464,#465);
#393=AXIS2_PLACEMENT_3D('',#591,#466,#467);
#394=AXIS2_PLACEMENT_3D('',#593,#468,#469);
#395=AXIS2_PLACEMENT_3D('',#595,#470,#471);
#396=AXIS2_PLACEMENT_3D('',#596,#472,#473);
#397=AXIS2_PLACEMENT_3D('',#598,#474,#475);
#398=AXIS2_PLACEMENT_3D('',#600,#476,#477);
#399=AXIS2_PLACEMENT_3D('',#601,#478,#479);
#400=AXIS2_PLACEMENT_3D('',#603,#480,#481);
#401=AXIS2_PLACEMENT_3D('',#605,#482,#483);
#402=AXIS2_PLACEMENT_3D('',#608,#486,#487);
#403=AXIS2_PLACEMENT_3D('',#609,#488,#489);
#404=AXIS2_PLACEMENT_3D('',#611,#490,#491);
#405=AXIS2_PLACEMENT_3D('',#613,#492,#493);
#406=AXIS2_PLACEMENT_3D('',#614,#494,#495);
#407=DIRECTION('',(0.,0.,1.));
#408=DIRECTION('',(1.,0.,0.));
#409=DIRECTION('',(0.358491345738581,0.933533049779461,4.39022925941047E-17));
#410=DIRECTION('',(-0.933533049779461,0.358491345738581,0.));
#411=DIRECTION('',(0.933533049779461,-0.358491345738581,1.14324213359313E-16));
#412=DIRECTION('',(1.22464023514027E-16,0.,-1.));
#413=DIRECTION('',(0.933533049779461,-0.358491345738581,1.14324213359313E-16));
#414=DIRECTION('',(1.22464023514027E-16,0.,-1.));
#415=DIRECTION('',(-0.710983637727267,0.703208551486757,-8.70699169287203E-17));
#416=DIRECTION('',(-0.703208551486757,-0.710983637727267,0.));
#417=DIRECTION('',(0.703208551486757,0.710983637727267,8.61177485845389E-17));
#418=DIRECTION('',(1.22464023514027E-16,0.,-1.));
#419=DIRECTION('',(0.703208551486757,0.710983637727267,8.61177485845389E-17));
#420=DIRECTION('',(1.,0.,1.22464023514027E-16));
#421=DIRECTION('',(1.22464023514027E-16,0.,-1.));
#422=DIRECTION('',(0.,-1.,0.));
#423=DIRECTION('',(1.22464023514027E-16,0.,-1.));
#424=DIRECTION('',(0.,-1.,0.));
#425=DIRECTION('',(0.456107834308074,0.889924515609498,5.58568005456358E-17));
#426=DIRECTION('',(-0.889924515609498,0.456107834308074,0.));
#427=DIRECTION('',(1.22464023514027E-16,0.,-1.));
#428=DIRECTION('',(9.44623562907961E-19,1.,1.15682402219864E-34));
#429=DIRECTION('',(-1.,9.44623562907961E-19,0.));
#430=DIRECTION('',(1.,-9.44623562907961E-19,1.22464023514027E-16));
#431=DIRECTION('',(1.22464023514027E-16,0.,-1.));
#432=DIRECTION('',(1.,-9.44623562907961E-19,1.22464023514027E-16));
#433=DIRECTION('',(-1.,0.,-1.22464023514027E-16));
#434=DIRECTION('',(-1.22464023514027E-16,0.,1.));
#435=DIRECTION('',(0.,1.,0.));
#436=DIRECTION('',(1.22464023514027E-16,0.,-1.));
#437=DIRECTION('',(0.,1.,0.));
#438=DIRECTION('',(-1.15921885538839E-18,-1.,-1.41962605164187E-34));
#439=DIRECTION('',(1.,-1.15921885538839E-18,0.));
#440=DIRECTION('',(-1.,1.15921885538839E-18,-1.22464023514027E-16));
#441=DIRECTION('',(1.22464023514027E-16,0.,-1.));
#442=DIRECTION('',(-1.,1.15921885538839E-18,-1.22464023514027E-16));
#443=DIRECTION('',(1.,0.,1.22464023514027E-16));
#444=DIRECTION('',(1.22464023514027E-16,0.,-1.));
#445=DIRECTION('',(0.,-1.,0.));
#446=DIRECTION('',(1.22464023514027E-16,0.,-1.));
#447=DIRECTION('',(0.,-1.,0.));
#448=DIRECTION('',(0.707883902727685,-0.706328804636354,8.66903109088442E-17));
#449=DIRECTION('',(0.706328804636355,0.707883902727685,0.));
#450=DIRECTION('',(1.22464023514027E-16,0.,-1.));
#451=DIRECTION('',(-1.01065077283108E-18,-1.,-1.23768360008455E-34));
#452=DIRECTION('',(1.,-1.01065077283108E-18,0.));
#453=DIRECTION('',(-1.,1.01065077283108E-18,-1.22464023514027E-16));
#454=DIRECTION('',(1.22464023514027E-16,0.,-1.));
#455=DIRECTION('',(-1.,1.01065077283108E-18,-1.22464023514027E-16));
#456=DIRECTION('',(-0.707883902727679,-0.706328804636361,-8.66903109088435E-17));
#457=DIRECTION('',(0.706328804636361,-0.707883902727679,0.));
#458=DIRECTION('',(1.22464023514027E-16,0.,-1.));
#459=DIRECTION('',(-1.,0.,-1.22464023514027E-16));
#460=DIRECTION('',(-1.22464023514027E-16,0.,1.));
#461=DIRECTION('',(0.,1.,0.));
#462=DIRECTION('',(1.22464023514027E-16,0.,-1.));
#463=DIRECTION('',(0.,1.,0.));
#464=DIRECTION('',(1.22464023514027E-16,0.,-1.));
#465=DIRECTION('',(-1.,0.,-1.22464023514027E-16));
#466=DIRECTION('',(-1.22464023514027E-16,0.,1.));
#467=DIRECTION('',(1.,0.,1.22464023514027E-16));
#468=DIRECTION('',(-1.22464023514027E-16,0.,1.));
#469=DIRECTION('',(1.,0.,1.22464023514027E-16));
#470=DIRECTION('',(1.22464023514027E-16,0.,-1.));
#471=DIRECTION('',(-1.,0.,-1.22464023514027E-16));
#472=DIRECTION('',(-1.22464023514027E-16,0.,1.));
#473=DIRECTION('',(1.,0.,1.22464023514027E-16));
#474=DIRECTION('',(-1.22464023514027E-16,0.,1.));
#475=DIRECTION('',(1.,0.,1.22464023514027E-16));
#476=DIRECTION('',(1.22464023514027E-16,0.,-1.));
#477=DIRECTION('',(-1.,0.,-1.22464023514027E-16));
#478=DIRECTION('',(-1.22464023514027E-16,0.,1.));
#479=DIRECTION('',(1.,0.,1.22464023514027E-16));
#480=DIRECTION('',(-1.22464023514027E-16,0.,1.));
#481=DIRECTION('',(1.,0.,1.22464023514027E-16));
#482=DIRECTION('',(-1.14898226101703E-18,-1.,-1.4070899063039E-34));
#483=DIRECTION('',(1.,-1.14898226101703E-18,0.));
#484=DIRECTION('',(-1.,1.14898226101703E-18,-1.22464023514027E-16));
#485=DIRECTION('',(-1.,1.14898226101703E-18,-1.22464023514027E-16));
#486=DIRECTION('',(1.22464023514027E-16,0.,-1.));
#487=DIRECTION('',(-1.,0.,-1.22464023514027E-16));
#488=DIRECTION('',(-1.22464023514027E-16,0.,1.));
#489=DIRECTION('',(1.,0.,1.22464023514027E-16));
#490=DIRECTION('',(-1.22464023514027E-16,0.,1.));
#491=DIRECTION('',(1.,0.,1.22464023514027E-16));
#492=DIRECTION('',(-1.22464023514027E-16,0.,1.));
#493=DIRECTION('',(1.,0.,1.22464023514027E-16));
#494=DIRECTION('',(-1.22464023514027E-16,0.,1.));
#495=DIRECTION('',(1.,0.,1.22464023514027E-16));
#496=CARTESIAN_POINT('',(0.,0.,0.));
#497=CARTESIAN_POINT('',(-0.0422042102138219,-0.0362899917117821,0.000375));
#498=CARTESIAN_POINT('',(-0.0422042102138219,-0.0362899917117821,-2.4999999999999E-5));
#499=CARTESIAN_POINT('',(-0.0667084204276438,-0.0268799903220194,-2.50000000000021E-5));
#500=CARTESIAN_POINT('',(-0.0177,-0.0456999931015448,-2.49999999999961E-5));
#501=CARTESIAN_POINT('',(-0.0667084204276438,-0.0268799903220194,0.000375));
#502=CARTESIAN_POINT('',(-0.0667084204276438,-0.0268799903220194,0.000375));
#503=CARTESIAN_POINT('',(-0.0422042102138219,-0.0362899917117821,0.000375));
#504=CARTESIAN_POINT('',(-0.0177,-0.0456999931015448,0.000375));
#505=CARTESIAN_POINT('',(-0.0177,-0.0456999931015448,0.000375));
#506=CARTESIAN_POINT('',(-0.0678542102138219,-0.0280384486321826,0.000375));
#507=CARTESIAN_POINT('',(-0.0678542102138219,-0.0280384486321826,-2.50000000000022E-5));
#508=CARTESIAN_POINT('',(-0.069,-0.0291969069423458,-2.50000000000023E-5));
#509=CARTESIAN_POINT('',(-0.069,-0.0291969069423458,0.000375));
#510=CARTESIAN_POINT('',(-0.069,-0.0291969069423458,0.000375));
#511=CARTESIAN_POINT('',(-0.0678542102138219,-0.0280384486321826,0.000375));
#512=CARTESIAN_POINT('',(-0.069,0.133,0.000375));
#513=CARTESIAN_POINT('',(-0.069,0.133,-2.50000000000023E-5));
#514=CARTESIAN_POINT('',(-0.0689999997266479,-0.0347529289496753,-2.50000000000023E-5));
#515=CARTESIAN_POINT('',(-0.0689999997266479,-0.0347529289496753,0.000375));
#516=CARTESIAN_POINT('',(-0.0689999997266479,-0.0347529289496753,0.000375));
#517=CARTESIAN_POINT('',(-0.069,0.133,0.000375));
#518=CARTESIAN_POINT('',(-0.0689999994532958,-0.0347529284163448,0.000375));
#519=CARTESIAN_POINT('',(-0.0689999994532958,-0.0347529284163448,-2.50000000000006E-5));
#520=CARTESIAN_POINT('',(-0.0557678226568691,-0.041534739003579,-2.49999999999991E-5));
#521=CARTESIAN_POINT('',(-0.0425356458604424,-0.0483165495908132,-2.49999999999976E-5));
#522=CARTESIAN_POINT('',(-0.0293034690640157,-0.0550983601780474,-2.49999999999961E-5));
#523=CARTESIAN_POINT('',(-0.0293034690640157,-0.0550983605441661,-2.49999999999974E-5));
#524=CARTESIAN_POINT('',(-0.0293034690640157,-0.0550983605441661,0.000375));
#525=CARTESIAN_POINT('',(-0.0293034690640157,-0.0550983605441661,0.000375));
#526=CARTESIAN_POINT('',(-0.0293034690640157,-0.0550983601780474,0.000375000000000005));
#527=CARTESIAN_POINT('',(-0.0425356458604424,-0.0483165495908132,0.000375000000000003));
#528=CARTESIAN_POINT('',(-0.0557678226568691,-0.041534739003579,0.000375000000000002));
#529=CARTESIAN_POINT('',(-0.0689999994532958,-0.0347529284163448,0.000375));
#530=CARTESIAN_POINT('',(-2.26667753265831E-19,-0.0550983609102848,0.000375000000000006));
#531=CARTESIAN_POINT('',(-1.77682143860221E-19,-0.0550983609102848,-2.49999999999938E-5));
#532=CARTESIAN_POINT('',(0.0841,-0.0550983609102848,-2.49999999999835E-5));
#533=CARTESIAN_POINT('',(0.0841,-0.0550983609102848,0.000375000000000016));
#534=CARTESIAN_POINT('',(0.0841,-0.0550983609102848,0.000375000000000016));
#535=CARTESIAN_POINT('',(-2.26667753265831E-19,-0.0550983609102848,0.000375000000000006));
#536=CARTESIAN_POINT('',(0.0841,-0.0448999930400885,0.000375000000000016));
#537=CARTESIAN_POINT('',(0.0841,-0.0448999930400885,-2.49999999999835E-5));
#538=CARTESIAN_POINT('',(0.0841,-0.0452999930400886,-2.49999999999835E-5));
#539=CARTESIAN_POINT('',(0.0841,-0.0452999930400886,0.000375000000000016));
#540=CARTESIAN_POINT('',(0.0841,-0.0452999930400886,0.000375000000000016));
#541=CARTESIAN_POINT('',(0.0841,-0.0448999930400885,0.000375000000000016));
#542=CARTESIAN_POINT('',(0.0645,-0.0452999930400886,0.000375000000000014));
#543=CARTESIAN_POINT('',(0.0645,-0.0452999930400886,-2.4999999999986E-5));
#544=CARTESIAN_POINT('',(0.0649,-0.0452999930400886,-2.49999999999859E-5));
#545=CARTESIAN_POINT('',(0.0649,-0.0452999930400886,0.000375000000000014));
#546=CARTESIAN_POINT('',(0.0649,-0.0452999930400886,0.000375000000000014));
#547=CARTESIAN_POINT('',(0.0645,-0.0452999930400886,0.000375000000000014));
#548=CARTESIAN_POINT('',(0.0649,0.133,0.000375000000000014));
#549=CARTESIAN_POINT('',(0.0649,0.133,-2.49999999999859E-5));
#550=CARTESIAN_POINT('',(0.0649,-0.0510982326015294,-2.49999999999859E-5));
#551=CARTESIAN_POINT('',(0.0649,-0.0510982326015294,0.000375000000000014));
#552=CARTESIAN_POINT('',(0.0649,-0.0510982326015294,0.000375000000000014));
#553=CARTESIAN_POINT('',(0.0649,0.133,0.000375000000000014));
#554=CARTESIAN_POINT('',(0.0641,-0.0518999939320385,0.000375000000000014));
#555=CARTESIAN_POINT('',(0.0641,-0.0518999939320385,-2.4999999999986E-5));
#556=CARTESIAN_POINT('',(0.0643666666666667,-0.0516327401552021,-2.4999999999986E-5));
#557=CARTESIAN_POINT('',(0.0646333333333333,-0.0513654863783658,-2.49999999999859E-5));
#558=CARTESIAN_POINT('',(0.0649,-0.0510982326015294,-2.49999999999859E-5));
#559=CARTESIAN_POINT('',(0.0641,-0.0518999939320385,-2.4999999999986E-5));
#560=CARTESIAN_POINT('',(0.0641,-0.0518999939320385,0.000375000000000014));
#561=CARTESIAN_POINT('',(0.0641,-0.0518999939320385,0.000375000000000014));
#562=CARTESIAN_POINT('',(0.0641,-0.0518999939320385,0.000375000000000014));
#563=CARTESIAN_POINT('',(0.0643666666666667,-0.0516327401552021,0.000375000000000014));
#564=CARTESIAN_POINT('',(0.0646333333333333,-0.0513654863783658,0.000375000000000014));
#565=CARTESIAN_POINT('',(0.0649,-0.0510982326015294,0.000375000000000014));
#566=CARTESIAN_POINT('',(-2.35854931169488E-19,-0.0518999939320385,0.000375000000000006));
#567=CARTESIAN_POINT('',(-1.86869321763878E-19,-0.0518999939320385,-2.49999999999938E-5));
#568=CARTESIAN_POINT('',(0.0029,-0.0518999939320385,-2.49999999999935E-5));
#569=CARTESIAN_POINT('',(0.0029,-0.0518999939320385,0.000375000000000007));
#570=CARTESIAN_POINT('',(0.0029,-0.0518999939320385,0.000375000000000007));
#571=CARTESIAN_POINT('',(-2.35854931169488E-19,-0.0518999939320385,0.000375000000000006));
#572=CARTESIAN_POINT('',(0.0021,-0.0510982326015294,0.000375000000000007));
#573=CARTESIAN_POINT('',(0.0021,-0.0510982326015294,-2.49999999999936E-5));
#574=CARTESIAN_POINT('',(0.00236666666666667,-0.0513654863783658,-2.49999999999936E-5));
#575=CARTESIAN_POINT('',(0.00263333333333333,-0.0516327401552021,-2.49999999999935E-5));
#576=CARTESIAN_POINT('',(0.0029,-0.0518999939320385,-2.49999999999935E-5));
#577=CARTESIAN_POINT('',(0.0021,-0.0510982326015294,-2.49999999999936E-5));
#578=CARTESIAN_POINT('',(0.0021,-0.0510982326015294,0.000375000000000007));
#579=CARTESIAN_POINT('',(0.0021,-0.0510982326015294,0.000375000000000007));
#580=CARTESIAN_POINT('',(0.0021,-0.0510982326015294,0.000375000000000007));
#581=CARTESIAN_POINT('',(0.00236666666666667,-0.0513654863783658,0.000375000000000007));
#582=CARTESIAN_POINT('',(0.00263333333333333,-0.0516327401552021,0.000375000000000006));
#583=CARTESIAN_POINT('',(0.0029,-0.0518999939320385,0.000375000000000007));
#584=CARTESIAN_POINT('',(0.0021,0.133,0.000375000000000007));
#585=CARTESIAN_POINT('',(0.0021,0.133,-2.49999999999936E-5));
#586=CARTESIAN_POINT('',(0.0021,-0.0456999931015448,-2.49999999999936E-5));
#587=CARTESIAN_POINT('',(0.0021,-0.0456999931015448,0.000375000000000007));
#588=CARTESIAN_POINT('',(0.0021,-0.0456999931015448,0.000375000000000007));
#589=CARTESIAN_POINT('',(0.0021,0.133,0.000375000000000007));
#590=CARTESIAN_POINT('',(-0.036519466004455,-0.0479183944395722,0.000375));
#591=CARTESIAN_POINT('',(-0.036519466004455,-0.0479183944395722,0.000375));
#592=CARTESIAN_POINT('',(-0.034919466004455,-0.0479183944395722,0.000375));
#593=CARTESIAN_POINT('',(-0.036519466004455,-0.0479183944395722,-2.49999999999984E-5));
#594=CARTESIAN_POINT('',(-0.034919466004455,-0.0479183944395722,-2.49999999999982E-5));
#595=CARTESIAN_POINT('',(0.0775,-0.052,0.000375000000000016));
#596=CARTESIAN_POINT('',(0.0775,-0.052,0.000375000000000016));
#597=CARTESIAN_POINT('',(0.0791,-0.052,0.000375000000000016));
#598=CARTESIAN_POINT('',(0.0775,-0.052,-2.49999999999843E-5));
#599=CARTESIAN_POINT('',(0.0791,-0.052,-2.49999999999842E-5));
#600=CARTESIAN_POINT('',(-0.0194,-0.052,0.000375));
#601=CARTESIAN_POINT('',(-0.0194,-0.052,0.000375));
#602=CARTESIAN_POINT('',(-0.0178,-0.052,0.000375));
#603=CARTESIAN_POINT('',(-0.0194,-0.052,-2.49999999999963E-5));
#604=CARTESIAN_POINT('',(-0.0178,-0.052,-2.49999999999961E-5));
#605=CARTESIAN_POINT('',(-2.54308731523152E-19,-0.0456999931015448,0.000375000000000006));
#606=CARTESIAN_POINT('',(-2.05323122117541E-19,-0.0456999931015448,-2.49999999999938E-5));
#607=CARTESIAN_POINT('',(-2.54308731523152E-19,-0.0456999931015448,0.000375000000000006));
#608=CARTESIAN_POINT('',(-0.062280533995545,-0.0347158470941386,0.000375));
#609=CARTESIAN_POINT('',(-0.062280533995545,-0.0347158470941386,0.000375));
#610=CARTESIAN_POINT('',(-0.060680533995545,-0.0347158470941386,0.000375));
#611=CARTESIAN_POINT('',(-0.062280533995545,-0.0347158470941386,-2.50000000000015E-5));
#612=CARTESIAN_POINT('',(-0.060680533995545,-0.0347158470941386,-2.50000000000013E-5));
#613=CARTESIAN_POINT('',(0.00735001249999999,-0.000774180455142388,0.000375000000000007));
#614=CARTESIAN_POINT('',(0.00735001249999999,-0.000774180455142388,-2.4999999999993E-5));
#615=MECHANICAL_DESIGN_GEOMETRIC_PRESENTATION_REPRESENTATION('',(#368),
#616);
#616=(
GEOMETRIC_REPRESENTATION_CONTEXT(3)
GLOBAL_UNCERTAINTY_ASSIGNED_CONTEXT((#617))
GLOBAL_UNIT_ASSIGNED_CONTEXT((#620,#619,#618))
REPRESENTATION_CONTEXT('Gasket','TOP_LEVEL_ASSEMBLY_PART')
);
#617=UNCERTAINTY_MEASURE_WITH_UNIT(LENGTH_MEASURE(2.E-5),#620,
'DISTANCE_ACCURACY_VALUE','Maximum Tolerance applied to model');
#618=(
NAMED_UNIT(*)
SI_UNIT($,.STERADIAN.)
SOLID_ANGLE_UNIT()
);
#619=(
NAMED_UNIT(*)
PLANE_ANGLE_UNIT()
SI_UNIT($,.RADIAN.)
);
#620=(
LENGTH_UNIT()
NAMED_UNIT(*)
SI_UNIT($,.METRE.)
);
#621=PRODUCT_DEFINITION_SHAPE('','',#622);
#622=PRODUCT_DEFINITION('','',#624,#623);
#623=PRODUCT_DEFINITION_CONTEXT('',#630,'design');
#624=PRODUCT_DEFINITION_FORMATION_WITH_SPECIFIED_SOURCE('','',#626,
 .NOT_KNOWN.);
#625=PRODUCT_RELATED_PRODUCT_CATEGORY('','',(#626));
#626=PRODUCT('Gasket','Gasket','Gasket',(#628));
#627=PRODUCT_CATEGORY('','');
#628=PRODUCT_CONTEXT('',#630,'mechanical');
#629=APPLICATION_PROTOCOL_DEFINITION('international standard',
'ap242_managed_model_based_3d_engineering',2020,#630);
#630=APPLICATION_CONTEXT('managed model based 3d engineering');
ENDSEC;
END-ISO-10303-21;
