ISO-10303-21;
HEADER;
/* Generated by software containing ST-Developer
 * from STEP Tools, Inc. (www.steptools.com) 
 */
/* OPTION: using custom renumber hook */

FILE_DESCRIPTION(
/* description */ ('STEP AP242 Edition 2',
'CAx-IF Rec.Pracs.---Representation and Presentation of Product Manufa
cturing Information (PMI)---4.0---2014-10-13',
'CAx-IF Rec.Pracs.---3D Tessellated Geometry---0.4---2014-09-14','2;1',
'CAx-IF Rec.Pracs.---User Defined Attributes---1.5---2016-08-15'),
/* implementation_level */ '2;1');

FILE_NAME(
/* name */ 'Part Studio 1 - Part 2',
/* time_stamp */ '2026-08-29T17:51:31Z',
/* author */ (''),
/* organization */ (''),
/* preprocessor_version */ 'ST-DEVELOPER v20',
/* originating_system */ 'ONSHAPE BY PTC INC, 1.220',
/* authorisation */ '  ');

FILE_SCHEMA (('AP242_MANAGED_MODEL_BASED_3D_ENGINEERING_MIM_LF { 1 0 10303 442 3 1 4 }'));
ENDSEC;

DATA;
#10=SHAPE_REPRESENTATION_RELATIONSHIP('','',#323,#11);
#11=ADVANCED_BREP_SHAPE_REPRESENTATION('',(#321),#619);
#12=CONICAL_SURFACE('',#341,0.00475,0.785398163397445);
#13=CONICAL_SURFACE('',#346,0.00475,0.785398163397445);
#14=CONICAL_SURFACE('',#350,0.00435,0.785398163397445);
#15=B_SPLINE_SURFACE_WITH_KNOTS('',1,3,((#546,#547,#548,#549,#550,#551,
#552,#553,#554,#555),(#556,#557,#558,#559,#560,#561,#562,#563,#564,#565)),
 .RULED_SURF.,.F.,.F.,.F.,(2,2),(4,2,2,2,4),(0.,1.),(0.,0.0015848943302272,
0.0031697886604544,0.00475468299068159,0.00633957732090879),
 .UNSPECIFIED.);
#16=B_SPLINE_SURFACE_WITH_KNOTS('',1,3,((#590,#591,#592,#593,#594,#595,
#596,#597,#598,#599),(#600,#601,#602,#603,#604,#605,#606,#607,#608,#609)),
 .RULED_SURF.,.F.,.F.,.F.,(2,2),(4,2,2,2,4),(0.,1.),(0.,0.0015848943302272,
0.0031697886604544,0.00475468299068159,0.00633957732090879),
 .UNSPECIFIED.);
#17=PLANE('',#329);
#18=PLANE('',#331);
#19=PLANE('',#333);
#20=PLANE('',#336);
#21=PLANE('',#337);
#22=PLANE('',#338);
#23=PLANE('',#339);
#24=PLANE('',#340);
#25=PLANE('',#342);
#26=PLANE('',#343);
#27=PLANE('',#344);
#28=PLANE('',#345);
#29=PLANE('',#347);
#30=PLANE('',#348);
#31=PLANE('',#349);
#32=CIRCLE('',#326,0.00475);
#33=CIRCLE('',#327,0.00475);
#34=CIRCLE('',#328,0.00475);
#35=CIRCLE('',#330,0.00435);
#36=CIRCLE('',#332,0.00435);
#37=CIRCLE('',#334,0.00435);
#38=B_SPLINE_CURVE_WITH_KNOTS('',3,(#436,#437,#438,#439,#440,#441,#442),
 .UNSPECIFIED.,.F.,.F.,(4,1,1,1,4),(0.,0.25,0.5,0.75,1.),.UNSPECIFIED.);
#39=B_SPLINE_CURVE_WITH_KNOTS('',3,(#450,#451,#452,#453,#454,#455,#456),
 .UNSPECIFIED.,.F.,.F.,(4,1,1,1,4),(0.,0.25,0.5,0.75,1.),.UNSPECIFIED.);
#40=B_SPLINE_CURVE_WITH_KNOTS('',3,(#480,#481,#482,#483,#484,#485,#486,
#487,#488,#489,#490,#491,#492,#493,#494,#495,#496,#497,#498,#499,#500),
 .UNSPECIFIED.,.F.,.F.,(4,1,1,1,1,1,1,1,1,1,1,1,1,1,1,1,1,1,4),(0.,0.0625,
0.09375,0.125,0.15625,0.1875,0.25,0.3125,0.375,0.5,0.625,0.6875,0.75,0.8125,
0.84375,0.875,0.90625,0.9375,1.),.UNSPECIFIED.);
#41=B_SPLINE_CURVE_WITH_KNOTS('',3,(#504,#505,#506,#507,#508,#509,#510,
#511,#512,#513,#514,#515,#516,#517,#518,#519,#520,#521,#522,#523,#524),
 .UNSPECIFIED.,.F.,.F.,(4,1,1,1,1,1,1,1,1,1,1,1,1,1,1,1,1,1,4),(0.,0.0625,
0.09375,0.125,0.15625,0.1875,0.25,0.3125,0.375,0.5,0.625,0.6875,0.75,0.8125,
0.84375,0.875,0.90625,0.9375,1.),.UNSPECIFIED.);
#42=B_SPLINE_CURVE_WITH_KNOTS('',3,(#539,#540,#541,#542),.UNSPECIFIED.,
 .F.,.F.,(4,4),(0.,1.),.UNSPECIFIED.);
#43=B_SPLINE_CURVE_WITH_KNOTS('',3,(#566,#567,#568,#569),.UNSPECIFIED.,
 .F.,.F.,(4,4),(0.,1.),.UNSPECIFIED.);
#44=B_SPLINE_CURVE_WITH_KNOTS('',3,(#582,#583,#584,#585),.UNSPECIFIED.,
 .F.,.F.,(4,4),(0.,1.),.UNSPECIFIED.);
#45=B_SPLINE_CURVE_WITH_KNOTS('',3,(#610,#611,#612,#613),.UNSPECIFIED.,
 .F.,.F.,(4,4),(0.,1.),.UNSPECIFIED.);
#46=ORIENTED_EDGE('',*,*,#126,.T.);
#47=ORIENTED_EDGE('',*,*,#127,.T.);
#48=ORIENTED_EDGE('',*,*,#128,.T.);
#49=ORIENTED_EDGE('',*,*,#129,.T.);
#50=ORIENTED_EDGE('',*,*,#130,.T.);
#51=ORIENTED_EDGE('',*,*,#131,.T.);
#52=ORIENTED_EDGE('',*,*,#132,.T.);
#53=ORIENTED_EDGE('',*,*,#133,.T.);
#54=ORIENTED_EDGE('',*,*,#134,.T.);
#55=ORIENTED_EDGE('',*,*,#135,.T.);
#56=ORIENTED_EDGE('',*,*,#136,.T.);
#57=ORIENTED_EDGE('',*,*,#137,.T.);
#58=ORIENTED_EDGE('',*,*,#138,.T.);
#59=ORIENTED_EDGE('',*,*,#139,.T.);
#60=ORIENTED_EDGE('',*,*,#140,.T.);
#61=ORIENTED_EDGE('',*,*,#141,.T.);
#62=ORIENTED_EDGE('',*,*,#142,.F.);
#63=ORIENTED_EDGE('',*,*,#143,.T.);
#64=ORIENTED_EDGE('',*,*,#144,.T.);
#65=ORIENTED_EDGE('',*,*,#145,.T.);
#66=ORIENTED_EDGE('',*,*,#140,.F.);
#67=ORIENTED_EDGE('',*,*,#146,.T.);
#68=ORIENTED_EDGE('',*,*,#142,.T.);
#69=ORIENTED_EDGE('',*,*,#147,.T.);
#70=ORIENTED_EDGE('',*,*,#148,.T.);
#71=ORIENTED_EDGE('',*,*,#149,.T.);
#72=ORIENTED_EDGE('',*,*,#150,.F.);
#73=ORIENTED_EDGE('',*,*,#128,.F.);
#74=ORIENTED_EDGE('',*,*,#151,.F.);
#75=ORIENTED_EDGE('',*,*,#149,.F.);
#76=ORIENTED_EDGE('',*,*,#152,.F.);
#77=ORIENTED_EDGE('',*,*,#150,.T.);
#78=ORIENTED_EDGE('',*,*,#153,.F.);
#79=ORIENTED_EDGE('',*,*,#151,.T.);
#80=ORIENTED_EDGE('',*,*,#127,.F.);
#81=ORIENTED_EDGE('',*,*,#154,.F.);
#82=ORIENTED_EDGE('',*,*,#143,.F.);
#83=ORIENTED_EDGE('',*,*,#153,.T.);
#84=ORIENTED_EDGE('',*,*,#148,.F.);
#85=ORIENTED_EDGE('',*,*,#155,.F.);
#86=ORIENTED_EDGE('',*,*,#137,.F.);
#87=ORIENTED_EDGE('',*,*,#152,.T.);
#88=ORIENTED_EDGE('',*,*,#138,.F.);
#89=ORIENTED_EDGE('',*,*,#156,.F.);
#90=ORIENTED_EDGE('',*,*,#129,.F.);
#91=ORIENTED_EDGE('',*,*,#154,.T.);
#92=ORIENTED_EDGE('',*,*,#126,.F.);
#93=ORIENTED_EDGE('',*,*,#157,.F.);
#94=ORIENTED_EDGE('',*,*,#146,.F.);
#95=ORIENTED_EDGE('',*,*,#156,.T.);
#96=ORIENTED_EDGE('',*,*,#155,.T.);
#97=ORIENTED_EDGE('',*,*,#158,.F.);
#98=ORIENTED_EDGE('',*,*,#159,.F.);
#99=ORIENTED_EDGE('',*,*,#157,.T.);
#100=ORIENTED_EDGE('',*,*,#160,.F.);
#101=ORIENTED_EDGE('',*,*,#158,.T.);
#102=ORIENTED_EDGE('',*,*,#147,.F.);
#103=ORIENTED_EDGE('',*,*,#161,.F.);
#104=ORIENTED_EDGE('',*,*,#130,.F.);
#105=ORIENTED_EDGE('',*,*,#160,.T.);
#106=ORIENTED_EDGE('',*,*,#133,.F.);
#107=ORIENTED_EDGE('',*,*,#162,.F.);
#108=ORIENTED_EDGE('',*,*,#136,.F.);
#109=ORIENTED_EDGE('',*,*,#159,.T.);
#110=ORIENTED_EDGE('',*,*,#135,.F.);
#111=ORIENTED_EDGE('',*,*,#163,.F.);
#112=ORIENTED_EDGE('',*,*,#144,.F.);
#113=ORIENTED_EDGE('',*,*,#161,.T.);
#114=ORIENTED_EDGE('',*,*,#141,.F.);
#115=ORIENTED_EDGE('',*,*,#164,.F.);
#116=ORIENTED_EDGE('',*,*,#131,.F.);
#117=ORIENTED_EDGE('',*,*,#163,.T.);
#118=ORIENTED_EDGE('',*,*,#162,.T.);
#119=ORIENTED_EDGE('',*,*,#165,.F.);
#120=ORIENTED_EDGE('',*,*,#164,.T.);
#121=ORIENTED_EDGE('',*,*,#145,.F.);
#122=ORIENTED_EDGE('',*,*,#165,.T.);
#123=ORIENTED_EDGE('',*,*,#132,.F.);
#124=ORIENTED_EDGE('',*,*,#134,.F.);
#125=ORIENTED_EDGE('',*,*,#139,.F.);
#126=EDGE_CURVE('',#166,#167,#188,.T.);
#127=EDGE_CURVE('',#167,#168,#38,.T.);
#128=EDGE_CURVE('',#168,#169,#189,.F.);
#129=EDGE_CURVE('',#169,#170,#32,.T.);
#130=EDGE_CURVE('',#170,#171,#190,.T.);
#131=EDGE_CURVE('',#171,#172,#39,.T.);
#132=EDGE_CURVE('',#172,#173,#191,.F.);
#133=EDGE_CURVE('',#173,#166,#33,.T.);
#134=EDGE_CURVE('',#174,#174,#34,.F.);
#135=EDGE_CURVE('',#175,#176,#192,.T.);
#136=EDGE_CURVE('',#176,#175,#35,.F.);
#137=EDGE_CURVE('',#177,#178,#193,.T.);
#138=EDGE_CURVE('',#178,#177,#36,.F.);
#139=EDGE_CURVE('',#179,#179,#37,.T.);
#140=EDGE_CURVE('',#180,#181,#194,.T.);
#141=EDGE_CURVE('',#181,#182,#40,.T.);
#142=EDGE_CURVE('',#183,#182,#195,.T.);
#143=EDGE_CURVE('',#183,#180,#41,.T.);
#144=EDGE_CURVE('',#184,#185,#196,.T.);
#145=EDGE_CURVE('',#185,#181,#197,.T.);
#146=EDGE_CURVE('',#180,#184,#198,.T.);
#147=EDGE_CURVE('',#182,#186,#199,.T.);
#148=EDGE_CURVE('',#186,#187,#200,.T.);
#149=EDGE_CURVE('',#187,#183,#201,.T.);
#150=EDGE_CURVE('',#169,#187,#202,.F.);
#151=EDGE_CURVE('',#183,#168,#42,.F.);
#152=EDGE_CURVE('',#169,#177,#203,.F.);
#153=EDGE_CURVE('',#177,#187,#204,.T.);
#154=EDGE_CURVE('',#180,#167,#43,.T.);
#155=EDGE_CURVE('',#178,#186,#205,.F.);
#156=EDGE_CURVE('',#170,#178,#206,.T.);
#157=EDGE_CURVE('',#184,#166,#207,.F.);
#158=EDGE_CURVE('',#170,#186,#208,.F.);
#159=EDGE_CURVE('',#184,#176,#209,.F.);
#160=EDGE_CURVE('',#176,#166,#210,.F.);
#161=EDGE_CURVE('',#171,#182,#44,.F.);
#162=EDGE_CURVE('',#175,#173,#211,.T.);
#163=EDGE_CURVE('',#185,#175,#212,.T.);
#164=EDGE_CURVE('',#172,#181,#45,.T.);
#165=EDGE_CURVE('',#185,#173,#213,.F.);
#166=VERTEX_POINT('',#434);
#167=VERTEX_POINT('',#435);
#168=VERTEX_POINT('',#443);
#169=VERTEX_POINT('',#445);
#170=VERTEX_POINT('',#447);
#171=VERTEX_POINT('',#449);
#172=VERTEX_POINT('',#457);
#173=VERTEX_POINT('',#459);
#174=VERTEX_POINT('',#462);
#175=VERTEX_POINT('',#465);
#176=VERTEX_POINT('',#466);
#177=VERTEX_POINT('',#470);
#178=VERTEX_POINT('',#471);
#179=VERTEX_POINT('',#475);
#180=VERTEX_POINT('',#478);
#181=VERTEX_POINT('',#479);
#182=VERTEX_POINT('',#501);
#183=VERTEX_POINT('',#503);
#184=VERTEX_POINT('',#527);
#185=VERTEX_POINT('',#528);
#186=VERTEX_POINT('',#533);
#187=VERTEX_POINT('',#535);
#188=LINE('',#433,#214);
#189=LINE('',#444,#215);
#190=LINE('',#448,#216);
#191=LINE('',#458,#217);
#192=LINE('',#464,#218);
#193=LINE('',#469,#219);
#194=LINE('',#477,#220);
#195=LINE('',#502,#221);
#196=LINE('',#526,#222);
#197=LINE('',#529,#223);
#198=LINE('',#530,#224);
#199=LINE('',#532,#225);
#200=LINE('',#534,#226);
#201=LINE('',#536,#227);
#202=LINE('',#538,#228);
#203=LINE('',#544,#229);
#204=LINE('',#545,#230);
#205=LINE('',#571,#231);
#206=LINE('',#573,#232);
#207=LINE('',#575,#233);
#208=LINE('',#577,#234);
#209=LINE('',#579,#235);
#210=LINE('',#580,#236);
#211=LINE('',#587,#237);
#212=LINE('',#589,#238);
#213=LINE('',#615,#239);
#214=VECTOR('',#355,1.);
#215=VECTOR('',#356,1.);
#216=VECTOR('',#359,1.);
#217=VECTOR('',#360,1.);
#218=VECTOR('',#367,1.);
#219=VECTOR('',#372,1.);
#220=VECTOR('',#381,1.);
#221=VECTOR('',#382,1.);
#222=VECTOR('',#385,1.);
#223=VECTOR('',#386,1.);
#224=VECTOR('',#387,1.);
#225=VECTOR('',#390,1.);
#226=VECTOR('',#391,1.);
#227=VECTOR('',#392,1.);
#228=VECTOR('',#395,1.);
#229=VECTOR('',#398,1.);
#230=VECTOR('',#399,1.);
#231=VECTOR('',#402,1.);
#232=VECTOR('',#405,1.);
#233=VECTOR('',#408,1.);
#234=VECTOR('',#411,1.);
#235=VECTOR('',#414,1.);
#236=VECTOR('',#415,1.);
#237=VECTOR('',#420,1.);
#238=VECTOR('',#423,1.);
#239=VECTOR('',#426,1.);
#240=EDGE_LOOP('',(#46,#47,#48,#49,#50,#51,#52,#53));
#241=EDGE_LOOP('',(#54));
#242=EDGE_LOOP('',(#55,#56));
#243=EDGE_LOOP('',(#57,#58));
#244=EDGE_LOOP('',(#59));
#245=EDGE_LOOP('',(#60,#61,#62,#63));
#246=EDGE_LOOP('',(#64,#65,#66,#67));
#247=EDGE_LOOP('',(#68,#69,#70,#71));
#248=EDGE_LOOP('',(#72,#73,#74,#75));
#249=EDGE_LOOP('',(#76,#77,#78));
#250=EDGE_LOOP('',(#79,#80,#81,#82));
#251=EDGE_LOOP('',(#83,#84,#85,#86));
#252=EDGE_LOOP('',(#87,#88,#89,#90));
#253=EDGE_LOOP('',(#91,#92,#93,#94));
#254=EDGE_LOOP('',(#95,#96,#97));
#255=EDGE_LOOP('',(#98,#99,#100));
#256=EDGE_LOOP('',(#101,#102,#103,#104));
#257=EDGE_LOOP('',(#105,#106,#107,#108));
#258=EDGE_LOOP('',(#109,#110,#111,#112));
#259=EDGE_LOOP('',(#113,#114,#115,#116));
#260=EDGE_LOOP('',(#117,#118,#119));
#261=EDGE_LOOP('',(#120,#121,#122,#123));
#262=EDGE_LOOP('',(#124));
#263=EDGE_LOOP('',(#125));
#264=FACE_BOUND('',#240,.T.);
#265=FACE_BOUND('',#241,.T.);
#266=FACE_BOUND('',#242,.T.);
#267=FACE_BOUND('',#243,.T.);
#268=FACE_BOUND('',#244,.T.);
#269=FACE_BOUND('',#245,.T.);
#270=FACE_BOUND('',#246,.T.);
#271=FACE_BOUND('',#247,.T.);
#272=FACE_BOUND('',#248,.T.);
#273=FACE_BOUND('',#249,.T.);
#274=FACE_BOUND('',#250,.T.);
#275=FACE_BOUND('',#251,.T.);
#276=FACE_BOUND('',#252,.T.);
#277=FACE_BOUND('',#253,.T.);
#278=FACE_BOUND('',#254,.T.);
#279=FACE_BOUND('',#255,.T.);
#280=FACE_BOUND('',#256,.T.);
#281=FACE_BOUND('',#257,.T.);
#282=FACE_BOUND('',#258,.T.);
#283=FACE_BOUND('',#259,.T.);
#284=FACE_BOUND('',#260,.T.);
#285=FACE_BOUND('',#261,.T.);
#286=FACE_BOUND('',#262,.T.);
#287=FACE_BOUND('',#263,.T.);
#288=CYLINDRICAL_SURFACE('',#325,0.00475);
#289=CYLINDRICAL_SURFACE('',#335,0.0016);
#290=ADVANCED_FACE('',(#264,#265),#288,.T.);
#291=ADVANCED_FACE('',(#266),#17,.F.);
#292=ADVANCED_FACE('',(#267),#18,.F.);
#293=ADVANCED_FACE('',(#268),#19,.T.);
#294=ADVANCED_FACE('',(#269),#289,.F.);
#295=ADVANCED_FACE('',(#270),#20,.T.);
#296=ADVANCED_FACE('',(#271),#21,.F.);
#297=ADVANCED_FACE('',(#272),#22,.F.);
#298=ADVANCED_FACE('',(#273),#23,.T.);
#299=ADVANCED_FACE('',(#274),#15,.T.);
#300=ADVANCED_FACE('',(#275),#24,.F.);
#301=ADVANCED_FACE('',(#276),#12,.T.);
#302=ADVANCED_FACE('',(#277),#25,.F.);
#303=ADVANCED_FACE('',(#278),#26,.T.);
#304=ADVANCED_FACE('',(#279),#27,.T.);
#305=ADVANCED_FACE('',(#280),#28,.T.);
#306=ADVANCED_FACE('',(#281),#13,.T.);
#307=ADVANCED_FACE('',(#282),#29,.T.);
#308=ADVANCED_FACE('',(#283),#16,.T.);
#309=ADVANCED_FACE('',(#284),#30,.T.);
#310=ADVANCED_FACE('',(#285),#31,.T.);
#311=ADVANCED_FACE('',(#286,#287),#14,.T.);
#312=CLOSED_SHELL('',(#290,#291,#292,#293,#294,#295,#296,#297,#298,#299,
#300,#301,#302,#303,#304,#305,#306,#307,#308,#309,#310,#311));
#313=STYLED_ITEM('',(#314),#321);
#314=PRESENTATION_STYLE_ASSIGNMENT((#315));
#315=SURFACE_STYLE_USAGE(.BOTH.,#316);
#316=SURFACE_SIDE_STYLE('',(#317));
#317=SURFACE_STYLE_FILL_AREA(#318);
#318=FILL_AREA_STYLE('',(#319));
#319=FILL_AREA_STYLE_COLOUR('',#320);
#320=COLOUR_RGB('',0.647058823529412,0.647058823529412,0.647058823529412);
#321=MANIFOLD_SOLID_BREP('Part 2',#312);
#322=SHAPE_DEFINITION_REPRESENTATION(#624,#323);
#323=SHAPE_REPRESENTATION('Part 2',(#324),#619);
#324=AXIS2_PLACEMENT_3D('',#431,#351,#352);
#325=AXIS2_PLACEMENT_3D('',#432,#353,#354);
#326=AXIS2_PLACEMENT_3D('',#446,#357,#358);
#327=AXIS2_PLACEMENT_3D('',#460,#361,#362);
#328=AXIS2_PLACEMENT_3D('',#461,#363,#364);
#329=AXIS2_PLACEMENT_3D('',#463,#365,#366);
#330=AXIS2_PLACEMENT_3D('',#467,#368,#369);
#331=AXIS2_PLACEMENT_3D('',#468,#370,#371);
#332=AXIS2_PLACEMENT_3D('',#472,#373,#374);
#333=AXIS2_PLACEMENT_3D('',#473,#375,#376);
#334=AXIS2_PLACEMENT_3D('',#474,#377,#378);
#335=AXIS2_PLACEMENT_3D('',#476,#379,#380);
#336=AXIS2_PLACEMENT_3D('',#525,#383,#384);
#337=AXIS2_PLACEMENT_3D('',#531,#388,#389);
#338=AXIS2_PLACEMENT_3D('',#537,#393,#394);
#339=AXIS2_PLACEMENT_3D('',#543,#396,#397);
#340=AXIS2_PLACEMENT_3D('',#570,#400,#401);
#341=AXIS2_PLACEMENT_3D('',#572,#403,#404);
#342=AXIS2_PLACEMENT_3D('',#574,#406,#407);
#343=AXIS2_PLACEMENT_3D('',#576,#409,#410);
#344=AXIS2_PLACEMENT_3D('',#578,#412,#413);
#345=AXIS2_PLACEMENT_3D('',#581,#416,#417);
#346=AXIS2_PLACEMENT_3D('',#586,#418,#419);
#347=AXIS2_PLACEMENT_3D('',#588,#421,#422);
#348=AXIS2_PLACEMENT_3D('',#614,#424,#425);
#349=AXIS2_PLACEMENT_3D('',#616,#427,#428);
#350=AXIS2_PLACEMENT_3D('',#617,#429,#430);
#351=DIRECTION('',(0.,0.,1.));
#352=DIRECTION('',(1.,0.,0.));
#353=DIRECTION('',(0.,0.,1.));
#354=DIRECTION('',(1.,0.,0.));
#355=DIRECTION('',(0.,0.,1.));
#356=DIRECTION('',(0.,0.,1.));
#357=DIRECTION('',(0.,0.,1.));
#358=DIRECTION('',(1.,0.,0.));
#359=DIRECTION('',(0.,0.,1.));
#360=DIRECTION('',(0.,0.,1.));
#361=DIRECTION('',(0.,0.,1.));
#362=DIRECTION('',(1.,0.,0.));
#363=DIRECTION('',(0.,0.,1.));
#364=DIRECTION('',(1.,0.,0.));
#365=DIRECTION('',(0.,0.,1.));
#366=DIRECTION('',(1.,0.,0.));
#367=DIRECTION('',(0.,-1.,0.));
#368=DIRECTION('',(0.,0.,1.));
#369=DIRECTION('',(1.,0.,0.));
#370=DIRECTION('',(0.,0.,1.));
#371=DIRECTION('',(1.,0.,0.));
#372=DIRECTION('',(0.,1.,0.));
#373=DIRECTION('',(0.,0.,1.));
#374=DIRECTION('',(1.,0.,0.));
#375=DIRECTION('',(0.,0.,1.));
#376=DIRECTION('',(1.,0.,0.));
#377=DIRECTION('',(0.,0.,1.));
#378=DIRECTION('',(1.,0.,0.));
#379=DIRECTION('',(0.,1.,0.));
#380=DIRECTION('',(0.,0.,1.));
#381=DIRECTION('',(0.,1.,0.));
#382=DIRECTION('',(0.,1.,0.));
#383=DIRECTION('',(1.,0.,0.));
#384=DIRECTION('',(0.,0.,-1.));
#385=DIRECTION('',(0.,1.,0.));
#386=DIRECTION('',(0.,0.,1.));
#387=DIRECTION('',(0.,0.,-1.));
#388=DIRECTION('',(1.,0.,0.));
#389=DIRECTION('',(0.,0.,-1.));
#390=DIRECTION('',(0.,0.,-1.));
#391=DIRECTION('',(0.,-1.,0.));
#392=DIRECTION('',(0.,0.,1.));
#393=DIRECTION('',(0.519725879257994,0.854333079325332,0.));
#394=DIRECTION('',(0.,0.,1.));
#395=DIRECTION('',(0.854333079325332,-0.519725879257994,0.));
#396=DIRECTION('',(-0.461161154403933,-0.75806351931065,-0.461161674859462));
#397=DIRECTION('',(0.,0.519726307372061,-0.854332818885826));
#398=DIRECTION('',(0.325106068419068,-0.627937930274237,0.70710678118655));
#399=DIRECTION('',(-0.707106781186462,-4.85470711434221E-7,0.707106781186466));
#400=DIRECTION('',(0.70710678118655,0.,0.707106781186545));
#401=DIRECTION('',(0.,1.,0.));
#402=DIRECTION('',(0.707106781186462,-4.85470723708697E-7,-0.707106781186466));
#403=DIRECTION('',(0.,0.,1.));
#404=DIRECTION('',(1.,0.,0.));
#405=DIRECTION('',(-0.325106068419068,-0.627937930274237,-0.70710678118655));
#406=DIRECTION('',(-0.519725879257994,0.854333079325332,0.));
#407=DIRECTION('',(0.,0.,1.));
#408=DIRECTION('',(0.854333079325332,0.519725879257994,0.));
#409=DIRECTION('',(-0.461161154403925,0.758063519310652,-0.461161674859467));
#410=DIRECTION('',(0.,0.519726307372064,0.854332818885824));
#411=DIRECTION('',(0.854333079325337,0.519725879257987,-9.47728141031718E-17));
#412=DIRECTION('',(0.461161154403933,-0.75806351931065,-0.461161674859462));
#413=DIRECTION('',(0.,0.519726307372061,-0.854332818885826));
#414=DIRECTION('',(0.707106781186462,-4.85470711434221E-7,0.707106781186466));
#415=DIRECTION('',(0.325106068419068,0.627937930274237,-0.70710678118655));
#416=DIRECTION('',(-0.519725879257987,0.854333079325337,0.));
#417=DIRECTION('',(0.,0.,1.));
#418=DIRECTION('',(0.,0.,1.));
#419=DIRECTION('',(1.,0.,0.));
#420=DIRECTION('',(-0.325106068419068,0.627937930274237,0.70710678118655));
#421=DIRECTION('',(0.70710678118655,0.,-0.707106781186545));
#422=DIRECTION('',(0.,-1.,0.));
#423=DIRECTION('',(-0.707106781186462,-4.85470723708697E-7,-0.707106781186466));
#424=DIRECTION('',(0.461161154403925,0.758063519310652,-0.461161674859467));
#425=DIRECTION('',(0.,0.519726307372064,0.854332818885824));
#426=DIRECTION('',(0.854333079325337,-0.519725879257987,9.47728141031718E-17));
#427=DIRECTION('',(0.519725879257987,0.854333079325337,0.));
#428=DIRECTION('',(0.,0.,1.));
#429=DIRECTION('',(0.,0.,-1.));
#430=DIRECTION('',(-1.,0.,0.));
#431=CARTESIAN_POINT('',(0.,0.,0.));
#432=CARTESIAN_POINT('',(0.0552591159939766,-0.0581884868443012,-0.0045));
#433=CARTESIAN_POINT('',(0.0530752082295093,-0.062406667361574,-0.0045));
#434=CARTESIAN_POINT('',(0.0530752082295093,-0.062406667361574,-0.0041));
#435=CARTESIAN_POINT('',(0.0530752082295093,-0.062406667361574,-0.0026));
#436=CARTESIAN_POINT('',(0.0530752082295093,-0.0624066673615739,-0.0026));
#437=CARTESIAN_POINT('',(0.0530725179052974,-0.0624052744814183,-0.00207866660727774));
#438=CARTESIAN_POINT('',(0.0535489358138665,-0.0626884477830761,-0.00103391970570451));
#439=CARTESIAN_POINT('',(0.0552539170604901,-0.0630634630029341,-0.00038275683531046));
#440=CARTESIAN_POINT('',(0.0569715829446024,-0.0626886152607885,-0.00103506603279499));
#441=CARTESIAN_POINT('',(0.0574448042082423,-0.0624057455569895,-0.00207369524538658));
#442=CARTESIAN_POINT('',(0.0574430237584439,-0.0624066673615739,-0.0026));
#443=CARTESIAN_POINT('',(0.0574430237584439,-0.062406667361574,-0.0026));
#444=CARTESIAN_POINT('',(0.0574430237584439,-0.062406667361574,-0.0045));
#445=CARTESIAN_POINT('',(0.0574430237584439,-0.062406667361574,-0.0041));
#446=CARTESIAN_POINT('',(0.0552591159939766,-0.0581884868443012,-0.0041));
#447=CARTESIAN_POINT('',(0.0574430237584439,-0.0539703063270285,-0.0041));
#448=CARTESIAN_POINT('',(0.0574430237584439,-0.0539703063270285,-0.0045));
#449=CARTESIAN_POINT('',(0.0574430237584439,-0.0539703063270285,-0.0026));
#450=CARTESIAN_POINT('',(0.0574430237584439,-0.0539703063270285,-0.0026));
#451=CARTESIAN_POINT('',(0.0574457140826459,-0.0539716992071789,-0.00207866660723053));
#452=CARTESIAN_POINT('',(0.0569692961740916,-0.0536885259055285,-0.00103391970572544));
#453=CARTESIAN_POINT('',(0.0552643149274609,-0.0533135106856682,-0.000382756835308018));
#454=CARTESIAN_POINT('',(0.0535466490433548,-0.0536883584278122,-0.00103506603278383));
#455=CARTESIAN_POINT('',(0.053073427779703,-0.053971228131617,-0.00207369524541425));
#456=CARTESIAN_POINT('',(0.0530752082295093,-0.0539703063270285,-0.0026));
#457=CARTESIAN_POINT('',(0.0530752082295093,-0.0539703063270285,-0.0026));
#458=CARTESIAN_POINT('',(0.0530752082295093,-0.0539703063270285,-0.0045));
#459=CARTESIAN_POINT('',(0.0530752082295093,-0.0539703063270285,-0.0041));
#460=CARTESIAN_POINT('',(0.0552591159939766,-0.0581884868443012,-0.0041));
#461=CARTESIAN_POINT('',(0.0552591159939766,-0.0581884868443012,-0.0004));
#462=CARTESIAN_POINT('',(0.0600091159939766,-0.0581884868443012,-0.0004));
#463=CARTESIAN_POINT('',(0.0552591159939766,-0.0581884868443012,-0.0045));
#464=CARTESIAN_POINT('',(0.0532591159939766,-0.0626609022990639,-0.0045));
#465=CARTESIAN_POINT('',(0.0532591159939766,-0.0543255216619575,-0.0045));
#466=CARTESIAN_POINT('',(0.0532591159939766,-0.062051452026645,-0.0045));
#467=CARTESIAN_POINT('',(0.0552591159939766,-0.0581884868443012,-0.0045));
#468=CARTESIAN_POINT('',(0.0552591159939766,-0.0581884868443012,-0.0045));
#469=CARTESIAN_POINT('',(0.0572591159939766,-0.0581884868443012,-0.0045));
#470=CARTESIAN_POINT('',(0.0572591159939766,-0.062051452026645,-0.0045));
#471=CARTESIAN_POINT('',(0.0572591159939766,-0.0543255216619575,-0.0045));
#472=CARTESIAN_POINT('',(0.0552591159939766,-0.0581884868443012,-0.0045));
#473=CARTESIAN_POINT('',(0.0552591159939766,-0.0581884868443012,0.));
#474=CARTESIAN_POINT('',(0.0552591159939766,-0.0581884868443012,0.));
#475=CARTESIAN_POINT('',(0.0596091159939766,-0.0581884868443012,0.));
#476=CARTESIAN_POINT('',(0.0552591159939766,-0.0788,-0.0026));
#477=CARTESIAN_POINT('',(0.0536591159939766,-0.0788,-0.0026));
#478=CARTESIAN_POINT('',(0.0536591159939766,-0.0620514523012687,-0.0026));
#479=CARTESIAN_POINT('',(0.0536591159939766,-0.0543255213873338,-0.0026));
#480=CARTESIAN_POINT('',(0.0536591159939766,-0.0543255213873338,-0.0026));
#481=CARTESIAN_POINT('',(0.0536591159939766,-0.0543260998321466,-0.00250428125173382));
#482=CARTESIAN_POINT('',(0.0536732328015466,-0.0543162725054629,-0.00235049199373168));
#483=CARTESIAN_POINT('',(0.0537209740085597,-0.0542858596074927,-0.00214641220989379));
#484=CARTESIAN_POINT('',(0.0537876504528472,-0.0542462346519908,-0.00196585407580231));
#485=CARTESIAN_POINT('',(0.0538284891280651,-0.0542224359511108,-0.00188132940705395));
#486=CARTESIAN_POINT('',(0.0539224452376343,-0.0541702888139438,-0.00170814667130811));
#487=CARTESIAN_POINT('',(0.0541173456371186,-0.0540735212216986,-0.00145693168203857));
#488=CARTESIAN_POINT('',(0.0544125741933285,-0.0539654635697482,-0.00122670763033994));
#489=CARTESIAN_POINT('',(0.0548169665818741,-0.0538684344534337,-0.0010377310499823));
#490=CARTESIAN_POINT('',(0.0552619796034254,-0.0538183925547095,-0.000974516716396457));
#491=CARTESIAN_POINT('',(0.0557039747884414,-0.0538688258959553,-0.00103872678175494));
#492=CARTESIAN_POINT('',(0.0561071536993633,-0.0539657886298027,-0.00122765909472447));
#493=CARTESIAN_POINT('',(0.0564014185743381,-0.0540738343451133,-0.00145769853444241));
#494=CARTESIAN_POINT('',(0.0565951497462073,-0.0541700129724673,-0.00170722201726765));
#495=CARTESIAN_POINT('',(0.0566896624658111,-0.0542223011300818,-0.00188105682235103));
#496=CARTESIAN_POINT('',(0.0567314290653763,-0.054246593530221,-0.00196776122045836));
#497=CARTESIAN_POINT('',(0.0567977641716366,-0.0542861057533671,-0.00214817967163099));
#498=CARTESIAN_POINT('',(0.0568452537068739,-0.0543165029568907,-0.00235219381152446));
#499=CARTESIAN_POINT('',(0.0568591159939766,-0.0543262046825946,-0.00250511058493395));
#500=CARTESIAN_POINT('',(0.0568591159939766,-0.0543255213873338,-0.0026));
#501=CARTESIAN_POINT('',(0.0568591159939766,-0.0543255213873338,-0.0026));
#502=CARTESIAN_POINT('',(0.0568591159939766,-0.0788,-0.0026));
#503=CARTESIAN_POINT('',(0.0568591159939766,-0.0620514523012687,-0.0026));
#504=CARTESIAN_POINT('',(0.0568591159939766,-0.0620514523012687,-0.0026));
#505=CARTESIAN_POINT('',(0.0568591159939766,-0.0620508738564558,-0.00250428125173419));
#506=CARTESIAN_POINT('',(0.0568449991864073,-0.0620607011831392,-0.00235049199373361));
#507=CARTESIAN_POINT('',(0.0567972579793926,-0.0620911140811103,-0.00214641220989205));
#508=CARTESIAN_POINT('',(0.0567305815351099,-0.0621307390366095,-0.00196585407581058));
#509=CARTESIAN_POINT('',(0.0566897428598734,-0.0621545377374993,-0.00188132940702258));
#510=CARTESIAN_POINT('',(0.056595786750293,-0.0622066848746689,-0.00170814667127075));
#511=CARTESIAN_POINT('',(0.0564008863508371,-0.0623034524669012,-0.0014569316820467));
#512=CARTESIAN_POINT('',(0.0561056577946462,-0.0624115101188519,-0.00122670763035391));
#513=CARTESIAN_POINT('',(0.0557012654061168,-0.0625085392351633,-0.00103773104999355));
#514=CARTESIAN_POINT('',(0.055256252384531,-0.0625585811338977,-0.000974516716389045));
#515=CARTESIAN_POINT('',(0.0548142571994644,-0.0625081477926385,-0.00103872678176593));
#516=CARTESIAN_POINT('',(0.0544110782885578,-0.0624111850587919,-0.00122765909474893));
#517=CARTESIAN_POINT('',(0.0541168134136288,-0.062303139343495,-0.001457698534429));
#518=CARTESIAN_POINT('',(0.0539230822417293,-0.062206960716123,-0.00170722201728977));
#519=CARTESIAN_POINT('',(0.053828569522133,-0.0621546725585119,-0.00188105682237146));
#520=CARTESIAN_POINT('',(0.0537868029225817,-0.0621303801583837,-0.00196776122044585));
#521=CARTESIAN_POINT('',(0.0537204678163066,-0.0620908679352349,-0.00214817967166063));
#522=CARTESIAN_POINT('',(0.0536729782810744,-0.0620604707317123,-0.0023521938115597));
#523=CARTESIAN_POINT('',(0.0536591159939766,-0.0620507690060079,-0.00250511058495557));
#524=CARTESIAN_POINT('',(0.0536591159939766,-0.0620514523012687,-0.0026));
#525=CARTESIAN_POINT('',(0.0536591159939766,-0.0788,-0.00450853910395569));
#526=CARTESIAN_POINT('',(0.0536591159939766,-0.0537160713895386,-0.0041));
#527=CARTESIAN_POINT('',(0.0536591159939766,-0.0620514523012687,-0.0041));
#528=CARTESIAN_POINT('',(0.0536591159939766,-0.0543255213873338,-0.0041));
#529=CARTESIAN_POINT('',(0.0536591159939766,-0.0543255213873338,-0.00450853910395569));
#530=CARTESIAN_POINT('',(0.0536591159939766,-0.0620514523012687,-0.00450853910395569));
#531=CARTESIAN_POINT('',(0.0568591159939766,-0.0788,-0.00450853910395569));
#532=CARTESIAN_POINT('',(0.0568591159939766,-0.0543255213873338,-0.0045));
#533=CARTESIAN_POINT('',(0.0568591159939766,-0.0543255213873338,-0.0041));
#534=CARTESIAN_POINT('',(0.0568591159939766,-0.0788,-0.0041));
#535=CARTESIAN_POINT('',(0.0568591159939766,-0.0620514523012687,-0.0041));
#536=CARTESIAN_POINT('',(0.0568591159939766,-0.0620514523012687,-0.0026));
#537=CARTESIAN_POINT('',(0.0568591159939766,-0.0620514523012687,-0.0045));
#538=CARTESIAN_POINT('',(0.0574430237584439,-0.062406667361574,-0.0041));
#539=CARTESIAN_POINT('',(0.0574430237584439,-0.062406667361574,-0.0026));
#540=CARTESIAN_POINT('',(0.0572483878369548,-0.0622882623414722,-0.0026));
#541=CARTESIAN_POINT('',(0.0570537519154657,-0.0621698573213705,-0.0026));
#542=CARTESIAN_POINT('',(0.0568591159939766,-0.0620514523012687,-0.0026));
#543=CARTESIAN_POINT('',(0.0574430237584439,-0.062406667361574,-0.0041));
#544=CARTESIAN_POINT('',(0.0552591171991496,-0.0581884848632201,-0.00884999879482569));
#545=CARTESIAN_POINT('',(0.0571510697542721,-0.0620514521008251,-0.0043919537602955));
#546=CARTESIAN_POINT('',(0.0530752082295093,-0.062406667361574,-0.0026));
#547=CARTESIAN_POINT('',(0.0530732818937132,-0.0624033085366317,-0.00206604781687425));
#548=CARTESIAN_POINT('',(0.0533170524957709,-0.062541304806662,-0.00155083719647452));
#549=CARTESIAN_POINT('',(0.0541109372598853,-0.0628190091819474,-0.000822321375589767));
#550=CARTESIAN_POINT('',(0.0546730141360312,-0.0629381514206161,-0.000600635752235053));
#551=CARTESIAN_POINT('',(0.0558390481974452,-0.0629388202645842,-0.000599368607678727));
#552=CARTESIAN_POINT('',(0.0564058654232976,-0.0628192724951967,-0.000821123344926569));
#553=CARTESIAN_POINT('',(0.057201355803023,-0.0625414724218626,-0.00155088692779771));
#554=CARTESIAN_POINT('',(0.0574440333176885,-0.0624038198205701,-0.00206060029789198));
#555=CARTESIAN_POINT('',(0.0574430237584439,-0.062406667361574,-0.0026));
#556=CARTESIAN_POINT('',(0.0536591159939766,-0.0620514523012687,-0.0026));
#557=CARTESIAN_POINT('',(0.0536577046993588,-0.0620483763246302,-0.00217283821404558));
#558=CARTESIAN_POINT('',(0.0538362988206906,-0.0621747518857708,-0.00176066962231571));
#559=CARTESIAN_POINT('',(0.0544179238294501,-0.0624290705887027,-0.00117785702645991));
#560=CARTESIAN_POINT('',(0.0548297156315291,-0.0625381798231899,-0.00100050845829986));
#561=CARTESIAN_POINT('',(0.0556839962721405,-0.062538792348608,-0.000999494734070783));
#562=CARTESIAN_POINT('',(0.0560992609621621,-0.062429311746762,-0.00117689855935427));
#563=CARTESIAN_POINT('',(0.0566820623805643,-0.0621749053674644,-0.00176070944986448));
#564=CARTESIAN_POINT('',(0.0568598556290553,-0.0620488445530962,-0.00216848019845724));
#565=CARTESIAN_POINT('',(0.0568591159939766,-0.0620514523012687,-0.0026));
#566=CARTESIAN_POINT('',(0.0536591159939766,-0.0620514523012687,-0.0026));
#567=CARTESIAN_POINT('',(0.0534644800724875,-0.0621698573213705,-0.0026));
#568=CARTESIAN_POINT('',(0.0532698441509984,-0.0622882623414722,-0.0026));
#569=CARTESIAN_POINT('',(0.0530752082295093,-0.062406667361574,-0.0026));
#570=CARTESIAN_POINT('',(0.0572591159939766,-0.0581884868443012,-0.0045));
#571=CARTESIAN_POINT('',(0.0568591159939766,-0.0543255213873338,-0.0041));
#572=CARTESIAN_POINT('',(0.0552591159939766,-0.0581884868443012,-0.0041));
#573=CARTESIAN_POINT('',(0.0552591171991496,-0.0581884888253824,-0.00884999879482569));
#574=CARTESIAN_POINT('',(0.0530752082295093,-0.062406667361574,-0.0045));
#575=CARTESIAN_POINT('',(0.0536591159939766,-0.0620514523012687,-0.0041));
#576=CARTESIAN_POINT('',(0.0568591159939766,-0.0543255213873338,-0.0041));
#577=CARTESIAN_POINT('',(0.0568591159939766,-0.0543255213873338,-0.0041));
#578=CARTESIAN_POINT('',(0.0536591159939766,-0.0620514523012687,-0.0041));
#579=CARTESIAN_POINT('',(0.0536591159939766,-0.0620514523012687,-0.0041));
#580=CARTESIAN_POINT('',(0.0552591147888036,-0.0581884848632201,-0.00884999879482569));
#581=CARTESIAN_POINT('',(0.0568591159939766,-0.0543255213873338,-0.0045));
#582=CARTESIAN_POINT('',(0.0568591159939766,-0.0543255213873338,-0.0026));
#583=CARTESIAN_POINT('',(0.0570537519154657,-0.054207116367232,-0.0026));
#584=CARTESIAN_POINT('',(0.0572483878369548,-0.0540887113471303,-0.0026));
#585=CARTESIAN_POINT('',(0.0574430237584439,-0.0539703063270285,-0.0026));
#586=CARTESIAN_POINT('',(0.0552591159939766,-0.0581884868443012,-0.0041));
#587=CARTESIAN_POINT('',(0.0552591147888036,-0.0581884888253824,-0.00884999879482569));
#588=CARTESIAN_POINT('',(0.0536591159939766,-0.0788,-0.0041));
#589=CARTESIAN_POINT('',(0.0533671622336811,-0.0543255215877773,-0.0043919537602955));
#590=CARTESIAN_POINT('',(0.0574430237584439,-0.0539703063270285,-0.0026));
#591=CARTESIAN_POINT('',(0.0574449500942399,-0.0539736651519708,-0.00206604781687425));
#592=CARTESIAN_POINT('',(0.0572011794921823,-0.0538356688819405,-0.00155083719647452));
#593=CARTESIAN_POINT('',(0.0564072947280678,-0.053557964506655,-0.000822321375589765));
#594=CARTESIAN_POINT('',(0.055845217851922,-0.0534388222679863,-0.000600635752235053));
#595=CARTESIAN_POINT('',(0.054679183790508,-0.0534381534240182,-0.000599368607678727));
#596=CARTESIAN_POINT('',(0.0541123665646556,-0.0535577011934058,-0.00082112334492657));
#597=CARTESIAN_POINT('',(0.0533168761849301,-0.0538355012667398,-0.00155088692779771));
#598=CARTESIAN_POINT('',(0.0530741986702646,-0.0539731538680323,-0.00206060029789198));
#599=CARTESIAN_POINT('',(0.0530752082295093,-0.0539703063270285,-0.0026));
#600=CARTESIAN_POINT('',(0.0568591159939766,-0.0543255213873338,-0.0026));
#601=CARTESIAN_POINT('',(0.0568605272885943,-0.0543285973639722,-0.00217283821404558));
#602=CARTESIAN_POINT('',(0.0566819331672626,-0.0542022218028316,-0.0017606696223157));
#603=CARTESIAN_POINT('',(0.0561003081585031,-0.0539479030998998,-0.0011778570264599));
#604=CARTESIAN_POINT('',(0.055688516356424,-0.0538387938654125,-0.00100050845829985));
#605=CARTESIAN_POINT('',(0.0548342357158127,-0.0538381813399944,-0.000999494734070784));
#606=CARTESIAN_POINT('',(0.0544189710257911,-0.0539476619418405,-0.00117689855935428));
#607=CARTESIAN_POINT('',(0.053836169607389,-0.054202068321138,-0.00176070944986448));
#608=CARTESIAN_POINT('',(0.0536583763588978,-0.0543281291355062,-0.00216848019845725));
#609=CARTESIAN_POINT('',(0.0536591159939766,-0.0543255213873338,-0.0026));
#610=CARTESIAN_POINT('',(0.0530752082295093,-0.0539703063270285,-0.0026));
#611=CARTESIAN_POINT('',(0.0532698441509984,-0.0540887113471303,-0.0026));
#612=CARTESIAN_POINT('',(0.0534644800724875,-0.054207116367232,-0.0026));
#613=CARTESIAN_POINT('',(0.0536591159939766,-0.0543255213873338,-0.0026));
#614=CARTESIAN_POINT('',(0.0530752082295093,-0.0539703063270285,-0.0041));
#615=CARTESIAN_POINT('',(0.0530752082295093,-0.0539703063270285,-0.0041));
#616=CARTESIAN_POINT('',(0.0530752082295093,-0.0539703063270285,-0.0045));
#617=CARTESIAN_POINT('',(0.0552591159939766,-0.0581884868443012,0.));
#618=MECHANICAL_DESIGN_GEOMETRIC_PRESENTATION_REPRESENTATION('',(#313),
#619);
#619=(
GEOMETRIC_REPRESENTATION_CONTEXT(3)
GLOBAL_UNCERTAINTY_ASSIGNED_CONTEXT((#620))
GLOBAL_UNIT_ASSIGNED_CONTEXT((#623,#622,#621))
REPRESENTATION_CONTEXT('Part 2','TOP_LEVEL_ASSEMBLY_PART')
);
#620=UNCERTAINTY_MEASURE_WITH_UNIT(LENGTH_MEASURE(2.E-5),#623,
'DISTANCE_ACCURACY_VALUE','Maximum Tolerance applied to model');
#621=(
NAMED_UNIT(*)
SI_UNIT($,.STERADIAN.)
SOLID_ANGLE_UNIT()
);
#622=(
NAMED_UNIT(*)
PLANE_ANGLE_UNIT()
SI_UNIT($,.RADIAN.)
);
#623=(
LENGTH_UNIT()
NAMED_UNIT(*)
SI_UNIT($,.METRE.)
);
#624=PRODUCT_DEFINITION_SHAPE('','',#625);
#625=PRODUCT_DEFINITION('','',#627,#626);
#626=PRODUCT_DEFINITION_CONTEXT('',#633,'design');
#627=PRODUCT_DEFINITION_FORMATION_WITH_SPECIFIED_SOURCE('','',#629,
 .NOT_KNOWN.);
#628=PRODUCT_RELATED_PRODUCT_CATEGORY('','',(#629));
#629=PRODUCT('Part 2','Part 2','Part 2',(#631));
#630=PRODUCT_CATEGORY('','');
#631=PRODUCT_CONTEXT('',#633,'mechanical');
#632=APPLICATION_PROTOCOL_DEFINITION('international standard',
'ap242_managed_model_based_3d_engineering',2020,#633);
#633=APPLICATION_CONTEXT('managed model based 3d engineering');
ENDSEC;
END-ISO-10303-21;
